<svg fill="none" height="40" viewBox="0 0 40 40" width="40" xmlns="http://www.w3.org/2000/svg" xmlns:xlink="http://www.w3.org/1999/xlink"><linearGradient id="a" gradientUnits="userSpaceOnUse" x1="38.3668" x2="22.8994" y1="8.89544" y2="39.526"><stop offset="0" stop-color="#f1d9b4"/><stop offset="1" stop-color="#f9f0e1"/></linearGradient><linearGradient id="b" gradientUnits="userSpaceOnUse" x1="30.0591" x2=".775492" y1="-7.78111" y2="43.01"><stop offset="0" stop-color="#cfdaf8"/><stop offset="1" stop-color="#e4eafb"/></linearGradient><path d="m30.5985 14.6668c.0408.44.068.8828.068 1.3332 0 8.0872-6.5796 14.6668-14.6668 14.6668-.4504 0-.8932-.0272-1.3332-.068v5.4012h21.3332v-21.3332z" fill="url(#a)"/><path d="m11.9999 12h15.302c-1.6484-4.6576-6.0792-8-11.302-8-6.62758 0-11.99998 5.3724-11.99998 12 0 5.2228 3.3424 9.6536 7.99998 11.302z" fill="url(#b)"/><path d="m14.6665 27.9208c.4376.048.8828.078 1.3332.078 6.6276 0 12-5.3712 12-11.9988 0-.4504-.03-.8944-.078-1.3332h-13.2552z" fill="#f4dfc0"/></svg>