<svg fill="none" height="40" viewBox="0 0 40 40" width="40" xmlns="http://www.w3.org/2000/svg" xmlns:xlink="http://www.w3.org/1999/xlink"><linearGradient id="a" gradientUnits="userSpaceOnUse" x1="20.4022" x2="1.97047" y1="-3.41529" y2="28.5538"><stop offset="0" stop-color="#cfdaf8"/><stop offset="1" stop-color="#e4eafb"/></linearGradient><linearGradient id="b" gradientUnits="userSpaceOnUse" x1="37.628" x2="26.9944" y1="17.3659" y2="38.4243"><stop offset="0" stop-color="#f1d9b4"/><stop offset="1" stop-color="#f9f0e1"/></linearGradient><path d="m18.6668 4h-14.6668v14.6668h14.6668z" fill="url(#a)"/><path d="m33.3338 21.3336h-9.3332c-1.466 0-2.6668 1.2004-2.6668 2.6664v9.3336c0 1.4664 1.2008 2.6664 2.6668 2.6664h9.3332c1.4664 0 2.6668-1.2 2.6668-2.6664v-9.3336c0-1.466-1.2004-2.6664-2.6668-2.6664z" fill="url(#b)"/><g fill="#f4dfc0"><path d="m36.0006 11.3348c0 4.048-3.284 7.332-7.3332 7.332-4.0496 0-7.3336-3.284-7.3336-7.332 0-4.0508 3.284-7.3348 7.3336-7.3348 4.0492 0 7.3332 3.284 7.3332 7.3348z"/><path d="m12 21.3336-8 14.6664h16z"/></g></svg>