<svg fill="none" height="48" viewBox="0 0 48 48" width="48" xmlns="http://www.w3.org/2000/svg" xmlns:xlink="http://www.w3.org/1999/xlink"><linearGradient id="a" gradientUnits="userSpaceOnUse" x1="45.79" x2="28.0372" y1="6.9335" y2="49.5237"><stop offset="0" stop-color="#efd3a7"/><stop offset="1" stop-color="#f9f0e1"/></linearGradient><linearGradient id="b" gradientUnits="userSpaceOnUse" x1="36.4991" x2="-1.00086" y1="-2.5" y2="44.5"><stop offset="0" stop-color="#c1cff7"/><stop offset="1" stop-color="#e4eafb"/></linearGradient><path d="m36.7181 17.6001c.049.528.0816 1.0594.0816 1.5998 0 9.7047-7.8955 17.6002-17.6001 17.6002-.5405 0-1.0719-.0326-1.5999-.0816v6.4814h25.5999v-25.5998z" fill="url(#a)"/><path d="m14.3999 14.4h18.3624c-1.9781-5.58907-7.295-9.59995-13.5624-9.59995-7.9531 0-14.39997 6.44685-14.39997 14.39995 0 6.2674 4.01088 11.5844 9.59997 13.5624z" fill="url(#b)"/><path d="m17.5997 33.5049c.5252.0576 1.0594.0936 1.5999.0936 7.9531 0 14.4-6.4454 14.4-14.3986 0-.5404-.036-1.0732-.0936-1.5998h-15.9063z" fill="#f4dfc0"/></svg>