<svg fill="none" height="48" viewBox="0 0 48 48" width="48" xmlns="http://www.w3.org/2000/svg" xmlns:xlink="http://www.w3.org/1999/xlink"><linearGradient id="a" gradientUnits="userSpaceOnUse" x1="31.9992" x2="2.36457" y1="-.5" y2="34.2646"><stop offset="0" stop-color="#c1cff7"/><stop offset="1" stop-color="#e4eafb"/></linearGradient><linearGradient id="b" gradientUnits="userSpaceOnUse" x1="43.001" x2="26.0015" y1="19" y2="46.5003"><stop offset="0" stop-color="#efd3a7"/><stop offset="1" stop-color="#f9f0e1"/></linearGradient><path d="m22.4002 4.80005h-17.6002v17.60015h17.6002z" fill="url(#a)"/><path d="m40.0006 25.6003h-11.1999c-1.7592 0-3.2001 1.4405-3.2001 3.1997v11.2003c0 1.7597 1.4409 3.1997 3.2001 3.1997h11.1999c1.7597 0 3.2001-1.44 3.2001-3.1997v-11.2003c0-1.7592-1.4404-3.1997-3.2001-3.1997z" fill="url(#b)"/><g fill="#f4dfc0"><path d="m43.2007 13.6018c0 4.8576-3.9408 8.7984-8.7998 8.7984-4.8595 0-8.8003-3.9408-8.8003-8.7984 0-4.86095 3.9408-8.80175 8.8003-8.80175 4.859 0 8.7998 3.9408 8.7998 8.80175z"/><path d="m14.4 25.6003-9.6 17.5997h19.2z"/></g></svg>