<svg width="135" height="152" fill="none" xmlns="http://www.w3.org/2000/svg"><g clip-path="url(#a)"><path d="m84.826 15.926-39.11 6.246 2.067-11.942a9.817 9.817 0 0 1 8.12-8.024L68.947.123A9.802 9.802 0 0 1 79.155 5.22l5.671 10.706Z" fill="#DDA45C"/><path d="M79.155 5.22a9.796 9.796 0 0 0-2.766-3.236L49.407 6.293a9.809 9.809 0 0 0-1.624 3.937l-2.068 11.942 39.111-6.246-5.67-10.706Z" fill="#F14D64"/><path d="M106.343 20.635c1.583 10.401-14.908 21.548-36.833 24.897-21.925 3.35-40.982-2.368-42.565-12.768-1.582-10.402 14.908-21.549 36.833-24.897 21.925-3.35 40.982 2.367 42.565 12.768Z" fill="#FBC875"/><path d="M106.167 19.772C103.959 28.998 88.85 38.02 69.51 40.974 48.2 44.229 29.6 38.919 27.12 29.068a9.583 9.583 0 0 0-.176 3.695c1.583 10.401 20.64 16.119 42.565 12.77 21.925-3.35 38.416-14.497 36.833-24.898a9.282 9.282 0 0 0-.176-.863Z" fill="#DDA45C"/><path d="M29.217 37.665s3.807 5.363 10.916 8.086c0 0-3.76-2.681-5.458-5.195-1.698-2.514-5.458-2.89-5.458-2.89ZM97.18 35.427s7.23-3.152 10.863-9.723c0 0-3.397 3.876-8.918 6.193-5.52 2.316-1.945 3.53-1.945 3.53Z" fill="#DDA45C"/><path d="M83.436 69.097c.005.037.178 1.568.585 3.944.614 3.567 1.743 9.023 3.665 14.245.965 2.612 2.126 5.17 3.571 7.426a21.038 21.038 0 0 0 2.412 3.123c.892.94 1.883 1.772 2.995 2.429 1.055.623 2.093 1.083 3.114 1.386 1.019.304 2.019.449 2.976.449a9.278 9.278 0 0 0 2.668-.388c1.448-.432 2.661-1.173 3.648-1.994 1.482-1.237 2.493-2.653 3.17-3.77.673-1.117 1.005-1.945 1.042-2.037a2.488 2.488 0 0 0-1.39-3.23 2.48 2.48 0 0 0-3.223 1.392l1.479.59-1.476-.598-.003.009 1.479.589-1.476-.598a11.869 11.869 0 0 1-1.345 2.298c-.546.733-1.245 1.461-2.013 1.962-.384.253-.784.45-1.204.587-.42.137-.86.214-1.356.214-.461 0-.973-.067-1.563-.243-.589-.175-1.257-.46-2.006-.903-.853-.502-1.715-1.272-2.543-2.28-1.452-1.762-2.767-4.243-3.847-6.96-1.63-4.076-2.754-8.666-3.45-12.207a92.913 92.913 0 0 1-.753-4.344 68.57 68.57 0 0 1-.21-1.55l-.01-.079-.002-.017v-.004a2.483 2.483 0 1 0-4.934.559Z" fill="#F9AF85"/><path d="M81.507 69.386c.01.078.305 2.36.981 5.708.678 3.35 1.73 7.759 3.301 12.147a4.43 4.43 0 0 0 5.67 2.677 4.443 4.443 0 0 0 2.673-5.68c-1.36-3.785-2.337-7.837-2.955-10.905a92.833 92.833 0 0 1-.832-4.754 31.282 31.282 0 0 1-.036-.26l-.008-.059-.002-.011v-.001l-2.475.322 2.475-.321v-.001l-2.475.322 2.475-.321a4.433 4.433 0 0 0-4.963-3.836 4.44 4.44 0 0 0-3.829 4.973Z" fill="#6372BA"/><path d="M80.207 121.969H54.283c-3.256 0-5.92-2.669-5.92-5.932V70.442c0-3.262 2.664-5.932 5.92-5.932h25.924c3.257 0 5.921 2.67 5.921 5.932v45.595c0 3.263-2.664 5.932-5.92 5.932Z" fill="#6372BA"/><path d="M69.398 72.409h-3.865c-2.374 0-4.316-1.946-4.316-4.324v-8.148c0-2.378 1.942-4.324 4.316-4.324h3.865c2.374 0 4.316 1.946 4.316 4.324v8.148c0 2.378-1.942 4.324-4.316 4.324Z" fill="#F9AF85"/><path d="M69.398 68.007h-3.865c-2.374 0-4.316-1.946-4.316-4.324v-2.004c.131.01.263.018.395.024a4.33 4.33 0 0 0 3.92 2.522h3.866a4.329 4.329 0 0 0 3.913-2.504h.403v1.962c0 2.378-1.942 4.324-4.316 4.324Z" fill="#D49270"/><path d="M69.398 64.225h-3.865a4.33 4.33 0 0 1-3.92-2.522c.252.012.507.018.762.018h10.936a4.329 4.329 0 0 1-3.913 2.504Z" fill="#B0775E"/><path d="M73.58 61.721H62.376c-8.722 0-15.86-7.15-15.86-15.89V29.499c0-8.739 7.138-15.89 15.86-15.89h11.206c8.723 0 15.86 7.151 15.86 15.89v16.334c0 8.74-7.138 15.89-15.86 15.89Z" fill="#F9AF85"/><path d="M69.89 49.493h-1.745a2.289 2.289 0 0 1-2.28-2.284V30.2c0-.624.51-1.135 1.133-1.135h4.01c.64 0 1.162.524 1.162 1.163v16.98a2.29 2.29 0 0 1-2.28 2.285Z" fill="#F57B8D"/><path d="M68.565 49.493h.905c.852 0 1.614-.402 2.11-1.025-3.015.594-4.088-.856-4.088-.856V29.065h-.286c-.737 0-1.341.605-1.341 1.344v16.38a2.71 2.71 0 0 0 2.7 2.704Z" fill="#CF6B78"/><path d="M64.33 36.12c0 2.45-1.202 4.436-2.685 4.436s-2.685-1.986-2.685-4.435c0-2.45 1.202-4.435 2.685-4.435s2.685 1.986 2.685 4.435ZM79.075 36.12c0 2.45-1.202 4.436-2.685 4.436s-2.685-1.986-2.685-4.435c0-2.45 1.202-4.435 2.685-4.435s2.685 1.986 2.685 4.435Z" fill="#431615"/><path d="M76.68 50.776s-12.945.874-16.567-5.443c0 0-4.12 9.41 4.024 12.432 10.866 4.031 12.543-6.989 12.543-6.989Z" fill="#232453"/><path d="m62.964 50.978 2.214 4.167c-2.019-3.818-4.782-5.487-6.024-6.078-.35 2.977.219 6.93 4.983 8.698 2.528.938 4.556 1.063 6.183.701-2.308-5.547-7.356-7.488-7.356-7.488Z" fill="#F57B8D"/><path d="M60.948 46.49c1.758 2.71 6.527 8 15.428 4.301-1.82.078-11.416.257-15.428-4.301Z" fill="#fff"/><path d="M50.237 37.607c-.754-2.598-2.17-4.656-3.721-5.637v-1.448c0-9.302 7.596-16.913 16.881-16.913h9.161c9.286 0 16.882 7.61 16.882 16.913v1.002c-1.693.578-3.347 2.507-4.322 5.128-1.453-4.671-2.144-9.172-2.144-9.172-3.518 1.116-7.48 1.613-11.374 1.748a1.15 1.15 0 0 0-.592-.163h-4.01c-.204 0-.396.055-.562.15-8.029-.296-14.644-1.735-14.644-1.735-.194 4.095-.804 7.447-1.555 10.127Z" fill="#D49270"/><path d="M69.252 29.269c-.591 0-1.18-.008-1.76-.021v-.183h-.286c-.225 0-.437.057-.624.156l-.146-.005c.166-.096.358-.151.562-.151h4.01c.216 0 .419.06.592.163a67.51 67.51 0 0 1-2.348.04Z" fill="#D66876"/><path d="M67.492 29.248a83.566 83.566 0 0 1-.91-.027c.187-.1.4-.156.624-.156h.285v.183Z" fill="#AD5763"/><path d="M45.236 33.218S43.704 12.6 57.529 12.6h20.444s12.692.05 12.692 20.617l-4.558 2.243-2.035-9.635s-4.21 2.373-14.79 2.373c-10.58 0-18.053-2.577-18.053-2.577s.074 6.283-1.554 11.25l-4.44-3.654Z" fill="#8E431B"/><path d="M86.995 18.148c-3.748-5.524-9.022-5.547-9.022-5.547H57.53c-7.446 0-10.436 5.98-11.611 11.498 5.635-2.238 12.294-4.047 19.528-5.151 7.788-1.19 15.185-1.406 21.55-.8Z" fill="#692F16"/><path d="M51.229 25.622S58.702 28.2 69.282 28.2c10.58 0 14.79-2.373 14.79-2.373l2.035 9.635 2.865-1.41c-1.637-4.972-1.522-11.47-1.522-11.47-17.048 6.102-37.615 0-37.615 0-.133 6.281-2.509 9.478-4.2 10.966l4.04 3.325c1.628-4.967 1.554-11.25 1.554-11.25Z" fill="#692F16"/><path d="M50.36 38.059c1.093 4.296-.038 8.294-2.525 8.93-2.488.635-5.39-2.333-6.483-6.63-1.094-4.297.037-8.295 2.525-8.93 2.487-.635 5.39 2.333 6.483 6.63ZM84.68 38.059c-1.094 4.296.037 8.294 2.525 8.93 2.488.635 5.39-2.333 6.483-6.63 1.094-4.297-.037-8.295-2.525-8.93-2.487-.635-5.39 2.333-6.483 6.63Z" fill="#F9AF85"/><path d="M48.653 38.021c.635 2.538-.118 4.915-1.683 5.308-1.565.393-3.35-1.345-3.984-3.884-.636-2.538.118-4.914 1.683-5.308 1.565-.393 3.349 1.346 3.984 3.884Z" fill="url(#b)"/><path d="M86.813 39.02c-.636 2.537.118 4.914 1.683 5.307 1.565.394 3.349-1.345 3.984-3.884.635-2.538-.118-4.914-1.683-5.308-1.565-.393-3.35 1.346-3.984 3.884Z" fill="url(#c)"/><path d="M61.167 62.5s-5.433 1.74-5.433 6.583c0 4.842 8.275 6.052 12.52 6.052v-2.648s-6.411-.734-7.087-4.34V62.5Z" fill="#F14D64"/><path d="M73.73 62.5s5.433 1.74 5.433 6.583c0 4.842-8.274 6.052-12.519 6.052v-2.648s6.411-.734 7.087-4.34V62.5Z" fill="#F14D64"/><path d="M67.466 73.456s-5.659.093-5.552 6.724c0 0 4.771-.513 5.552-6.724ZM67.466 73.456s5.658.093 5.551 6.724c0 0-4.771-.513-5.551-6.724Z" fill="#C03947"/><path d="M69.993 73.456a2.53 2.53 0 0 1-2.527 2.532 2.53 2.53 0 0 1-2.528-2.532 2.53 2.53 0 0 1 2.528-2.532 2.53 2.53 0 0 1 2.527 2.532Z" fill="#F14355"/><path d="m78.606 49.989-3.747.239a.836.836 0 0 1-.884-.78.837.837 0 0 1 .778-.886l3.747-.239a.836.836 0 0 1 .106 1.666ZM62.697 46.923l-3.066-2.172a.834.834 0 0 1 .962-1.362l3.065 2.171a.838.838 0 0 1 .2 1.163.835.835 0 0 1-1.161.2Z" fill="#8E431B"/><path d="M46.207 69.661c-.001.048-.025 1.501-.203 3.724a79.53 79.53 0 0 1-.708 6.025c-.533 3.386-1.388 7.138-2.67 10.28-.64 1.57-1.384 2.985-2.21 4.125-.825 1.143-1.72 2-2.658 2.553-1.279.755-2.468 1.24-3.567 1.541-1.099.3-2.11.418-3.036.418-1.902 0-3.469-.5-4.555-1.001a9.675 9.675 0 0 1-1.227-.67 6.145 6.145 0 0 1-.283-.196l-.05-.038-.004-.002-.692.88.709-.868-.017-.012-.692.88.709-.868a2.48 2.48 0 0 0-3.494.35 2.49 2.49 0 0 0 .349 3.499c.123.1 1.034.834 2.618 1.564a15.868 15.868 0 0 0 6.63 1.456c1.347 0 2.81-.173 4.344-.594 1.535-.42 3.14-1.086 4.78-2.055 1.496-.884 2.745-2.082 3.798-3.44.922-1.19 1.699-2.508 2.371-3.901 1.175-2.438 2.031-5.107 2.682-7.755.973-3.97 1.475-7.893 1.743-10.847.267-2.952.296-4.93.297-4.978a2.485 2.485 0 0 0-2.447-2.522 2.484 2.484 0 0 0-2.517 2.452Z" fill="#F9AF85"/><path d="m44.353 69.55 2.396-.074-2.397.056v.019l2.397-.075-2.397.056v.03l.001.098c0 .88-.104 6.244-2.483 14.825a4.442 4.442 0 0 0 3.085 5.468 4.43 4.43 0 0 0 5.456-3.091c2.617-9.439 2.807-15.617 2.807-17.202 0-.211-.003-.34-.005-.386a4.436 4.436 0 0 0-4.568-4.3 4.438 4.438 0 0 0-4.292 4.577Z" fill="#6372BA"/><path d="M42.841 119.302H25.438v-36.88a2.299 2.299 0 0 1 2.296-2.301h15.107v39.181Z" fill="#DA4A1F"/><path d="M42.841 102.742c-4.176 9.797-11.123 12.461-17.403 12.503v4.057H42.84v-16.56Z" fill="#B33D20"/><path d="M42.841 102.742c-4.176 9.797-11.123 12.461-17.403 12.503v4.057H42.84v-16.56Z" fill="#B33D20"/><path d="M42.841 113.174c-4.176 3.58-11.123 4.553-17.403 4.569v1.482H42.84v-6.051Z" fill="#A3321F"/><path d="M39.616 117.422H28.505V82.463h11.11v34.959Z" fill="#fff"/><path d="M39.616 117.422H28.505v-.428h11.11v.428ZM39.616 115.251H28.505v-.428h11.11v.428ZM39.616 113.079H28.505v-.428h11.11v.428ZM39.616 110.907H28.505v-.427h11.11v.427ZM39.616 108.736H28.505v-.428h11.11v.428ZM39.616 106.564H28.505v-.428h11.11v.428ZM39.616 104.393H28.505v-.428h11.11v.428ZM39.616 102.221H28.505v-.428h11.11v.428ZM39.616 100.05H28.505v-.428h11.11v.428ZM39.616 97.878H28.505v-.428h11.11v.428ZM39.616 95.706H28.505v-.428h11.11v.428ZM39.616 93.535H28.505v-.428h11.11v.428ZM39.616 91.363H28.505v-.428h11.11v.428ZM39.616 89.192H28.505v-.428h11.11v.428ZM39.616 87.02H28.505v-.428h11.11v.428ZM39.616 84.849H28.505v-.428h11.11v.428ZM39.616 82.677H28.505v-.428h11.11v.428Z" fill="#9DA09F"/><path d="M39.656 115.645h-6.853v-1.227h6.853v1.227ZM39.656 111.302h-6.853v-1.226h6.853v1.226ZM39.656 106.959h-6.853v-1.227h6.853v1.227ZM39.656 102.616h-6.853v-1.227h6.853v1.227ZM39.656 98.272h-6.853v-1.226h6.853v1.226ZM39.656 93.93h-6.853v-1.227h6.853v1.226ZM39.656 89.586h-6.853V88.36h6.853v1.227ZM39.656 85.243h-6.853v-1.226h6.853v1.226Z" fill="#3D3F41"/><path d="M39.624 119.296h3.217V80.121h-3.217v39.175Z" fill="#F46B31"/><path d="M39.624 119.296h3.274v-19.234h-3.274v19.234Z" fill="#F25B1C"/><path d="m109.602 107.484-11.888 3.741-11.718-37.382 9.26-2.914a2.754 2.754 0 0 1 3.454 1.807l10.892 34.748Z" fill="#DA4A1F"/><path d="M105.226 93.525c-1.546 6.334-4.97 9.41-9.79 10.432l2.278 7.268 11.888-3.741-4.376-13.96Z" fill="#B33D20"/><path d="M107.976 102.297c-2.595 2.99-6.378 4.922-11.109 6.227l.847 2.701 11.888-3.741-1.626-5.187Z" fill="#A3321F"/><path d="m97.572 111.262 3.07-.965-11.716-37.376-3.07.966 11.716 37.375Z" fill="#F46B31"/><path d="m97.572 111.262 3.124-.983-5.752-18.35-3.124.983 5.752 18.35Z" fill="#F25B1C"/><path d="M93.138 77.455a.844.844 0 1 1-1.612.507.845.845 0 1 1 1.612-.507ZM95.848 76.602a.844.844 0 1 1-1.612.507.845.845 0 1 1 1.612-.507ZM98.558 75.75a.844.844 0 1 1-1.612.507.846.846 0 0 1 1.612-.508ZM95.48 79.54a.845.845 0 1 1-1.058-.553.844.844 0 0 1 1.059.553ZM98.191 78.687a.844.844 0 1 1-1.612.507.844.844 0 1 1 1.612-.507ZM95 83.4a.845.845 0 1 1-1.611.507A.844.844 0 1 1 95 83.4ZM97.711 82.547a.844.844 0 1 1-1.612.507.844.844 0 1 1 1.612-.507ZM100.422 81.695a.844.844 0 1 1-1.612.507.846.846 0 1 1 1.612-.507ZM97.345 85.485a.844.844 0 1 1-1.612.507.845.845 0 1 1 1.612-.507ZM100.055 84.632a.844.844 0 1 1-1.612.507.846.846 0 0 1 1.612-.507ZM96.864 89.345a.845.845 0 1 1-1.058-.554.844.844 0 0 1 1.058.554ZM99.575 88.492a.845.845 0 1 1-1.612.507.846.846 0 1 1 1.612-.507ZM102.285 87.64a.845.845 0 1 1-1.612.508.845.845 0 0 1 1.612-.509ZM99.208 91.43a.844.844 0 1 1-1.612.507.845.845 0 1 1 1.612-.507ZM101.918 90.577a.846.846 0 1 1-1.613.508.846.846 0 0 1 1.613-.508ZM98.728 95.29a.844.844 0 1 1-1.612.507.844.844 0 1 1 1.612-.507ZM101.438 94.437a.846.846 0 0 1-.553 1.06.847.847 0 0 1-.506-1.615.845.845 0 0 1 1.059.555ZM104.148 93.584a.845.845 0 1 1-1.611.507.847.847 0 0 1 .553-1.06.843.843 0 0 1 1.058.553ZM101.071 97.375a.845.845 0 1 1-1.611.507.845.845 0 1 1 1.611-.507ZM103.782 96.522a.845.845 0 1 1-1.612.507.844.844 0 1 1 1.612-.507ZM100.591 101.235a.845.845 0 1 1-1.613.508.845.845 0 0 1 1.613-.508ZM103.302 100.382a.845.845 0 1 1-1.61.508.845.845 0 0 1 1.61-.508ZM106.012 99.529a.845.845 0 1 1-1.61.51.845.845 0 0 1 1.61-.51ZM102.935 103.319a.844.844 0 1 1-1.612.507.845.845 0 1 1 1.612-.507ZM105.645 102.467a.847.847 0 0 1-.553 1.061.847.847 0 0 1-.506-1.615.843.843 0 0 1 1.059.554Z" fill="#fff"/><path d="M42.841 80.12a150.205 150.205 0 0 0 43.016-6.233l11.715 37.375a173.033 173.033 0 0 1-54.674 8.034l-.057-39.175Z" fill="#EEDECA"/><path d="m97.572 111.262-5.941-18.954c-8.04 9.649-22.558 18.322-48.744 19.151l.011 7.837a173.016 173.016 0 0 0 54.674-8.034Z" fill="#D8CABA"/><path d="M94.63 101.874c-9.157 7.634-24.854 14.333-51.734 15.48l.002 1.942a173.016 173.016 0 0 0 54.674-8.034l-2.942-9.388Z" fill="#C9BBAD"/><path d="M76.743 116.45c.367-.068.732-.136 1.095-.205l-7.69-38.594c-.363.067-.727.134-1.095.198l7.69 38.601ZM85.941 114.496l1.087-.264-9.834-38.049c-.36.084-.724.168-1.09.25l9.837 38.063ZM44.581 119.311c.373.002.749.002 1.127.002V80.096c-.379.007-.754.012-1.127.016v39.199ZM90.489 113.335c.362-.098.725-.196 1.082-.295l-10.88-37.717c-.36.094-.722.186-1.087.277l10.885 37.735ZM83.076 74.684l11.912 37.372c.362-.108.723-.217 1.079-.326L84.16 74.38c-.359.101-.72.203-1.085.304ZM67.478 117.897c.367-.047.734-.094 1.104-.144l-5.498-38.976-.075.01c-.345.047-.687.09-1.03.134l5.499 38.976ZM81.356 115.535c.366-.077.729-.156 1.09-.236l-8.768-38.338c-.362.076-.727.15-1.093.223l8.771 38.351ZM72.114 117.237c.368-.057.734-.116 1.098-.175l-6.597-38.805c-.365.058-.732.114-1.1.17l6.599 38.81ZM49.09 119.274c.37-.007.745-.018 1.12-.029l-1.087-39.249c-.377.016-.75.03-1.122.042l1.088 39.236ZM53.642 119.116c.37-.018.743-.037 1.117-.058l-2.185-39.24-1.116.066 2.184 39.232ZM58.231 118.835c.37-.027.74-.054 1.113-.085l-3.288-39.195c-.373.032-.744.064-1.112.094l3.287 39.186ZM62.847 118.431c.367-.037.737-.078 1.108-.118L59.56 79.208l-1.107.119 4.393 39.104Z" fill="#A7968A"/><path d="M31.79 106.848a1.913 1.913 0 0 1-2.381 1.272l-7.8-2.377a1.92 1.92 0 0 1-1.27-2.387 1.914 1.914 0 0 1 2.382-1.273l7.8 2.379a1.917 1.917 0 0 1 1.27 2.386Z" fill="#F9AF85"/><path d="M26.751 107.269s3.933 1.483 4.816-.371c.984-2.064-2.212-2.789-4.89-3.633 0 0 6.403.876 5.693 3.284-.71 2.406-2.98 1.909-5.619.72Z" fill="#A86C51"/><path d="M21.781 105.796s-1.686-.356-1.482-2.138c.203-1.783 1.919-1.695 2.218-1.618 0 0-1.776.03-2.026 1.542-.25 1.514 1.29 2.214 1.29 2.214Z" fill="#FBC6AA"/><path d="M32.537 103.068a1.913 1.913 0 0 1-2.382 1.272l-7.8-2.377a1.921 1.921 0 0 1-1.27-2.387c.306-1.007 1.408-1.577 2.412-1.27l7.77 2.375a1.919 1.919 0 0 1 1.27 2.387Z" fill="#F9AF85"/><path d="M27.497 103.489s3.933 1.482 4.817-.371c.983-2.064-2.213-2.789-4.891-3.634 0 0 6.404.877 5.693 3.284-.71 2.407-2.979 1.91-5.619.721Z" fill="#A86C51"/><path d="M22.527 102.016s-1.685-.356-1.481-2.139c.203-1.782 1.918-1.694 2.218-1.617 0 0-1.776.03-2.027 1.542-.25 1.514 1.29 2.214 1.29 2.214Z" fill="#FBC6AA"/><path d="M33.535 99.596a1.914 1.914 0 0 1-2.381 1.273l-7.8-2.378a1.92 1.92 0 0 1-1.27-2.386 1.914 1.914 0 0 1 2.382-1.273l7.8 2.378a1.918 1.918 0 0 1 1.27 2.386Z" fill="#F9AF85"/><path d="M28.496 100.018s3.933 1.482 4.816-.371c.984-2.065-2.212-2.79-4.89-3.634 0 0 6.403.877 5.693 3.284-.71 2.406-2.98 1.909-5.619.721Z" fill="#A86C51"/><path d="M23.526 98.544s-1.686-.355-1.482-2.138c.203-1.782 1.918-1.695 2.219-1.618 0 0-1.777.03-2.027 1.542-.25 1.515 1.29 2.214 1.29 2.214Z" fill="#FBC6AA"/><path d="M34.704 96.154a1.913 1.913 0 0 1-2.38 1.272l-7.801-2.377a1.92 1.92 0 0 1-1.27-2.387 1.913 1.913 0 0 1 2.382-1.273l7.8 2.379a1.918 1.918 0 0 1 1.27 2.386Z" fill="#F9AF85"/><path d="M29.665 96.575s3.933 1.482 4.817-.37c.983-2.065-2.213-2.79-4.891-3.635 0 0 6.404.877 5.693 3.285-.71 2.406-2.98 1.909-5.619.72Z" fill="#A86C51"/><path d="M24.695 95.102s-1.686-.356-1.481-2.139c.202-1.782 1.918-1.694 2.218-1.617 0 0-1.777.03-2.027 1.542-.25 1.514 1.29 2.214 1.29 2.214Z" fill="#FBC6AA"/><path d="M102.697 101.473a1.914 1.914 0 0 0 2.381 1.273l7.8-2.378a1.92 1.92 0 0 0 1.271-2.387 1.914 1.914 0 0 0-2.382-1.273l-7.8 2.379a1.918 1.918 0 0 0-1.27 2.386Z" fill="#F9AF85"/><path d="M107.736 101.894s-3.932 1.483-4.816-.371c-.983-2.064 2.212-2.789 4.891-3.634 0 0-6.404.877-5.694 3.285.711 2.406 2.98 1.909 5.619.72Z" fill="#A86C51"/><path d="M112.706 100.421s1.686-.356 1.482-2.138c-.203-1.782-1.919-1.695-2.219-1.618 0 0 1.777.03 2.027 1.542.251 1.515-1.29 2.214-1.29 2.214Z" fill="#FBC6AA"/><path d="M101.95 97.693a1.915 1.915 0 0 0 2.382 1.272l7.8-2.377a1.92 1.92 0 0 0 1.27-2.387 1.914 1.914 0 0 0-2.382-1.273l-7.799 2.379a1.919 1.919 0 0 0-1.271 2.386Z" fill="#F9AF85"/><path d="M106.989 98.114s-3.932 1.482-4.816-.37c-.983-2.065 2.213-2.79 4.891-3.635 0 0-6.404.877-5.693 3.284.71 2.407 2.979 1.91 5.618.721Z" fill="#A86C51"/><path d="M111.96 96.64s1.686-.355 1.481-2.137c-.202-1.783-1.918-1.695-2.218-1.618 0 0 1.776.03 2.026 1.542.251 1.514-1.289 2.214-1.289 2.214Z" fill="#FBC6AA"/><path d="M100.952 94.222a1.913 1.913 0 0 0 2.381 1.272l7.801-2.378a1.92 1.92 0 0 0 1.27-2.386 1.915 1.915 0 0 0-2.382-1.273l-7.8 2.378a1.918 1.918 0 0 0-1.27 2.387Z" fill="#F9AF85"/><path d="M105.991 94.643s-3.932 1.482-4.816-.371c-.984-2.064 2.212-2.79 4.891-3.634 0 0-6.404.877-5.694 3.284.711 2.406 2.98 1.91 5.619.72Z" fill="#A86C51"/><path d="M110.961 93.17s1.686-.356 1.482-2.139c-.203-1.782-1.919-1.695-2.219-1.618 0 0 1.777.03 2.027 1.542.251 1.515-1.29 2.215-1.29 2.215Z" fill="#FBC6AA"/><path d="M99.782 90.779a1.914 1.914 0 0 0 2.382 1.272l7.8-2.377a1.92 1.92 0 0 0 1.27-2.387 1.914 1.914 0 0 0-2.382-1.273l-7.799 2.378a1.92 1.92 0 0 0-1.27 2.387Z" fill="#F9AF85"/><path d="M104.822 91.2s-3.933 1.482-4.816-.37c-.984-2.065 2.212-2.79 4.891-3.635 0 0-6.404.877-5.694 3.284s2.979 1.91 5.619.721Z" fill="#A86C51"/><path d="M109.792 89.727s1.686-.356 1.481-2.138c-.202-1.783-1.918-1.695-2.218-1.618 0 0 1.777.03 2.027 1.542.251 1.514-1.29 2.214-1.29 2.214Z" fill="#FBC6AA"/><path d="M65.446 16.49c19.323-2.952 36.256.085 40.912 6.821.12-.894.12-1.788-.015-2.676-1.583-10.4-20.64-16.118-42.565-12.768-21.925 3.348-38.415 14.495-36.833 24.897a9.559 9.559 0 0 0 1.239 3.426c1.416-8.124 17.135-16.626 37.262-19.7Z" fill="#FBC875"/><path d="M36.799 18.944s-7.408 2.606-9.578 6.76c0 0 1.84-6.476 14.547-11.078l-4.97 4.318ZM100.494 14.312s-1.271-5.578-14.366-7.753c0 0 14.257-.551 18.959 10.62l-4.593-2.867Z" fill="#FBC875"/><path d="M15.338 127.197 0 134.767l10.994 4.766L8.351 152l16.492-6.853-9.505-17.95Z" fill="#F57F38"/><path d="m15.335 141.954 9.508 3.193-2.857-7.692-6.651 4.499Z" fill="#C05823"/><path d="m119.662 127.197 15.338 7.57-10.994 4.766L126.648 152l-16.491-6.853 9.505-17.95Z" fill="#F57F38"/><path d="m119.665 141.954-9.508 3.193 2.857-7.692 6.651 4.499Z" fill="#C05823"/><path d="M15.032 141.954s46.917-7.303 104.307 0l2.78-22.686s-54.485-8.827-109.877 0c0 0 3.338 23.235 2.79 22.686Z" fill="#FF911B"/><path d="M44.568 132.622a.762.762 0 0 1-.57-.207.792.792 0 0 1-.252-.547l-.45-8.594a.79.79 0 0 1 .739-.837l.376-.019a.762.762 0 0 1 .57.207c.166.15.254.332.265.546l.166 3.167c.004.075.043.11.117.106l3.482-.183c.074-.004.11-.043.105-.117l-.165-3.167a.768.768 0 0 1 .207-.571.763.763 0 0 1 .545-.266l.376-.02a.716.716 0 0 1 .555.209.762.762 0 0 1 .266.545l.45 8.595a.764.764 0 0 1-.208.57.718.718 0 0 1-.53.266l-.376.02a.763.763 0 0 1-.57-.208.766.766 0 0 1-.266-.546l-.193-3.697c-.005-.084-.044-.124-.118-.12l-3.482.183c-.074.004-.109.048-.105.131l.194 3.698a.764.764 0 0 1-.208.57.76.76 0 0 1-.544.267l-.376.019ZM57.831 124.872c-.283-.381-.699-.562-1.247-.543-.548.019-.954.229-1.22.63-.256.391-.37 1.005-.34 1.843.03.838.185 1.447.468 1.829.293.372.713.548 1.26.529.549-.019.951-.224 1.207-.615.265-.401.383-1.02.354-1.858-.03-.838-.19-1.443-.482-1.815Zm1.527 4.574c-.59.673-1.443 1.029-2.558 1.068-1.115.039-1.995-.256-2.64-.886-.636-.639-.975-1.559-1.017-2.76-.042-1.201.232-2.138.823-2.811.599-.683 1.456-1.044 2.571-1.083 1.115-.039 1.99.262 2.627.901.645.63.989 1.545 1.03 2.746.042 1.201-.236 2.143-.836 2.825ZM62.79 129.459l-1.395-5.728a.604.604 0 0 1 .111-.531.605.605 0 0 1 .488-.238h.349c.232 0 .437.075.613.224a.905.905 0 0 1 .321.558l.865 4.932c0 .01.004.014.014.014.018 0 .027-.004.027-.014l.88-4.932a.97.97 0 0 1 .334-.558.905.905 0 0 1 .6-.224h.697c.232 0 .437.075.613.224a.905.905 0 0 1 .321.558l.879 4.932c0 .01.009.014.027.014.01 0 .014-.004.014-.014l.865-4.932a.971.971 0 0 1 .335-.558.905.905 0 0 1 .6-.224h.292a.58.58 0 0 1 .488.238c.13.158.168.335.112.531l-1.395 5.728c-.056.223-.176.41-.362.559a.964.964 0 0 1-.614.209h-.697a.904.904 0 0 1-.6-.223.973.973 0 0 1-.335-.559l-.906-4.792c0-.01-.005-.014-.014-.014-.01 0-.014.004-.014.014l-.906 4.792a.907.907 0 0 1-.321.559.923.923 0 0 1-.614.223h-.697a1.003 1.003 0 0 1-.976-.768ZM76.467 124.22c-1.07 0-1.604.791-1.604 2.375 0 .791.144 1.388.433 1.788a1.38 1.38 0 0 0 1.17.587c.438 0 .814-.145 1.13-.433.316-.289.475-.62.475-.992v-1.9c0-.373-.159-.704-.475-.992a1.617 1.617 0 0 0-1.13-.433Zm-.558 6.147c-.827 0-1.515-.335-2.064-1.006-.548-.68-.823-1.602-.823-2.766 0-1.202.26-2.129.781-2.781.53-.661 1.232-.992 2.106-.992.79 0 1.488.289 2.092.867.01.009.018.014.028.014.009 0 .014-.005.014-.014v-3.144c0-.214.079-.4.237-.559a.764.764 0 0 1 .558-.237h.278c.214 0 .4.079.558.237a.767.767 0 0 1 .237.559v8.886c0 .214-.079.4-.237.559a.763.763 0 0 1-.558.237h-.153a.803.803 0 0 1-.572-.223.864.864 0 0 1-.237-.573l-.014-.098c0-.009-.004-.014-.014-.014-.009 0-.018.005-.028.014-.613.689-1.343 1.034-2.189 1.034ZM84.077 131.078l-2.09-6.49a.56.56 0 0 1 .087-.5.498.498 0 0 1 .454-.222l.418.015c.232.008.444.09.633.246.19.146.31.332.358.557l1.137 4.611c0 .01.004.015.013.015.01 0 .014-.004.014-.014l1.651-4.527c.083-.221.224-.398.424-.531.2-.132.416-.195.648-.187l.334.012a.499.499 0 0 1 .438.253c.106.162.119.33.038.505l-3.709 8.733a1.07 1.07 0 0 1-.436.516c-.2.133-.421.195-.663.187l-.334-.012a.522.522 0 0 1-.438-.253.483.483 0 0 1-.025-.49l1.04-2.201a.244.244 0 0 0 .032-.11.249.249 0 0 0-.024-.113ZM90.974 130.141a.806.806 0 0 1-.56-.254.832.832 0 0 1-.22-.585l.08-5.536a.74.74 0 0 1 .238-.547.72.72 0 0 1 .556-.209l.752.04c.213.011.39.1.53.265.14.166.2.356.18.57l-.498 5.514a.835.835 0 0 1-.28.559.804.804 0 0 1-.583.193l-.195-.01Zm.276 1.133c.213.012.39.1.53.266.15.166.22.357.208.571l-.019.362a.766.766 0 0 1-.266.546.72.72 0 0 1-.555.209l-.474-.025a.79.79 0 0 1-.738-.836l.019-.363a.792.792 0 0 1 .252-.547.767.767 0 0 1 .57-.208l.473.025Z" fill="#fff"/><path d="M15.342 141.956v-.004l-.007.002.007.002Z" fill="#F9AB1C"/></g><defs><linearGradient id="b" x1="66.56" y1="12.812" x2="67.014" y2="152.002" gradientUnits="userSpaceOnUse"><stop stop-color="#A56451"/><stop offset="1" stop-color="#A56451" stop-opacity="0"/></linearGradient><linearGradient id="c" x1="66.56" y1="12.812" x2="67.014" y2="152.002" gradientUnits="userSpaceOnUse"><stop stop-color="#A56451"/><stop offset="1" stop-color="#A56451" stop-opacity="0"/></linearGradient><clipPath id="a"><path fill="#fff" d="M0 0h135v152H0z"/></clipPath></defs></svg>