<svg width="171" height="125" fill="none" xmlns="http://www.w3.org/2000/svg"><path d="M133.878 80.114c-1.351-.445-2.516-1.506-3.089-2.596-1.059-2.013-.999-4.407-.913-6.68.148-3.935.334-8.007 1.548-11.706a18.014 18.014 0 0 1 1.512-3.416c.78-1.344 1.794-2.607 3.162-3.344 1.097-.593 2.456-.79 3.623-.406.286.094.56.223.817.39 1.542 1.002 2.047 3.002 2.289 4.825a36.542 36.542 0 0 1-1.506 16.129c-.779 2.363-1.886 4.733-3.858 6.244-1.162.87-2.44.936-3.585.56Z" fill="#FFB5C0"/><path d="M126.905 89.895c-2.34-2.381-5.597-3.662-8.896-4.174-1.773-.275-3.691-.349-5.25.537-1.559.887-2.507 3.038-1.55 4.555.569.902 1.627 1.36 2.644 1.681 2.46.777 5.32 1.24 6.792 3.358.839 1.208 1.123 2.85 2.322 3.703 1.172.835 2.9.549 3.98-.402 1.08-.951 1.588-2.417 1.702-3.852 0 0 .612-3.007-1.744-5.406Z" fill="#F03D5F"/><path d="M141.033 84.643c-1.14-2.836-.43-6.193 1.318-8.7 1.748-2.509 4.408-4.256 7.211-5.477a27.678 27.678 0 0 1 10.439-2.281c1.41-.029 2.859.059 4.151.626 1.291.565 2.411 1.688 2.642 3.08.343 2.057-1.238 3.896-2.764 5.318a70.268 70.268 0 0 1-8.618 6.855c-2.451 1.653-5.142 3.193-8.094 3.332-2.954.14-5.639-.874-6.431-3.15" fill="#FFB5C0"/><path d="M125.364 116.723c-.032-.008.046-.424.213-1.169l.706-3.15c.281-1.332.596-2.922.787-4.704.19-1.777.225-3.76.11-5.819-.143-2.058-.503-4.004-1.125-5.67-.612-1.669-1.515-3.028-2.478-3.958a10.09 10.09 0 0 0-2.579-1.84c-.69-.307-1.071-.495-1.061-.527.01-.032.412.094 1.14.356.71.287 1.716.822 2.738 1.765 1.032.932 2.004 2.33 2.658 4.044.665 1.71 1.047 3.704 1.192 5.798.117 2.096.068 4.094-.15 5.902-.219 1.805-.572 3.401-.896 4.73a64.014 64.014 0 0 1-.86 3.121c-.222.731-.363 1.13-.395 1.121Z" fill="#17282F"/><path opacity=".2" d="M125.926 114.306c-.015-.006.034-.188.142-.529.128-.39.291-.88.492-1.483a172.195 172.195 0 0 0 1.728-5.475c1.4-4.64 3.094-11.126 4.626-18.362 1.527-7.24 2.572-13.86 3.124-18.677.152-1.202.265-2.292.348-3.251.095-.958.178-1.784.219-2.46l.128-1.557c.035-.355.061-.542.077-.542.018 0 .023.188.021.546l-.037 1.564c-.012.68-.068 1.509-.136 2.472a72.77 72.77 0 0 1-.278 3.266c-.466 4.837-1.46 11.484-2.991 18.74-1.535 7.251-3.286 13.737-4.773 18.362a101.681 101.681 0 0 1-1.878 5.438l-.579 1.454c-.137.329-.216.5-.233.494Z" fill="#17282F"/><path opacity=".2" d="M129.939 102.004c-.032-.011.154-.561.521-1.547.384-.977.994-2.372 1.857-4.044a58.174 58.174 0 0 1 3.378-5.67 57.219 57.219 0 0 1 4.941-6.4c3.78-4.337 8.017-7.505 11.366-9.23.81-.483 1.627-.755 2.307-1.061.348-.14.663-.29.966-.39l.842-.249c1.012-.292 1.572-.438 1.58-.406.041.125-2.255.624-5.534 2.41-3.267 1.783-7.415 4.949-11.163 9.25a60.879 60.879 0 0 0-4.934 6.328c-1.411 2.027-2.536 3.949-3.447 5.58a64.127 64.127 0 0 0-1.985 3.956c-.417.958-.664 1.485-.695 1.473Z" fill="#17282F"/><path d="M53.67 105.314c8.712-8.616 8.755-21.84 6.383-33.312-.396-1.915-.533-3.982-1.739-5.515-1.207-1.533-3.543-2.321-5.128-1.213-1.316.918-1.653 2.69-2.217 4.203a11.437 11.437 0 0 1-3.778 5.09c-1.117.847-2.568 1.497-3.893 1.037-1.82-.632-2.41-2.893-2.726-4.811L38.8 60.069c-.316-1.918-.646-3.875-1.554-5.591-.908-1.716-2.515-3.18-4.425-3.377-1.91-.197-3.983 1.24-4.047 3.181-.026.808.272 1.591.355 2.395.084.805-.136 1.748-.853 2.1-.727.355-1.586-.056-2.255-.519-2.31-1.595-4.08-3.857-5.759-6.12-1.68-2.262-3.332-4.59-5.488-6.392-2.156-1.803-4.925-3.049-7.696-2.733-2.77.316-5.403 2.51-5.634 5.323-.232 2.82 1.814 5.29 3.904 7.183a43.403 43.403 0 0 0 10.361 6.96c.678.324 1.412.675 1.764 1.345.636 1.206-.357 2.682-1.546 3.318-1.346.721-2.921.839-4.385 1.27-1.463.433-2.969 1.37-3.292 2.879-.448 2.093 1.542 3.864 3.384 4.932A37.184 37.184 0 0 0 23.55 80.62c1.498.274 3.06.472 4.366 1.267 1.306.795 2.287 2.4 1.833 3.866-.456 1.47-2.144 2.204-3.667 2.183-1.523-.02-2.982-.595-4.48-.885-2.804-.542-6.173.223-7.469 2.788-.851 1.686-.591 3.786.275 5.473.867 1.686 2.267 3.027 3.717 4.236 5.07 4.227 11.156 7.285 17.628 8.355 6.47 1.069 12.228.671 17.917-2.59Z" fill="#E0FEE9"/><path d="M55.29 113.843c-1.203-4.499-3.132-9.727-5.84-15.252-2.699-5.533-6.16-11.352-9.987-17.314l-2.851-4.403c-.94-1.443-1.87-2.875-2.867-4.218-1.984-2.697-4.096-5.138-6.173-7.393-2.078-2.256-4.13-4.322-6.065-6.239-1.939-1.914-3.78-3.664-5.525-5.187a68.995 68.995 0 0 0-8.765-6.569 63.712 63.712 0 0 0-3.22-1.917 1.463 1.463 0 0 0-.236-.118c-.004.006.07.057.217.15l.656.41c.578.358 1.43.885 2.509 1.594a73.024 73.024 0 0 1 8.673 6.642c1.73 1.531 3.557 3.288 5.484 5.208 1.924 1.926 3.966 3.995 6.031 6.252 2.066 2.256 4.164 4.693 6.133 7.377.99 1.338 1.911 2.758 2.851 4.205l2.848 4.402c3.825 5.957 7.285 11.757 9.992 17.265 2.716 5.501 4.662 10.697 5.891 15.173" fill="#DADBD8"/><path d="M33.641 72.66c.024-.001.04-.303.047-.85.01-.547-.002-1.338-.031-2.315-.057-1.954-.227-4.65-.426-7.622-.199-2.972-.33-5.663-.357-7.612-.016-.976-.021-1.764-.017-2.31 0-.546-.011-.848-.036-.85-.025 0-.06.299-.103.844-.047.545-.08 1.337-.096 2.314-.039 1.957.053 4.66.253 7.636l.529 7.61.145 2.308c.036.545.067.847.092.846Z" fill="#DADBD8"/><path d="M8.219 72.283c.004.025.36.005 1.003-.051.641-.052 1.57-.133 2.719-.195 2.298-.144 5.48-.232 8.993-.174 3.515.063 6.693.256 8.988.462 1.149.095 2.076.197 2.717.263.642.07.998.095 1.002.07.004-.024-.346-.097-.984-.21a47.445 47.445 0 0 0-2.711-.378c-2.295-.271-5.483-.505-9.008-.57-3.524-.056-6.716.072-9.016.281a41.47 41.47 0 0 0-2.717.312c-.638.099-.99.165-.986.19ZM14.526 93.258c-.001.012.119.04.348.078l1.005.156 3.7.534c3.124.452 7.432 1.126 12.191 1.876 4.76.752 9.079 1.386 12.213 1.773 1.568.195 2.837.34 3.717.421l1.012.088c.232.016.356.018.356.006.002-.012-.118-.039-.347-.079l-1.005-.155-3.7-.534c-3.124-.452-7.433-1.125-12.193-1.877-4.76-.75-9.077-1.385-12.212-1.772a130.597 130.597 0 0 0-3.716-.42l-1.013-.09c-.232-.015-.354-.017-.356-.005Z" fill="#DADBD8"/><path d="M25.624 100.034c.008.003.045-.064.11-.196l.275-.58c.236-.506.559-1.246.946-2.167.775-1.839 1.765-4.414 2.819-7.27 1.055-2.857 2.02-5.438 2.755-7.29l.877-2.193.236-.598c.051-.138.075-.211.067-.215-.007-.003-.044.064-.11.196l-.274.58a65.136 65.136 0 0 0-.946 2.167c-.775 1.84-1.765 4.414-2.82 7.271-1.054 2.856-2.02 5.436-2.754 7.29l-.877 2.192-.236.598c-.051.138-.075.212-.068.215Z" fill="#DADBD8"/><path d="M133.25 44.526v68.596a3.37 3.37 0 0 1-3.371 3.371H28.503a3.371 3.371 0 0 1-3.371-3.371V44.525a3.371 3.371 0 0 1 3.371-3.37h101.375a3.372 3.372 0 0 1 3.372 3.37Z" fill="#DCDCDC"/><path d="M32.528 114.118h90.292V43.53H32.528v70.588Z" fill="#fff"/><path opacity=".2" d="M127.817 75.933a2.89 2.89 0 1 1 0 5.782 2.89 2.89 0 0 1 0-5.782ZM29.44 67.833v21.981a.355.355 0 0 1-.355.355H28.6a.355.355 0 0 1-.355-.355V67.833c0-.197.159-.355.355-.355h.485c.196 0 .354.159.354.355Z" fill="#33535F"/><path d="M59.34 80.795a7.295 7.295 0 1 1-14.587.3 7.295 7.295 0 0 1 14.588-.3Z" fill="#F03D5F"/><mask id="a" style="mask-type:luminance" maskUnits="userSpaceOnUse" x="44" y="73" width="16" height="16"><path d="M52.042 88.24a7.295 7.295 0 1 1 .006-14.59 7.295 7.295 0 0 1-.006 14.59Z" fill="#fff"/></mask><g mask="url(#a)"><path d="M44.751 88.24h14.59V73.65H44.75v14.59Z" fill="#FFBF46"/></g><path d="M49.53 79.107c.277-.022.527.283.56.682.033.399-.164.74-.44.763-.277.023-.528-.282-.56-.68-.033-.4.164-.742.44-.765ZM54.168 79.012c-.277-.011-.515.303-.531.704-.017.4.195.733.472.745.277.011.515-.304.532-.704.016-.4-.195-.734-.473-.745ZM54.964 82.39c0 .086-1.36.155-3.036.155-1.678 0-3.037-.07-3.037-.155 0-.086 1.36-.156 3.037-.156 1.677 0 3.036.07 3.036.156ZM50.088 78.27c-.018.086-.364.083-.77.15-.407.06-.735.169-.779.091-.044-.07.26-.327.731-.4.47-.074.839.078.818.158ZM55.485 78.623c-.055.07-.37-.095-.776-.216-.403-.128-.756-.167-.763-.256-.01-.082.387-.187.855-.042.468.143.74.452.684.514Z" fill="#242A2C"/><path d="M112.414 80.185a7.56 7.56 0 1 1-15.118.311 7.562 7.562 0 0 1 15.118-.311Z" fill="#F03D5F"/><path d="M104.852 87.901a7.562 7.562 0 1 1 .007-15.123 7.562 7.562 0 0 1-.007 15.123Z" fill="#F44337"/><path d="M102.246 78.435c.286-.024.546.292.581.706.033.414-.171.768-.458.792-.286.023-.546-.293-.58-.707-.034-.413.17-.767.457-.791ZM107.053 78.336c-.287-.012-.534.315-.551.73-.017.414.202.76.489.772.288.011.534-.315.551-.73.018-.414-.201-.76-.489-.772ZM107.877 81.838c-.031.04-.344-.182-.885-.46-.539-.27-1.336-.57-2.251-.556-.914.018-1.709.329-2.257.586-.547.266-.873.47-.902.43-.021-.03.26-.298.799-.624.537-.315 1.368-.684 2.355-.703.988-.016 1.834.344 2.364.675.533.339.8.625.777.651ZM102.823 77.566c.026.032-.024.127-.149.237-.125.108-.332.23-.592.277a1.138 1.138 0 0 1-.656-.073c-.154-.072-.225-.153-.208-.19.04-.082.396.036.81-.043.415-.074.738-.28.795-.208ZM108.417 77.933c.013.038-.07.112-.237.165-.164.05-.423.067-.679-.025a1.324 1.324 0 0 1-.556-.371c-.112-.129-.152-.23-.122-.259.066-.067.37.193.779.336.407.149.786.067.815.154Z" fill="#242A2C"/><path d="m90.365 101.327 1.751-.868 1.709.95-.285-1.934 1.432-1.33-1.927-.328-.824-1.773-.906 1.732-1.941.235 1.367 1.398-.376 1.918ZM83.22 101.327l1.752-.868 1.708.95-.284-1.934 1.432-1.33-1.928-.328-.823-1.773-.906 1.732-1.942.235 1.368 1.398-.376 1.918ZM76.074 101.327l1.751-.868 1.709.95-.285-1.934 1.432-1.33-1.927-.328-.823-1.773-.907 1.732-1.941.235 1.367 1.398-.376 1.918ZM68.928 101.327l1.752-.868 1.708.95-.284-1.934 1.432-1.33-1.928-.328-.823-1.773-.907 1.732-1.94.235 1.366 1.398-.376 1.918ZM61.783 101.327l1.752-.868 1.708.95-.285-1.934 1.433-1.33-1.928-.328-.823-1.773-.907 1.732-1.941.235 1.367 1.398-.376 1.918ZM88.997 78.394c.113 5.5-4.253 10.05-9.752 10.163-5.5.113-10.05-4.253-10.164-9.753-.113-5.5 4.253-10.05 9.753-10.163 5.5-.114 10.05 4.253 10.163 9.753Z" fill="#12C245"/><path d="M75.604 76.09c.377-.032.72.385.765.93.045.544-.225 1.011-.602 1.042-.378.032-.72-.385-.765-.93-.045-.545.225-1.012.602-1.043ZM81.936 75.959c-.378-.016-.703.414-.726.96-.022.547.266 1.002.645 1.018.378.015.703-.415.726-.962.022-.545-.267-1.001-.645-1.016ZM83.022 79.228c.016.015-.065.118-.226.292-.154.18-.411.408-.746.672-.349.243-.776.535-1.318.722a4.668 4.668 0 0 1-1.826.286c-.662-.025-1.272-.204-1.795-.414-.529-.204-.964-.469-1.323-.693-.706-.472-1.08-.839-1.059-.865.032-.042.454.263 1.173.677.366.195.8.432 1.312.614.508.186 1.087.348 1.707.37.62.03 1.207-.074 1.716-.245.515-.162.935-.421 1.287-.632.34-.234.613-.43.79-.581.184-.145.293-.218.308-.203ZM76.054 73.849c-.017.087-.494.056-1.06.148-.567.085-1.011.26-1.054.182-.045-.069.376-.393 1.006-.49.63-.1 1.13.08 1.108.16ZM84.073 74.314c-.055.071-.478-.18-1.042-.35-.563-.176-1.053-.205-1.06-.294-.011-.082.524-.198 1.151-.003.628.19 1.006.587.95.647Z" fill="#242A2C"/><path d="M74.89 78.511c.04-.007.103.096.113.284.011.187-.05.453-.216.689-.168.236-.4.38-.579.431-.181.053-.3.027-.305-.012-.015-.086.367-.214.63-.6.276-.374.271-.777.358-.792ZM83.863 79.427c.007.04-.075.1-.23.113a.871.871 0 0 1-.567-.177.868.868 0 0 1-.335-.492c-.032-.153.002-.249.042-.253.087-.007.186.288.478.495.283.22.593.229.612.314Z" fill="#242A2C"/><path d="M91.219 78.511s-.009-.067-.018-.2a277.535 277.535 0 0 1-.063-1.02c-.017-.158-.05-.33-.079-.516l-.095-.603c-.026-.216-.106-.436-.162-.674-.217-.956-.664-2.086-1.37-3.283A12.298 12.298 0 0 0 86.3 68.72l-.533-.397c-.187-.122-.384-.235-.58-.355-.198-.113-.386-.25-.6-.347l-.639-.306-.325-.155-.342-.124-.693-.253c-.235-.077-.481-.127-.725-.194-.246-.055-.488-.142-.745-.168-.509-.072-1.023-.177-1.556-.18-.265-.01-.533-.035-.802-.031l-.814.042c-.137.01-.275.008-.411.027l-.41.063c-.275.045-.553.077-.828.134-.544.148-1.106.258-1.64.482-.553.177-1.072.449-1.605.704-.26.142-.509.305-.766.458-.126.08-.26.15-.38.24l-.362.272c-.5.343-.937.772-1.395 1.185l-.625.689-.158.173-.14.187-.282.377-.283.378-.248.405-.247.407-.124.204-.105.215-.418.868-.333.91a13.126 13.126 0 0 0-.635 3.88c.018 1.334.233 2.646.634 3.88l.333.911.418.868.105.215.124.204.247.408.248.405.283.378.281.377.142.187.157.173.625.688c.458.414.895.844 1.395 1.187l.363.271c.12.09.254.16.38.24.257.153.506.317.766.458.533.256 1.052.528 1.604.705.535.224 1.098.334 1.64.482.276.057.555.089.829.134l.41.063c.136.018.274.017.411.027l.814.042c.27.004.537-.022.803-.031.533-.003 1.047-.108 1.556-.18.257-.026.499-.113.745-.169.243-.066.49-.116.725-.194l.693-.252.342-.125.325-.154.639-.306c.213-.097.402-.235.6-.348.195-.12.392-.232.58-.355l.532-.397a12.303 12.303 0 0 0 3.134-3.495c.705-1.197 1.152-2.326 1.37-3.282.055-.239.135-.459.161-.675l.096-.602c.027-.187.061-.358.078-.517a186.875 186.875 0 0 1 .063-1.02 4 4 0 0 1 .018-.2s.002.068-.002.2l-.022.59-.018.434c-.015.159-.046.332-.072.52l-.088.605c-.024.218-.102.44-.156.68-.21.962-.65 2.101-1.354 3.311a12.333 12.333 0 0 1-3.141 3.539l-.536.402c-.188.125-.387.239-.583.36-.2.115-.39.255-.605.353l-.644.312-.328.157-.345.127-.699.257c-.238.08-.486.13-.732.198-.249.057-.493.145-.752.173-.514.074-1.034.181-1.573.186-.268.01-.538.036-.81.033l-.824-.04c-.138-.01-.278-.01-.416-.027l-.415-.063c-.277-.045-.559-.077-.837-.134-.55-.148-1.12-.26-1.66-.484-.56-.178-1.085-.453-1.625-.711-.263-.143-.516-.308-.776-.462-.128-.082-.264-.15-.385-.243l-.367-.274c-.506-.347-.95-.78-1.414-1.199l-.633-.696-.16-.176-.142-.188-.286-.382-.287-.383-.25-.41-.251-.412-.126-.207-.106-.217-.424-.879-.338-.922a13.278 13.278 0 0 1-.643-3.93 13.26 13.26 0 0 1 .644-3.928l.338-.922.423-.878.107-.217.126-.207.25-.412.251-.41.287-.383.285-.38.143-.19.16-.175.633-.696c.464-.419.907-.852 1.413-1.199l.367-.274c.122-.091.258-.161.385-.242.26-.155.513-.32.776-.462.54-.259 1.066-.533 1.624-.711.542-.225 1.111-.336 1.66-.484.28-.057.56-.09.838-.135l.415-.062c.138-.018.278-.017.415-.026l.824-.04c.272-.005.543.022.81.032.54.004 1.059.111 1.573.186.259.027.503.115.752.173.246.067.495.119.732.198l.7.257.344.127.328.156c.217.105.431.21.644.312.215.098.405.238.605.352.197.123.395.237.583.361l.536.402a12.336 12.336 0 0 1 3.142 3.539c.703 1.21 1.144 2.349 1.354 3.312.054.24.132.461.156.68l.088.605c.026.188.057.36.072.52l.018.434.022.59c.004.132.002.2.002.2Z" fill="#00B84A"/><path d="M122.82 48.035H32.528V43.53h90.292v4.505Z" fill="#DADBD8"/><path d="M35.443 45.658a.61.61 0 1 1-1.22 0 .61.61 0 0 1 1.22 0ZM37.469 45.658a.61.61 0 1 1-1.22 0 .61.61 0 0 1 1.22 0ZM39.495 45.658a.61.61 0 1 1-1.22 0 .61.61 0 0 1 1.22 0Z" fill="#fff"/><path d="M66.948 41.63s-.618-1.397-.733-1.705c-.314-.838-2.334-6.45-1.85-7.3 2.24-3.93 3.976-6.724 8.394-6.724l7.801-.053s7.393-1.505 12.602 15.306l-26.215.476Z" fill="#00B8FD"/><path d="m50.489 43.039 10.214-2.202 12.01-6.317.046-8.62c-1.803-.497-5.25.753-11.458 3.916l-9.222 4.76c-3.158 1.63-3.941 5.797-1.59 8.463Z" fill="#00B8FD"/><path d="M73.478 59.722c-.147-.484-.047-.796.66-.559 1.558.523 2.95.353 3.29.05.341-.302.029-.88-.478-.831-.41.04-1.115-.1-1.642-.228a3.994 3.994 0 0 1-1.224-.517 19.295 19.295 0 0 1-.855-.58s-1.437-1.038-1.887-1.873l-4.93 2.114.794 2.47s.258 1.453 1.668 1.913c1.409.458 3.65.286 3.65.286.41-.27 1.997 2.025 2.477 2.835.473.8 1.052.91 1.238.415.127-.337-1.282-2.85-1.775-3.641-.27-.432-.808-1.269-.986-1.854Z" fill="#ECC08C"/><path d="M70.14 61.973c-.005.018-.123.013-.29-.07a1.248 1.248 0 0 1-.516-.504 1.249 1.249 0 0 1-.16-.702c.018-.187.075-.29.092-.284.044.006-.06.453.204.91.25.465.687.61.67.65ZM71.699 62.033c-.006.018-.117.007-.275-.078a1.238 1.238 0 0 1-.481-.494 1.238 1.238 0 0 1-.151-.673c.015-.178.067-.278.085-.273.044.006-.044.433.203.872.233.446.638.606.619.646Z" fill="#A84333"/><path d="M50.198 42.704s15.65 17.986 15.631 17.69c-.018-.297 7.016-5.556 7.016-5.556L57.5 36.562l-7.302 6.142Z" fill="#00B8FD"/><path d="M59.69 39.17a.575.575 0 0 1 .11.106l.292.325 1.051 1.214c.883 1.03 2.094 2.459 3.425 4.044a544.105 544.105 0 0 1 3.39 4.074l1.015 1.246.27.344c.06.08.09.124.086.127a.547.547 0 0 1-.11-.106l-.292-.325-1.051-1.214c-.883-1.03-2.095-2.46-3.426-4.044a526.178 526.178 0 0 1-3.39-4.074l-1.014-1.247-.27-.344a.566.566 0 0 1-.086-.127ZM87.375 41.242c-.032-.009.172-.429.187-1.152a3.545 3.545 0 0 0-.202-1.236 3.56 3.56 0 0 0-.82-1.287c-.38-.4-.788-.744-1.117-1.106a3.41 3.41 0 0 1-.701-1.093 1.898 1.898 0 0 1-.127-.867c.025-.207.075-.313.081-.31.034-.003-.138.465.148 1.136.137.33.376.692.704 1.036.326.349.736.688 1.125 1.097.393.403.689.879.842 1.347.157.468.199.917.177 1.286-.02.371-.096.664-.164.858-.067.195-.126.294-.133.291Z" fill="#242A2C"/><path d="M66.267 27.402a1.498 1.498 0 0 1 .228-.108c.151-.065.378-.153.677-.247.3-.09.675-.184 1.121-.229.444-.039.967-.03 1.51.141a3.496 3.496 0 0 1 1.545.994c.455.494.766 1.164.928 1.892.157.727.24 1.515.148 2.327-.094.805-.36 1.636-.865 2.345-.507.709-1.19 1.232-1.872 1.66-.685.432-1.375.785-2.029 1.13l-3.475 1.824-2.35 1.217-.642.324a1.508 1.508 0 0 1-.228.104c-.002-.005.072-.05.215-.132l.628-.35 2.326-1.26 3.457-1.854c.651-.347 1.342-.704 2.017-1.132.673-.425 1.337-.937 1.826-1.621.487-.684.747-1.488.84-2.273.092-.788.014-1.565-.136-2.278-.155-.712-.45-1.358-.884-1.837a3.407 3.407 0 0 0-1.482-.975 3.804 3.804 0 0 0-1.47-.159c-.438.035-.81.12-1.111.2-.3.085-.529.163-.683.218a1.54 1.54 0 0 1-.239.079Z" fill="#242A2C"/><path d="M61.411 40.818c-.05.014-.18-1.031-.873-2.086-.678-1.064-1.58-1.61-1.546-1.65.01-.014.244.099.576.356a5.018 5.018 0 0 1 1.754 2.709c.1.408.107.669.089.67Z" fill="#242A2C"/><path d="M84.414 38.865s-.11.046-.333.09a3.334 3.334 0 0 1-.987.042 3.624 3.624 0 0 1-1.483-.487 3.396 3.396 0 0 1-1.37-1.54c-.315-.703-.448-1.597-.188-2.483.134-.44.398-.873.825-1.144.21-.135.484-.207.746-.153.265.048.492.224.65.432.594.87.693 2.05.35 3.114a3.7 3.7 0 0 1-.885 1.449 3.369 3.369 0 0 1-1.521.86c-1.15.305-2.43.03-3.252-.757-.82-.787-1.142-1.949-.976-2.964.077-.512.291-.987.596-1.374.157-.19.35-.356.582-.446a.939.939 0 0 1 .717.008c.442.195.713.63.763 1.06.05.434-.075.844-.237 1.193a5.697 5.697 0 0 1-1.242 1.657 5.9 5.9 0 0 1-1.275.902 5.48 5.48 0 0 1-.911.38c-.108.036-.192.054-.248.07a.357.357 0 0 1-.086.017c0-.003.028-.014.082-.033.054-.02.137-.043.242-.083a6.018 6.018 0 0 0 2.137-1.317 5.67 5.67 0 0 0 1.201-1.639c.155-.34.268-.731.218-1.132-.046-.391-.304-.789-.694-.956a.805.805 0 0 0-.618-.003c-.203.08-.38.23-.526.41-.284.364-.488.819-.56 1.308-.156.971.16 2.087.94 2.831.779.745 2.005 1.01 3.107.718a3.22 3.22 0 0 0 1.452-.82c.394-.391.676-.877.849-1.387.165-.513.227-1.05.172-1.566a3.272 3.272 0 0 0-.16-.75 2.166 2.166 0 0 0-.33-.662c-.145-.191-.34-.34-.565-.382a.884.884 0 0 0-.646.131c-.389.242-.647.653-.774 1.065-.255.85-.134 1.717.166 2.402a3.32 3.32 0 0 0 1.314 1.509 3.615 3.615 0 0 0 1.445.502c.85.093 1.311-.101 1.313-.072Z" fill="#FAFAF9"/><path d="M85.592 21.351a3.54 3.54 0 0 1-.697-1.386c-.042-.167-.07-.344-.019-.507.052-.163.206-.305.377-.29.175.017.294.18.388.33.275.435.54.881.72 1.365.049.133.092.273.084.415-.008.141-.077.287-.203.353-.138.072-.313.032-.44-.06-.126-.09-.214-.223-.3-.353" fill="#A84333"/><path d="m86.342 21.025-.772-1.616c-.076-.16-.154-.326-.16-.503-.005-.177.082-.37.249-.43.144-.055.312.005.427.109.115.103.188.244.258.381l.365.709c.099.193.2.389.24.602.04.213.014.45-.12.62-.136.17-.395.247-.581.137" fill="#A84333"/><path d="M82.913 26.027s-1.074-1.393-1.17-2.128c-.097-.734.803-2.036 2.733-2.33 1.036-.156 1.643-.445 1.983-.679a.622.622 0 0 0 .226-.753c-.253-.615-.71-1.757-.675-1.91.09-.394.346-.386 1.014.59s1.437 1.967 1.288 2.416c-.148.45-2.5 1.842-2.5 1.842l.643 1.037-3.542 1.915Z" fill="#ECC08C"/><path d="M89.294 40.34 81.888 25.83l4.768-2.672 10.018 15.88s.528 1.015 1.267 2.203h-8.398" fill="#00B8FD"/><path d="M86.58 23.16a.386.386 0 0 1-.083.057l-.25.152-.96.559-3.443 1.962.027-.088c.72 1.469 1.656 3.167 2.6 5.013 1.404 2.73 2.62 5.231 3.473 7.053.428.91.766 1.651.996 2.164l.26.594c.058.136.086.209.08.21a1.25 1.25 0 0 1-.109-.197l-.286-.581-1.04-2.142a348.66 348.66 0 0 0-3.512-7.03c-.943-1.843-1.873-3.547-2.582-5.024l-.027-.059.054-.03 3.472-1.913.977-.527.26-.134a.372.372 0 0 1 .093-.04ZM66.946 41.63c-.035.02-.45-.69-.792-1.64-.346-.951-.482-1.762-.442-1.77.044-.01.246.778.588 1.716.338.94.687 1.674.646 1.694ZM83.257 20.24c1.165.459 2.61.063 3.38-.924.77-.988.802-2.486.074-3.505 1.672-.423 2.715-2.352 2.376-4.043-.338-1.692-1.85-3.012-3.535-3.377-.645-.14-1.329-.156-1.956.05-.627.204-1.192.647-1.458 1.251" fill="#242A2C"/><path d="M83.023 16.458c.005.018-.218.057-.571.242a2.52 2.52 0 0 0-1.117 1.203 2.464 2.464 0 0 0 .187 2.353c.123.195.282.374.466.53a2.47 2.47 0 0 0 2.145.53 2.472 2.472 0 0 0 1.89-2.09 2.477 2.477 0 0 0-.852-2.2 2.522 2.522 0 0 0-1.529-.598c-.398-.014-.616.049-.62.03a1.989 1.989 0 0 1 .62-.09 2.52 2.52 0 0 1 1.6.574c.281.233.55.549.722.948a2.593 2.593 0 0 1-1.797 3.577 2.607 2.607 0 0 1-2.766-1.134 2.593 2.593 0 0 1-.406-1.307 2.554 2.554 0 0 1 .24-1.168 2.517 2.517 0 0 1 1.19-1.212 2.007 2.007 0 0 1 .598-.188Z" fill="#F03D5F"/><path d="M84.287 11.858c1.209-.068 2.321-.984 2.62-2.157.298-1.172-.24-2.509-1.27-3.146.498-1.397.01-3.087-1.158-4.002-1.167-.915-2.924-.988-4.162-.171-.947-1.66-2.972-2.63-4.858-2.327-1.886.302-3.507 1.856-3.888 3.728-1.697-.7-3.805-.25-5.066 1.085-1.262 1.334-1.595 3.463-.8 5.119-1.846.16-3.381 1.982-3.224 3.828.157 1.846 1.977 3.384 3.824 3.23-.377 1.225.096 2.665 1.127 3.428 1.03.764 2.545.797 3.608.08.678 1.095 2.017 1.743 3.297 1.596 1.28-.147 2.437-1.082 2.849-2.303" fill="#242A2C"/><path d="M80.775 25.552c.06-1.422.137-2.708.137-2.708s3.176-.4 3.314-3.643c.137-3.243-.186-10.71-.186-10.71l-5.848-2.808-6.29 5.068.986 14.893a3.949 3.949 0 0 0 7.887-.092Z" fill="#ECC08C"/><path d="M83.883 14.045c-.051.055-.354-.2-.79-.217-.434-.023-.758.204-.804.145-.023-.026.03-.126.171-.229a1.048 1.048 0 0 1 1.272.057c.133.116.176.22.151.244ZM79.063 14.045c-.051.055-.354-.2-.79-.217-.434-.023-.758.204-.804.145-.023-.026.03-.126.17-.229.14-.102.375-.198.646-.186.271.013.498.129.627.243.132.116.176.22.151.244ZM80.697 17.315c-.002-.027.27-.066.71-.108.11-.008.216-.027.236-.108.028-.085-.017-.215-.069-.356l-.314-.92c-.437-1.309-.75-2.383-.701-2.4.049-.018.442 1.029.878 2.338l.301.925c.04.137.11.293.05.47a.277.277 0 0 1-.185.166c-.072.02-.134.02-.19.02-.44.008-.715 0-.716-.027Z" fill="#242A2C"/><path d="M80.911 22.844s-2.125.061-4.207-1.377c0 0 .989 2.362 4.152 2.173l.055-.796Z" fill="#E89533"/><path d="M76.399 5.864c-1.037 1.434-1.012 3.547.059 4.956.471.62 1.184 1.125 1.963 1.097.779-.029 1.533-.767 1.368-1.529-.305.953.506 2.084 1.507 2.102 1 .018 1.85-1.083 1.58-2.047.08.346.165.701.364.995.2.294.543.518.895.471.489-.064.773-.589.885-1.07.334-1.435-.195-3.011-1.25-4.041-1.054-1.03-2.58-1.522-4.05-1.421-1.47.1-2.877.762-3.98 1.74" fill="#242A2C"/><path d="M76.81 7.008c.38.926.664 1.909.654 2.91-.01 1-.341 2.025-1.051 2.73-.71.706-1.828 1.03-2.758.662.223.876.142 1.868-.402 2.589-.545.721-1.612 1.066-2.404.632-.717-.393-1.027-1.261-1.125-2.072a6.736 6.736 0 0 1 1.834-5.431 6.737 6.737 0 0 1 5.382-1.974" fill="#242A2C"/><path d="M72.8 14.734c-.433-.267-1.023-.047-1.367.328-.54.589-.634 1.541-.22 2.225.415.683 1.303 1.04 2.075.834" fill="#E89533"/><path d="M72.7 17.15c0 .018-.145.039-.368-.025-.213-.06-.542-.232-.667-.596a.712.712 0 0 1 .287-.836c.2-.132.353-.127.355-.11.007.024-.13.06-.288.197-.158.129-.314.403-.206.7.099.294.365.46.556.542.196.084.333.104.33.127Z" fill="#A84333"/><path d="M79.33 12.691c-.04.126-.514.08-1.078.105-.564.017-1.034.099-1.084-.024-.052-.114.409-.42 1.067-.443.657-.026 1.14.245 1.096.362ZM83.873 12.601c-.05.045-.147.015-.26-.013a1.056 1.056 0 0 0-.396-.025c-.17.016-.356.046-.498.044-.143-.002-.243-.032-.261-.095-.018-.061.046-.142.167-.222.122-.078.3-.166.55-.192.252-.036.524.083.627.219.11.133.117.244.071.284Z" fill="#242A2C"/><path d="M79.942 18.145c.245-.146.551-.214.819-.116.268.098.47.391.407.669a.668.668 0 0 1-.263.373.853.853 0 0 1-.676.166.66.66 0 0 1-.503-.46c-.06-.231.05-.502.264-.608" fill="#E89533"/><path d="M81.534 18.49c.007.018-.104.093-.313.138a1.415 1.415 0 0 1-1.458-.608c-.116-.18-.14-.311-.123-.318.022-.01.082.102.211.252.127.15.334.335.608.45.274.114.55.13.746.115.198-.015.32-.05.329-.028Z" fill="#242A2C"/><path d="M74.952 20.038c-.019.001-.007-.226-.109-.61a2.523 2.523 0 0 0-.924-1.358 2.48 2.48 0 0 0-2.956-.006 2.47 2.47 0 0 0-.994 1.972 2.468 2.468 0 0 0 3.95 1.97c.568-.427.824-.98.924-1.358.102-.385.09-.611.109-.61a2.027 2.027 0 0 1-.05.625c-.085.39-.332.973-.916 1.43-.29.223-.658.414-1.086.493a2.593 2.593 0 0 1-2.578-1.008 2.606 2.606 0 0 1-.508-1.54 2.609 2.609 0 0 1 1.06-2.093c.206-.152.43-.272.661-.35.46-.173.94-.183 1.365-.106.428.08.796.27 1.085.494a2.52 2.52 0 0 1 .917 1.43 2.03 2.03 0 0 1 .05.625Z" fill="#F03D5F"/><path d="M83.87 5.527c.002-.004.029.003.082.02.05.021.126.056.203.13.155.14.33.45.261.852-.063.405-.473.793-1.01.895-.546.114-1.159-.09-1.71-.409l-.603-.348.66.217c.228.075.39.285.447.512a.92.92 0 0 1-.092.698.975.975 0 0 1-.594.42c-.24.064-.498.055-.74-.015-.593-.185-.976-.667-1.27-1.098l-.423-.619.537.521c.307.298.375.741.289 1.104-.083.37-.34.679-.65.822a1.57 1.57 0 0 1-1.66-.203 1.972 1.972 0 0 1-.7-1.232c-.008-.068-.01-.104-.005-.105.013-.002.031.141.125.383.094.237.268.592.639.878.354.287.98.442 1.542.162.279-.135.497-.405.57-.737.074-.326.005-.715-.254-.962l.114-.097c.29.422.662.872 1.19 1.033.426.132.941.02 1.16-.333.212-.344.085-.878-.27-.995l.059-.13c.537.316 1.113.511 1.616.414.5-.085.88-.433.947-.793a.91.91 0 0 0-.207-.8c-.14-.15-.26-.171-.252-.185ZM76.095 10.741c.003.003-.01.022-.038.057a1.294 1.294 0 0 1-.137.145 1.84 1.84 0 0 1-.652.388 1.853 1.853 0 0 1-1.18.02 1.961 1.961 0 0 1-1.16-1.002l.123-.018a1.94 1.94 0 0 1-1.46 1.546c-.794.182-1.752-.24-2.125-1.072-.328-.748-.113-1.63.41-2.134l.101.11c-.356.3-.805.443-1.228.445a2.113 2.113 0 0 1-1.152-.314 1.743 1.743 0 0 1-.69-.81 2.028 2.028 0 0 1-.145-.903c.04-.561.282-.963.48-1.186.203-.226.356-.296.356-.296.01.012-.132.099-.317.328a2.017 2.017 0 0 0-.27 2.012c.122.29.35.558.654.746a1.99 1.99 0 0 0 1.082.282 1.803 1.803 0 0 0 1.132-.417l.101.111c-.476.46-.673 1.283-.371 1.963.335.758 1.226 1.154 1.95.99a1.812 1.812 0 0 0 1.365-1.421l.033-.206.089.188c.232.493.66.818 1.075.958.42.145.823.104 1.124.01.305-.095.517-.241.65-.347.133-.108.194-.179.2-.173ZM70.305 15.934c.003.005-.077.073-.253.15a1.703 1.703 0 0 1-.808.126 1.681 1.681 0 0 1-1.114-.544 1.802 1.802 0 0 1-.439-1.497l.134.06c-.27.355-.643.682-1.097.894-.34.158-.707.24-1.063.227a2.168 2.168 0 0 1-.978-.268c-.583-.31-.909-.89-.93-1.382-.037-.496.14-.88.3-1.095.085-.107.162-.18.218-.223.058-.042.09-.062.092-.057.01.012-.114.098-.26.315-.14.216-.29.586-.24 1.05.035.46.342.982.888 1.266.534.296 1.268.336 1.908.026.427-.2.782-.508 1.043-.844l.188-.245-.055.304a1.683 1.683 0 0 0 .388 1.384c.296.345.697.495 1.027.535.335.04.605-.022.78-.08.176-.06.265-.112.27-.102ZM86.836 9.61c.016-.005.088.198.064.54-.02.335-.167.813-.532 1.197-.368.383-.84.55-1.174.586-.34.039-.545-.024-.542-.04.003-.027.209-.005.525-.069a2.087 2.087 0 0 0 1.078-.584c.336-.353.489-.789.535-1.104.05-.318.02-.523.046-.526ZM88.62 12.666c.008-.003.047.072.074.222.024.147.035.376-.06.64-.092.254-.32.566-.707.649-.188.04-.396.028-.592-.05a.813.813 0 0 1-.464-.452l.146-.05c.023.09.041.188.037.287a1.162 1.162 0 0 1-.732 1.04.973.973 0 0 1-.58.025 1.126 1.126 0 0 1-.44-.242 1.056 1.056 0 0 1-.352-.612c-.026-.168 0-.26.007-.259.015 0 .01.093.052.246.041.15.145.366.365.541.21.176.559.301.897.167a1.03 1.03 0 0 0 .627-.908.866.866 0 0 0-.03-.241l.148-.05c.138.353.57.487.883.421.327-.059.54-.322.636-.551.1-.237.108-.452.1-.595-.007-.145-.026-.225-.015-.228Z" fill="#33535F"/><path d="M79.72 17.003c.02.003.032.067.006.165a.66.66 0 0 1-.217.327.66.66 0 0 1-.362.153c-.101.007-.162-.018-.16-.038 0-.044.224-.065.423-.235.203-.163.266-.38.31-.372Z" fill="#242A2C"/></svg>