<svg id="ehankDmoGMg1" xmlns="http://www.w3.org/2000/svg" xmlns:xlink="http://www.w3.org/1999/xlink" viewBox="0 0 76 95" shape-rendering="geometricPrecision" text-rendering="geometricPrecision">
<style><![CDATA[
#ehankDmoGMg5_to {animation: ehankDmoGMg5_to__to 1700ms linear infinite normal forwards}@keyframes ehankDmoGMg5_to__to { 0% {transform: translate(42.352352px,34.237131px)} 47.058824% {transform: translate(42.352352px,35.237131px)} 70.588235% {transform: translate(42.352352px,34.237131px)} 100% {transform: translate(42.352352px,34.237131px)}} #ehankDmoGMg10_ts {animation: ehankDmoGMg10_ts__ts 1700ms linear infinite normal forwards}@keyframes ehankDmoGMg10_ts__ts { 0% {transform: translate(42.84075px,38.87105px) scale(1,1)} 47.058824% {transform: translate(42.84075px,38.87105px) scale(1,0.359484)} 70.588235% {transform: translate(42.84075px,38.87105px) scale(1,1)} 100% {transform: translate(42.84075px,38.87105px) scale(1,1)}}
]]></style>
<path d="M13,3.99609L53.002,1.19888l9.1712,7.97245l9.1713,7.97247l4.3956,62.8603-57.1457,3.996L13,3.99609Z" fill="#ededed"/><path d="M71.3447,17.144L54.201,18.3428L53.0022,1.19914l9.1713,7.97245L71.3447,17.144Z" fill="#dcdcdc"/><path d="M33.0604,52.3303c2.1661-5.3159,12.409-14.6357,23.6057-3.066" fill="none" stroke="#343d57"/><g id="ehankDmoGMg5_to" transform="translate(42.352352,34.237131)"><g transform="translate(-42.352351,-34.237131)"><path d="M28.9661,36.1916c.6334-.7287,2.1727-2.2051,3.2624-2.2813" fill="none" stroke="#343d57"/><path d="M55.7386,34.091c-.7287-.6334-2.4585-1.8812-3.5482-1.805" fill="none" stroke="#343d57"/></g></g><path d="M14.9733,80.161c-4.5217.5946-8.66982-2.5894-9.26441-7.1111-.59459-4.5216,2.58939-8.6698,7.11111-9.2644s8.6698,2.5894,9.2644,7.1111-2.5894,8.6698-7.1111,9.2644Zm21.0252,6.1747L24.8349,77.7669c1.1647-2.196,1.6922-4.7558,1.3434-7.4086-.8918-6.7816-7.1152-11.5584-13.8967-10.6667s-11.558345,7.1152-10.66659,13.8967s7.11513,11.5584,13.89669,10.6666c2.6528-.3488,4.9892-1.5202,6.8094-3.2131l11.1636,8.5689c.4517.3467,1.0021.4784,1.5261.4094.524-.0689,1.0216-.3384,1.3683-.79.6951-.9056.525-2.1993-.3806-2.8944Z" clip-rule="evenodd" fill="#dcdcdc" fill-rule="evenodd"/><ellipse rx="2" ry="1" transform="translate(14 67)" fill="#fff"/><g id="ehankDmoGMg10_ts" transform="translate(42.84075,38.87105) scale(1,1)"><g transform="translate(-42.840749,-38.871049)"><path d="M36.2573,39.3314c.0701,1.003-.7878,1.8801-1.9162,1.959s-2.1-.6702-2.1702-1.6732.7878-1.8801,1.9162-1.959c1.1284-.079,2.1.6702,2.1702,1.6732Z" fill="#343d57"/><path d="M53.5106,38.125c.0701,1.003-.7878,1.8801-1.9162,1.959s-2.1-.6703-2.1701-1.6733c-.0702-1.003.7877-1.8801,1.9161-1.959s2.1.6702,2.1702,1.6733Z" fill="#343d57"/></g></g></svg>
