<svg id="eE4oWpbrRkv1" xmlns="http://www.w3.org/2000/svg" xmlns:xlink="http://www.w3.org/1999/xlink" viewBox="0 0 283 205" shape-rendering="geometricPrecision" text-rendering="geometricPrecision" width="283" height="205"> <style><![CDATA[ #eE4oWpbrRkv16_ts {animation: eE4oWpbrRkv16_ts__ts 1800ms linear infinite reverse forwards}@keyframes eE4oWpbrRkv16_ts__ts {  0% {transform: translate(134.5px,128.499947px) scale(1,-0.118239)}  75% {transform: translate(134.5px,128.499947px) scale(1,-0.861348)}  45% {transform: translate(134.5px,128.499947px) scale(1,-0.118239)}  100% {transform: translate(134.5px,128.499947px) scale(1,-0.118239)}} ]]></style> <g transform="translate(.000001 0)"><path d="M93.293,153.053l-2.0613-1.19c.2081-1.123.2081-2.274,0-3.397l2.0613-1.19c.2371-.136.3435-.416.2661-.678-.5371-1.722-1.4516-3.28-2.6467-4.577-.1839-.198-.4839-.247-.7162-.111l-2.0613,1.19c-.8661-.745-1.8629-1.321-2.9419-1.698v-2.376c0-.271-.1887-.508-.4548-.566-1.7758-.397-3.5952-.378-5.2839,0-.2661.058-.4548.295-.4548.566v2.381c-1.0742.382-2.071.958-2.9419,1.698l-2.0565-1.19c-.2371-.136-.5322-.092-.7161.111-1.1952,1.292-2.1097,2.85-2.6468,4.577-.0822.262.0291.542.2662.678l2.0612,1.19c-.208,1.123-.208,2.274,0,3.397l-2.0612,1.19c-.2371.136-.3436.416-.2662.678.5371,1.722,1.4516,3.28,2.6468,4.577.1839.198.4839.247.7161.111l2.0613-1.19c.8661.745,1.8629,1.321,2.9419,1.698v2.381c0,.271.1887.508.4549.566c1.7758.397,3.5951.377,5.2838,0c.2662-.058.4549-.295.4549-.566v-2.381c1.0741-.382,2.0709-.958,2.9419-1.698l2.0613,1.19c.2371.136.5322.092.7161-.111c1.1951-1.292,2.1097-2.85,2.6468-4.577.0725-.267-.0339-.547-.271-.683Zm-11.1967.983c-2.1339,0-3.871-1.738-3.871-3.871c0-2.134,1.7371-3.871,3.871-3.871c2.1338,0,3.8709,1.737,3.8709,3.871c0,2.133-1.7371,3.871-3.8709,3.871Z" fill="#ececec"/><path d="M54.5105,101.015l-14.9164,3.494c-1.2024.282-1.9456,1.512-1.6568,2.745l3.2893,14.039c.2885,1.232,1.5005,2.003,2.7029,1.721l14.9163-3.495c1.2024-.282,1.9449-1.51,1.6564-2.742l-3.2893-14.039c-.2888-1.233-1.5-2.005-2.7024-1.723Zm-3.8536,4.407c1.1627-.273,2.332.472,2.6109,1.663s-.4378,2.377-1.6005,2.65c-1.163.272-2.3319-.473-2.6109-1.663-.279-1.191.4374-2.378,1.6005-2.65Zm7.0218,12.193l-13.2486,3.104c-.5816.137-.9416-.234-.8039-.827l1.8964-8.177c.1373-.592.6252-.757,1.0894-.367l4.7732,4.012c.4642.39,1.0914.286,1.4009-.234l.673-1.13c.3092-.519.9234-.608,1.3711-.198l3.0909,2.828c.4472.41.3391.853-.2424.989Z" fill="#ececec"/><path d="M227.408,131.668c-1.04-.842-2.371-1.236-3.702-1.096-1.33.14-2.55.802-3.392,1.842l-1.813,2.24c-.595-.481-1.355-.706-2.115-.626-.761.079-1.458.458-1.939,1.052l-4.08,5.04c-.481.594-.707,1.355-.627,2.115s.459,1.457,1.053,1.938l7.84,6.348c.594.481,1.355.706,2.115.626s1.457-.459,1.938-1.053l4.081-5.04c.481-.594.706-1.354.626-2.115-.08-.76-.459-1.457-1.053-1.938l1.814-2.24c1.753-2.165,1.419-5.34-.746-7.093Zm-2.188,8.426l1.814-2.24c.601-.742.883-1.693.783-2.643-.1-.951-.574-1.822-1.316-2.423-.743-.602-1.694-.883-2.644-.783s-1.822.573-2.423,1.316l-1.813,2.24l5.599,4.533Z" clip-rule="evenodd" fill="#ececec" fill-rule="evenodd"/><path d="M125.914,29.5835L153.73,26.375l13.296,10.5459l5.042,43.7101-39.737,4.5837-6.417-55.6312Z" fill="#ececec"/><path d="M167.026,36.9209L155.105,38.296L153.73,26.375l13.296,10.5459Z" fill="#dcdcdc"/><path d="M149.51,63.0984l-4.122.4754c-.116-1.119-.126-2.0677-.028-2.8461.096-.7904.324-1.5229.683-2.1975.371-.6761.88-1.4045,1.527-2.1854.506-.5941.959-1.1518,1.361-1.6731.401-.5332.706-1.0799.916-1.6399.209-.572.273-1.2066.192-1.9035-.087-.7571-.29-1.3851-.61-1.884s-.748-.8574-1.285-1.0756c-.525-.2195-1.157-.2866-1.896-.2014-.616.0711-1.182.2581-1.696.561-.516.2908-.912.7018-1.188,1.2329-.277.519-.382,1.1765-.315,1.9725l-4.454.5138c-.15-1.517.072-2.8335.668-3.9494.595-1.1159,1.467-2.0018,2.615-2.6578c1.148-.6561,2.467-1.0701,3.958-1.242c1.651-.1905,3.094-.0768,4.328.3409c1.233.4058,2.218,1.0959,2.954,2.0703.748.961,1.206,2.1745,1.375,3.6406.122,1.0575.018,2.0437-.314,2.9587-.333.903-.801,1.7668-1.405,2.5914-.606.8127-1.266,1.6317-1.983,2.4571-.619.6925-1.01,1.4134-1.174,2.1629-.164.7374-.2,1.5635-.107,2.4782Zm-3.842,6.1421c-.075-.6489.09-1.222.494-1.7192.403-.5093.999-.8094,1.788-.9003.788-.091,1.437.0656,1.946.4696.507.3921.798.9125.873,1.5615.074.6489-.09,1.228-.493,1.7372-.405.4972-1.001.7913-1.79.8823-.788.0909-1.436-.0596-1.943-.4516-.509-.4041-.801-.9306-.875-1.5795Z" fill="#dcdcdc"/><path d="M224.151,56.4164l-27.046-7.247-8.512,31.7688l5.84-2.1897l5.486,10.7328l6.939-8.8347l3.139,4.4362l4.168-3.6112l3.329,6.5137l7.112-7.6356l4.057,5.5908l3.973-14.8272-8.485-14.6969Zm3.939,31.6643l-3.704-4.4872-7.422,7.9678-3.463-6.7754-3.921,3.3967-2.868-4.055-7.202,9.1678-6.061-11.8588-5.43,1.6418-5.408,20.1826l38.637,10.353l6.842-25.5333Z" clip-rule="evenodd" fill="#ececec" fill-rule="evenodd"/><path d="M232.636,71.1133l-11.591-3.1058l3.106-11.5911l8.485,14.6969Z" fill="#dcdcdc"/><ellipse rx="101" ry="11.5" transform="translate(141.611 167.669)" fill="#eef3f4"/><path d="M103.611,66.1694h37l6,45.9996h-52.4997l9.4997-45.9996Z" fill="#f5b401"/><path d="M139.611,76.1694h76l-16,91.9996h-60v-91.9996Z" fill="#f5b401"/><path d="M69.6113,79.1694h112.9997l16,88.9996h-112.9997l-16-88.9996Z" transform="matrix(1.014862 0 0 1.000001-1.99316-.000124)" fill="#ffc802"/><path d="M126.611,141.169c1.5-4,6.5-9.6,14.5,0" fill="none" stroke="#343d57"/></g><g id="eE4oWpbrRkv16_ts" transform="translate(134.5,128.499947) scale(1,-0.118239)"><g transform="translate(-134.5,-128.499946)"><path d="M120,128.5c0,.276-2.015.5-4.5.5s-4.5-.224-4.5-.5s2.015-.5,4.5-.5s4.5.224,4.5.5Z" transform="matrix(1 0 0 9.008922 0-1029.146477)" fill="#343d57"/><path d="M158,128.5c0,.276-2.015.5-4.5.5s-4.5-.224-4.5-.5s2.015-.5,4.5-.5s4.5.224,4.5.5Z" transform="matrix(1 0 0 9.008922 0-1029.146477)" fill="#343d57"/></g></g></svg>