<svg width="1153" height="635" fill="none" xmlns="http://www.w3.org/2000/svg"><path d="M487.115 550.118C394.371 551.257 38.577 622.315 0 635h1153l-278-55.918c-44.441-8.719-234.124-30.893-387.885-28.964Z" fill="#C1E4C4"/><path d="M648.379 79.516a14.684 14.684 0 0 0-12.481-2.176.77.77 0 0 1-.975-.701 14.308 14.308 0 0 0-2.732-7.742 14.278 14.278 0 0 0-13.059-5.769c-.057.005-.114.012-.172.019a.767.767 0 0 1-.854-.828c.116-1.364.128-2.747.028-4.14a26.683 26.683 0 0 0-14.916-22.135 26.662 26.662 0 0 0-26.624 1.85 26.72 26.72 0 0 0-9.227 10.745.765.765 0 0 1-1.196.252 13.232 13.232 0 0 0-1.087-.847 14.682 14.682 0 0 0-23.086 13.559.772.772 0 0 1-.252.654.774.774 0 0 1-.679.177 22.171 22.171 0 0 0-25.132 12.787 22.176 22.176 0 0 0 2.493 22.043 22.19 22.19 0 0 0 17.839 9h103.581c2.086 0 4.18-.445 6.138-1.343a14.72 14.72 0 0 0 8.532-12.016 14.74 14.74 0 0 0-6.139-13.389Z" fill="#F0F4FA"/><path d="m400.218 591.332.119.001a4.667 4.667 0 0 0 4.663-4.549L419.667.116c.001-.04-.01-.076-.01-.116h-9.324l-14.664 586.55a4.667 4.667 0 0 0 4.549 4.782Z" fill="#B96333"/><path d="M536.748 22H409.252a4.666 4.666 0 0 0 0 9.334h127.496a4.667 4.667 0 1 0 0-9.334ZM537.579 75.333H408.425a4.666 4.666 0 1 0 0 9.334h129.154a4.667 4.667 0 1 0 0-9.334ZM538.408 128.667H407.592a4.666 4.666 0 1 0 0 9.333h130.816a4.666 4.666 0 1 0 0-9.333ZM541.208 182H404.737a4.666 4.666 0 1 0 0 9.333h136.471a4.666 4.666 0 1 0 0-9.333ZM541.208 235.333H404.737a4.667 4.667 0 0 0 0 9.334h136.471a4.667 4.667 0 0 0 0-9.334ZM543.342 288.667H402.385a4.666 4.666 0 1 0 0 9.333h140.957a4.666 4.666 0 0 0 0-9.333ZM543.385 342H401.319a4.666 4.666 0 1 0 0 9.333h142.066a4.667 4.667 0 1 0 0-9.333ZM545.668 395.333H400.335a4.667 4.667 0 0 0 0 9.334h145.333a4.668 4.668 0 0 0 0-9.334ZM498.033 508.181c-.08-.05-.177-.122-.296-.197-7.637-4.88-94.206-60.18-94.206-60.18a4.667 4.667 0 0 0-5.025 7.864 17254594.06 17254594.06 0 0 0 87.435 55.854c-.205.358.494.449 1.078.695.194.083.374.183.506.315.81 2.135 2.143-.532 3.776-.494 2.367 1.295 3.7 2.629 6.231-.695.205-.162.405-.322.589-.483.922-.808 1.427-1.644-.088-2.679ZM544.35 500.171s-91.903 52.128-94.688 53.706l-.064.038c.034 1.042.05 1.897.024 2.825a3.1 3.1 0 0 0 .046.61c-.002 2.65 1.331-.017 2.516 1.798.148.852 1.482 2.185 2.587 2.56.124-.069.269-.155.433-.263 2.462-2.778 5.128-4.112 8.578-4.848l.69-.392c24.527-13.91 84.482-47.917 84.482-47.917a4.667 4.667 0 0 0 1.757-6.361 4.663 4.663 0 0 0-6.361-1.756ZM452.859 513.284l-53.358-11.186a4.668 4.668 0 0 0-1.915 9.137s35.317 7.404 48.485 10.163c.232.049.456.095.682.133 1.581-.198 2.914-.198 3.038-1.734l.012.007c1.198 1.529 2.531-1.137 3.475-1.666.017-.188.065-.39.127-.573.181-.55.545-1.03 1.238-1.372a5.75 5.75 0 0 1 .302-.716c.116-.237.256-.485.425-.745a4.536 4.536 0 0 0-.519-.499 4.664 4.664 0 0 0-1.992-.949ZM548.908 555.376l-54.296 7.388-.425.057c.814 2.512-.519 5.179-2.152 6.815-.018.18-.064.369-.147.564a2.863 2.863 0 0 1-.363.608 3.499 3.499 0 0 1-.066.525c-.04.181-.099.364-.178.556.2.1.408.179.62.243a4.64 4.64 0 0 0 1.967.152l56.299-7.66a4.667 4.667 0 0 0-1.259-9.248ZM494.749 585.207l-95.356-32.695a4.667 4.667 0 1 0-3.028 8.828l87.173 29.889c.231.079.568.093.804.154 3.135-3.706 4.629 1.261 6.864 1.994.203.067.412.097.629.085.496-1.462 3.163-2.796 1.188-3.873l-.001-.005c1.976-1.584 3.309 1.082 3.539-.979.082-.092.33-.317.541-.433.093-.194.199-.388.307-.56a3.282 3.282 0 0 0-.344-.659 4.638 4.638 0 0 0-2.316-1.746Z" fill="#B96333"/><path d="M541 586.784a4.667 4.667 0 0 0 4.664 4.549l.117-.001a4.666 4.666 0 0 0 4.551-4.661l-.001-.121L535.667 0h-9.335l.001.116L541 586.784Z" fill="#B96333"/><path d="M751.509 45.67a.555.555 0 0 1-.586-.617 16.53 16.53 0 0 0-5.866-14.558 16.562 16.562 0 0 0-25.828 6.247.56.56 0 0 1-.394.325.55.55 0 0 1-.49-.131 14.007 14.007 0 0 0-19.031.196 13.996 13.996 0 0 0-4.377 10.568.556.556 0 0 1-.874.47 11.817 11.817 0 0 0-7.818-2.091 11.83 11.83 0 0 0-9.674 6.793 11.811 11.811 0 0 0 1.048 11.776 11.814 11.814 0 0 0 9.668 5.03h64.935a12.026 12.026 0 0 0 11.283-7.881 12.007 12.007 0 0 0-2.059-11.833 12.01 12.01 0 0 0-9.937-4.295Z" fill="#F0F4FA"/><path d="M417.696 141.243a34.007 34.007 0 0 0-21.009 2.583 1.562 1.562 0 0 1-1.334-.008 1.54 1.54 0 0 1-.838-1.034c-3.225-13.522-12.325-25.116-25.06-31.465-13.414-6.687-29.106-6.637-42.375-.147a1.548 1.548 0 0 1-1.37 0 1.542 1.542 0 0 1-.836-1.081c-2.028-10.066-8.923-18.57-18.514-22.619a31.503 31.503 0 0 0-31.106 3.81 31.08 31.08 0 0 0-12.458 24.721 1.54 1.54 0 0 1-.57 1.189 1.558 1.558 0 0 1-1.286.317 25.467 25.467 0 0 0-21.785 5.824 25.268 25.268 0 0 0-8.59 20.172 1.543 1.543 0 0 1-1.176 1.57 32.046 32.046 0 0 0-15.509 8.955 31.81 31.81 0 0 0-7.583 31.034c3.226 10.935 12.08 19.343 23.229 22.041 2.512.602 5.055.895 7.568.895h174.027c9.661 0 18.996-4.119 25.494-11.507a33.545 33.545 0 0 0 6.573-33.054c-3.907-11.399-13.615-19.852-25.492-22.196Z" fill="#C9D8ED"/><path d="M552.28 460.316c-3.429-5.305-6.39-9.888-7.934-12.435a4.668 4.668 0 0 0-7.982 4.842c1.615 2.66 4.61 7.294 8.078 12.66 4.372 6.764 9.652 14.934 14.248 22.36.066.109.156.221.258.329 1.387-1.405 1.387 2.595 3.267.095 2.12-.167 2.12 3.833 4.383 2.592.148-.022.276-.039.385-.044a34.9 34.9 0 0 1 2.423-.03c.077-.14.137-.287.165-.402a4.662 4.662 0 0 0-.541-3.532c-5.132-8.46-11.574-18.427-16.75-26.435Z" fill="#B96333"/></svg>