<svg width="284" height="205" fill="none" xmlns="http://www.w3.org/2000/svg"><path d="M208.159 157.751c0 7.904-30.601 14.312-68.349 14.312-37.748 0-68.35-6.408-68.35-14.312 0-7.905 30.602-14.313 68.35-14.313 37.748 0 68.349 6.408 68.349 14.313Z" fill="#F0F0F0"/><path d="M203.134 160.996c0 6.112-28.441 11.067-63.526 11.067-35.084 0-63.526-4.955-63.526-11.067s28.442-11.066 63.526-11.066c35.085 0 63.526 4.954 63.526 11.066Z" fill="#BDC0C2"/><path d="m182.766 84.205 1.769-6.488h-14.45c4.719-15.334 7.963-24.935 9.732-28.801 3.473-7.406 7.405-12.845 11.796-16.318 3.277-2.622 6.979-3.932 11.108-3.932 1.638 0 2.883.327 3.735.983.59.458.885 1.146.885 2.064 0 .524-.426 1.573-1.278 3.146-.852 1.507-1.278 2.785-1.278 3.833 0 1.639.623 3.048 1.868 4.227 1.31 1.18 2.982 1.77 5.013 1.77 2.359 0 4.292-.787 5.8-2.36 1.507-1.572 2.261-3.506 2.261-5.8 0-2.948-1.508-5.668-4.522-8.158-3.015-2.556-7.012-3.834-11.993-3.834-4.718 0-9.764 1.475-15.138 4.424-5.308 2.883-10.387 7.241-15.236 13.074-3.539 4.325-7.242 10.42-11.108 18.283-2.884 5.833-5.243 9.83-7.078 11.993-1.769 2.097-3.735 3.539-5.898 4.325-2.162.72-5.963 1.081-11.403 1.081l-1.376 6.488h17.104l-17.104 66.549c-3.997 15.4-4.377 18.413-5.295 21.166l2.838.07 2.996.052h6.203c4.85-10.354 10.1-25.941 14.884-44.88l10.813-42.957h14.352Z" fill="#D9D9D9"/><path d="m105.298 134.787-18.01 9.233.402 6.061c.146 2.014.496 3.56 1.048 4.638.733 1.429 1.849 2.186 3.349 2.272.882.054 2.703-.5 5.463-1.661l.713 1.391-16.957 8.693-.713-1.392c1.688-1.213 2.807-2.736 3.355-4.568.536-1.858.673-5.172.41-9.944l-2.62-50.03.715-.365 39.819 32.383c3.784 3.061 6.504 4.816 8.159 5.266 1.251.34 2.685.174 4.303-.497l.713 1.391-24.664 12.644-.713-1.391 1.015-.52c1.98-1.015 3.23-2.004 3.749-2.967.346-.684.326-1.402-.059-2.153a5.144 5.144 0 0 0-.939-1.276c-.166-.2-1.023-.947-2.573-2.242l-5.965-4.966Zm-2.704-2.127-16.596-13.665 1.18 21.568 15.416-7.903Z" fill="#DCDCDC"/><path d="M191.613 135.995v-34.679h4.865v40.171h-4.446l-.419-5.492Zm-19.039-8.343v-.549c0-2.162.262-4.124.785-5.885.54-1.778 1.299-3.304 2.275-4.576.994-1.273 2.171-2.249 3.531-2.929 1.377-.698 2.911-1.046 4.602-1.046 1.779 0 3.331.313 4.656.941a8.951 8.951 0 0 1 3.399 2.694c.942 1.168 1.683 2.58 2.223 4.236.541 1.657.916 3.531 1.125 5.623v2.406c-.192 2.075-.567 3.941-1.125 5.597-.54 1.656-1.281 3.068-2.223 4.237a9.298 9.298 0 0 1-3.399 2.693c-1.343.61-2.912.916-4.708.916-1.656 0-3.173-.358-4.55-1.073-1.36-.714-2.537-1.717-3.531-3.007-.976-1.29-1.735-2.807-2.275-4.551-.523-1.761-.785-3.67-.785-5.727Zm4.865-.549v.549c0 1.412.139 2.737.418 3.975.296 1.238.75 2.328 1.36 3.269a6.739 6.739 0 0 0 2.328 2.223c.941.523 2.066.785 3.373.785 1.604 0 2.921-.34 3.949-1.02a7.61 7.61 0 0 0 2.511-2.694 15.563 15.563 0 0 0 1.464-3.635v-6.303a13.944 13.944 0 0 0-.915-2.772 8.528 8.528 0 0 0-1.517-2.406 6.544 6.544 0 0 0-2.275-1.7c-.889-.418-1.944-.628-3.165-.628-1.325 0-2.467.279-3.425.837a6.672 6.672 0 0 0-2.328 2.249c-.61.942-1.064 2.04-1.36 3.296a18.04 18.04 0 0 0-.418 3.975Z" fill="#DADADA"/></svg>