<svg width="324" height="74" viewBox="0 0 324 74" fill="none" xmlns="http://www.w3.org/2000/svg">
<rect x="109.347" y="52.231" width="105.307" height="21.7692" rx="2.23812" fill="#E4E2ED"/>
<rect opacity="0.7" x="193.947" y="60.3633" width="14" height="5.25" rx="2.625" fill="#FBFCFD"/>
<path d="M204.447 66.4883C206.38 66.4883 207.947 64.9213 207.947 62.9883C207.947 61.0553 206.38 59.4883 204.447 59.4883C202.514 59.4883 200.947 61.0553 200.947 62.9883C200.947 64.9213 202.514 66.4883 204.447 66.4883Z" fill="white"/>
<rect opacity="0.5" x="117.029" y="60.105" width="31.6374" height="6.48445" rx="2" fill="white"/>
<rect y="52.2305" width="105.307" height="21.7692" rx="2.23812" fill="#E4E2ED"/>
<rect opacity="0.7" x="84.6006" y="60.3628" width="14" height="5.25" rx="2.625" fill="#FBFCFD"/>
<path d="M95.1006 66.4878C97.0336 66.4878 98.6006 64.9208 98.6006 62.9878C98.6006 61.0548 97.0336 59.4878 95.1006 59.4878C93.1676 59.4878 91.6006 61.0548 91.6006 62.9878C91.6006 64.9208 93.1676 66.4878 95.1006 66.4878Z" fill="white"/>
<rect opacity="0.5" x="7.68262" y="60.1045" width="31.6374" height="6.48445" rx="2" fill="white"/>
<rect x="191.841" y="26.3623" width="105.307" height="21.7692" rx="2.23812" fill="#E4E2ED"/>
<rect opacity="0.7" x="276.441" y="34.4946" width="14" height="5.25" rx="2.625" fill="#FBFCFD"/>
<path d="M286.941 40.6196C288.874 40.6196 290.441 39.0526 290.441 37.1196C290.441 35.1866 288.874 33.6196 286.941 33.6196C285.008 33.6196 283.441 35.1866 283.441 37.1196C283.441 39.0526 285.008 40.6196 286.941 40.6196Z" fill="white"/>
<rect opacity="0.5" x="199.523" y="34.2363" width="31.6374" height="6.48445" rx="2" fill="white"/>
<rect x="218.692" y="52.231" width="105.307" height="21.7692" rx="2.23812" fill="#E4E2ED"/>
<rect opacity="0.7" x="303.293" y="60.3633" width="14" height="5.25" rx="2.625" fill="#FBFCFD"/>
<path d="M313.793 66.4883C315.726 66.4883 317.293 64.9213 317.293 62.9883C317.293 61.0553 315.726 59.4883 313.793 59.4883C311.86 59.4883 310.293 61.0553 310.293 62.9883C310.293 64.9213 311.86 66.4883 313.793 66.4883Z" fill="white"/>
<rect opacity="0.5" x="226.375" y="60.105" width="31.6374" height="6.48445" rx="2" fill="white"/>
<rect width="105.621" height="21.468" rx="2.23812" transform="matrix(0.968735 -0.248195 0.23319 0.972454 85.8164 29.3853)" fill="#C4B9FA"/>
<rect opacity="0.7" width="14" height="5.25" rx="2.625" transform="matrix(0.968536 -0.24901 0.232443 0.972642 169.839 16.2222)" fill="#FBFCFD"/>
<path d="M181.432 19.5649C183.304 19.0836 184.458 17.1692 184.008 15.2891C183.559 13.409 181.677 12.2751 179.805 12.7564C177.933 13.2377 176.779 15.1521 177.229 17.0322C177.678 18.9123 179.56 20.0462 181.432 19.5649Z" fill="white"/>
<rect opacity="0.5" width="31.7313" height="6.39445" rx="2" transform="matrix(0.968737 -0.248186 0.233199 0.972452 95.1094 34.9521)" fill="white"/>
<path d="M96.0696 23.3833L90.8032 29.7304L93.7918 37.4547C93.9492 37.8583 93.9861 38.3011 93.8978 38.7277C93.8096 39.1544 93.6001 39.5459 93.2956 39.8533C92.9912 40.1608 92.6052 40.3705 92.1859 40.4563C91.7667 40.5422 91.3328 40.5003 90.9385 40.3359L83.4548 37.1901L77.2287 42.5203C76.8995 42.8 76.4974 42.9751 76.0727 43.0237C75.648 43.0724 75.2195 42.9924 74.8409 42.7938C74.4622 42.5952 74.1501 42.2867 73.9437 41.9071C73.7373 41.5274 73.6456 41.0933 73.6802 40.6591L74.318 32.3655L67.4711 27.94C67.1095 27.7096 66.8234 27.3751 66.6487 26.9783C66.474 26.5815 66.4184 26.1401 66.489 25.7095C66.5595 25.2789 66.7531 24.8783 67.0453 24.5578C67.3376 24.2373 67.7155 24.0113 68.1318 23.908L76.012 21.9317L78.0186 13.865C78.1231 13.4418 78.3478 13.0588 78.6646 12.7641C78.9813 12.4694 79.3758 12.2762 79.7984 12.2089C80.221 12.1415 80.6528 12.2031 81.0395 12.3857C81.4261 12.5683 81.7504 12.8639 81.9713 13.2352L86.2067 20.3074L94.2907 19.74C94.7175 19.7089 95.143 19.807 95.5137 20.0218C95.8844 20.2367 96.1839 20.5588 96.3746 20.9478C96.5653 21.3367 96.6387 21.7753 96.5857 22.2083C96.5326 22.6414 96.3554 23.0498 96.0763 23.3822L96.0696 23.3833Z" fill="#F2B300"/>
<path d="M97.9514 21.7383L92.6851 28.0854L95.6736 35.8097C95.831 36.2133 95.8679 36.6561 95.7797 37.0827C95.6914 37.5093 95.4819 37.9008 95.1775 38.2083C94.873 38.5157 94.487 38.7255 94.0678 38.8113C93.6485 38.8972 93.2146 38.8552 92.8203 38.6908L85.3366 35.5451L79.1105 40.8753C78.7813 41.155 78.3792 41.3301 77.9545 41.3787C77.5298 41.4273 77.1014 41.3474 76.7227 41.1487C76.344 40.9501 76.032 40.6417 75.8255 40.2621C75.6191 39.8824 75.5274 39.4483 75.562 39.0141L76.1998 30.7204L69.3529 26.295C68.9913 26.0646 68.7053 25.7301 68.5305 25.3333C68.3558 24.9365 68.3003 24.4951 68.3708 24.0645C68.4414 23.6339 68.6349 23.2332 68.9272 22.9128C69.2194 22.5923 69.5974 22.3662 70.0136 22.263L77.8938 20.2867L79.9004 12.22C80.0049 11.7968 80.2297 11.4138 80.5464 11.1191C80.8631 10.8244 81.2576 10.6312 81.6802 10.5639C82.1028 10.4965 82.5346 10.558 82.9213 10.7407C83.308 10.9233 83.6322 11.2189 83.8532 11.5902L88.0886 18.6624L96.1725 18.095C96.5994 18.0639 97.0248 18.162 97.3955 18.3768C97.7663 18.5917 98.0658 18.9138 98.2565 19.3027C98.4472 19.6917 98.5206 20.1302 98.4675 20.5633C98.4144 20.9964 98.2373 21.4048 97.9582 21.7372L97.9514 21.7383Z" fill="#FFC92F"/>
</svg>
