<svg width="298" height="345" fill="none" xmlns="http://www.w3.org/2000/svg"><path d="M260.141 30.253a4.229 4.229 0 0 1-3.501-4.878 4.229 4.229 0 0 1 4.904-3.51c2.343.395 3.872 2.53 3.491 4.88-.382 2.357-2.527 3.895-4.894 3.508Zm10.054-.072c-.602-.547-1.206-1.09-1.816-1.63-.14-.123-.192-.231-.132-.426.17-.556.256-1.13.276-1.71.005-.184.077-.275.237-.352.672-.326 1.337-.665 2.004-1 .368-.186.485-.44.343-.816-.482-1.271-.97-2.54-1.462-3.805-.137-.349-.322-.431-.685-.335-.784.209-1.572.414-2.353.633-.17.047-.291.033-.419-.092-.413-.408-.864-.77-1.337-1.107-.11-.079-.168-.166-.158-.305.06-.822.098-1.646.186-2.466.034-.31-.084-.453-.344-.497a277.625 277.625 0 0 0-4.062-.652c-.361-.055-.541.103-.63.446-.187.733-.386 1.463-.566 2.2-.045.185-.126.282-.32.323a5.18 5.18 0 0 0-1.549.602c-.169.099-.289.097-.451-.014-.626-.425-1.26-.838-1.894-1.249-.408-.265-.706-.214-1.018.164-.821.997-1.64 1.997-2.457 2.995-.295.36-.288.526.044.86.533.538 1.065 1.078 1.611 1.604.145.141.189.272.154.47-.094.549-.22 1.095-.229 1.654-.004.2-.061.293-.235.379-.692.333-1.378.68-2.062 1.03-.323.164-.435.41-.308.748.486 1.292.984 2.582 1.486 3.866.131.334.323.407.666.315.784-.209 1.57-.414 2.353-.632.163-.044.289-.049.423.083.41.41.866.768 1.334 1.11.116.086.174.173.162.331-.059.745-.102 1.49-.155 2.234-.035.496.088.663.588.745.627.105 1.253.206 1.881.306.672.107 1.343.223 2.015.322.423.063.601-.064.705-.47.191-.733.387-1.465.567-2.2.04-.163.111-.242.276-.278a5.202 5.202 0 0 0 1.581-.61c.19-.111.318-.078.483.033.625.422 1.26.836 1.896 1.248.363.236.675.195.941-.13a939.31 939.31 0 0 0 2.5-3.048c.307-.377.292-.547-.07-.877Z" fill="#EE8F41"/><path d="M111.361 10.477c-.649 1.294-.881 2.56-.59 3.554.424 1.45 1.34 1.763 2.064 1.57.812-.216 1.476-1.083 1.128-2.53-.246-1.026-1.215-1.99-2.602-2.594Zm20.904 4.472c-1.746.15-3.372.873-4.493 2.046-1.048 1.1-1.331 2.243-.72 2.918.568.627 1.849.777 3.313-.37 1.087-.85 1.771-2.6 1.9-4.594Zm7.354 10.861c-1.595.334-3.12 1.07-4.203 1.936-.985.79-1.349 1.716-.927 2.362.247.375.779.638 1.516.246 1.271-.673 2.75-2.401 3.614-4.544Zm7.88 21.239-2.826-1.795c.05-.077 4.912-7.877 2.975-14.236-.845-2.77-2.311-4.497-4.353-5.128l-.149-.044c-1.016 3.396-3.293 6.257-5.573 7.466-2.14 1.133-4.616.56-5.882-1.367-1.14-1.739-1.116-4.612 1.634-6.812 1.762-1.41 4.334-2.579 7.027-2.823a7.52 7.52 0 0 0-.783-3.49c-.816-1.63-2.224-2.84-3.976-3.455-.228 2.87-1.357 5.399-3.164 6.815-3.01 2.355-6.232 1.773-7.857-.02-1.492-1.645-1.884-4.686.779-7.475 1.704-1.786 4.061-2.86 6.609-3.076-.525-2.085-2.081-5.728-6.652-7.19-4.744-1.52-9.189.63-11.769 3.146-.058.055-.114.11-.168.165 2.016 1.061 3.398 2.688 3.848 4.559.828 3.463-1.146 5.914-3.524 6.546-2.302.614-5.158-.514-6.136-3.865-.456-1.557-.298-3.32.396-5.08a6.237 6.237 0 0 0-2.842.875c-4.174 2.524-3.644 6.528-3.638 6.568l-3.312.481c-.036-.253-.835-6.253 5.217-9.915 1.891-1.142 4.221-1.578 6.5-1.273.397-.5.837-.988 1.321-1.457 3.278-3.198 8.971-5.91 15.127-3.939 4.783 1.53 8.176 5.46 9.082 10.512l.018.101c3.152.7 5.727 2.663 7.135 5.48.848 1.695 1.177 3.473 1.128 5.207.198.047.396.1.592.163 2.178.673 5.086 2.496 6.566 7.35 2.39 7.84-3.114 16.635-3.35 17.006Z" fill="#FFC624"/><path d="M129.235 169.969c-27.029-6.212-52.594 11.354-65.9 33.299-1.867 3.078 3.283 5.891 5.144 2.822 11.934-19.677 34.768-36.373 59.273-30.743 3.494.804 4.986-4.573 1.483-5.378Z" fill="#B0D1FF"/><path d="m77.183 214.714-8.715-.012c.006-3.998-2.736-7.239-6.124-7.244-3.388-.006-6.14 3.226-6.147 7.225l-8.714-.014c.014-9.672 6.676-17.5 14.877-17.486 8.2.012 14.838 7.86 14.823 17.531Z" fill="#36F"/><path d="M164.438 173.277c27.031 6.211 52.696-12.437 66.003-34.381 1.867-3.079-2.955-5.885-4.817-2.816-11.932 19.679-35.196 37.448-59.702 31.817-3.493-.802-4.986 4.575-1.484 5.38Z" fill="#B0D1FF"/><path d="m221.021 120.683 7.43 4.555c-2.089 3.408-1.438 7.604 1.45 9.373 2.886 1.771 6.922.448 9.012-2.961l7.429 4.555c-5.055 8.246-14.82 11.453-21.811 7.168-6.992-4.287-8.565-14.443-3.51-22.69Z" fill="#36F"/><path d="M152.539 161.594h-15.062v-17.852h15.062v17.852Z" fill="#fff"/><path d="M167.319 64.526c0 11.503-9.326 20.827-20.827 20.827-11.503 0-20.828-9.324-20.828-20.827 0-11.502 9.325-20.826 20.828-20.826 11.501 0 20.827 9.324 20.827 20.826ZM87.397 122.358h-6.969c-4.117 0-7.487-3.369-7.487-7.486V86.704c0-4.119 3.37-7.487 7.487-7.487h6.97c4.118 0 7.486 3.368 7.486 7.487v28.168c0 4.117-3.368 7.486-7.487 7.486ZM212.55 122.358h-6.97c-4.117 0-7.486-3.369-7.486-7.486V86.704c0-4.119 3.369-7.487 7.486-7.487h6.97c4.117 0 7.486 3.368 7.486 7.487v28.168c0 4.117-3.369 7.486-7.486 7.486Z" fill="#FFC624"/><path d="M86.293 127.285c-1.394-15.899-2.928-57.18-2.185-63.503.496-4.21 1.065-10.785 18.792-10.785h92.408c9.669 0 13.76 2.604 13.76 21.199 0 18.596-1.487 47.976-1.487 53.926 0 5.951 0 8.554-14.876 8.554H96.381c-11.529 0-9.72-5.187-10.088-9.391Z" fill="#B0D1FF"/><path d="M82.21 133.98s29.62-7.69 61.12-9.2c38.316-1.836 70.014 0 70.014 0s-1.148 12.397-2.296 16.234c-1.148 3.838-8.321 7.675-28.406 7.675H95.984c-6.313 0-9.756-1.565-11.765-6.789-2.008-5.224-2.008-7.92-2.008-7.92ZM130.314 102.74c0 10.834-8.783 19.618-19.617 19.618-10.835 0-19.619-8.784-19.619-19.618 0-10.835 8.784-19.618 19.619-19.618 10.834 0 19.617 8.783 19.617 19.618Z" fill="#3E64DE"/><path d="M126.076 102.515c0 8.494-6.886 15.38-15.38 15.38s-15.38-6.886-15.38-15.38 6.886-15.38 15.38-15.38 15.38 6.886 15.38 15.38Z" fill="#fff"/><path d="M202.745 96.976c0 13.093-10.614 23.708-23.708 23.708-13.094 0-23.709-10.615-23.709-23.708 0-13.094 10.615-23.708 23.709-23.708s23.708 10.614 23.708 23.708Z" fill="#3E64DE"/><path d="M198.095 97.034c0 10.266-8.322 18.587-18.586 18.587-10.266 0-18.587-8.321-18.587-18.587 0-10.265 8.321-18.586 18.587-18.586 10.264 0 18.586 8.321 18.586 18.586Z" fill="#fff"/><path d="M112.312 100.788h-2.302a2.482 2.482 0 0 1-2.475-2.475v-4.721a2.482 2.482 0 0 1 2.475-2.475h2.302a2.482 2.482 0 0 1 2.475 2.475v4.72a2.482 2.482 0 0 1-2.475 2.476ZM180.187 110.457h-2.304a2.48 2.48 0 0 1-2.473-2.475v-4.721a2.48 2.48 0 0 1 2.473-2.473h2.304a2.482 2.482 0 0 1 2.475 2.473v4.721a2.483 2.483 0 0 1-2.475 2.475Z" fill="#201912"/><path d="m118.131 160.581 53.318-3.264c4.113-.252 7.589 3.016 7.589 7.137v57.768a7.152 7.152 0 0 1-7.152 7.151h-47.755a7.15 7.15 0 0 1-7.114-6.424l-5.562-54.505a7.15 7.15 0 0 1 6.676-7.863Z" fill="#36F"/><path d="M159.639 196.181h-27.038a9.075 9.075 0 0 1-9.074-9.075v-9.186a9.075 9.075 0 0 1 9.074-9.074h27.038a9.074 9.074 0 0 1 9.074 9.074v9.186a9.074 9.074 0 0 1-9.074 9.075Z" fill="#FFC624"/><path d="M230.547 193.417a5.616 5.616 0 0 1-1.979-7.725 5.616 5.616 0 0 1 7.76-1.98c2.71 1.618 3.572 4.997 1.968 7.722-1.61 2.732-5.006 3.603-7.749 1.983Zm12.476 4.757c-.481-.966-.965-1.93-1.461-2.892-.113-.22-.126-.378.042-.592a8.61 8.61 0 0 0 1.166-1.982c.096-.227.228-.303.464-.322.987-.08 1.975-.178 2.962-.272.546-.05.813-.309.818-.844.017-1.804.026-3.608.026-5.412 0-.498-.193-.689-.686-.745-1.072-.119-2.144-.245-3.217-.352-.232-.023-.376-.099-.475-.316a14.397 14.397 0 0 0-1.12-2.013c-.098-.151-.128-.288-.049-.455.472-.987.915-1.989 1.42-2.959.192-.37.113-.604-.188-.782a341.238 341.238 0 0 0-4.711-2.766c-.42-.242-.72-.136-.995.247-.585.816-1.182 1.627-1.759 2.449-.147.208-.295.288-.552.246a6.885 6.885 0 0 0-2.21-.002c-.256.04-.403-.018-.551-.233a136.365 136.365 0 0 0-1.741-2.46c-.378-.525-.769-.607-1.338-.288-1.496.839-2.991 1.68-4.487 2.521-.535.303-.608.512-.357 1.087.4.923.798 1.847 1.218 2.761.112.244.103.426-.034.655-.383.633-.8 1.251-1.082 1.936-.101.248-.217.335-.473.355a155.7 155.7 0 0 0-3.051.282c-.478.048-.733.298-.74.778-.02 1.833-.029 3.666-.025 5.5.001.476.203.66.672.712 1.072.12 2.144.242 3.216.353.223.024.381.076.484.305.311.706.701 1.367 1.116 2.018.104.164.131.297.04.488-.432.89-.843 1.793-1.267 2.688-.284.598-.213.861.366 1.206.725.432 1.454.858 2.182 1.286.779.457 1.552.922 2.336 1.37.495.282.776.21 1.101-.241.588-.816 1.185-1.627 1.762-2.449.128-.184.254-.248.474-.212a6.93 6.93 0 0 0 2.254.006c.287-.046.429.058.58.274.57.826 1.156 1.642 1.743 2.458.336.468.744.567 1.229.295 1.523-.853 3.042-1.707 4.562-2.567.562-.318.627-.537.336-1.12ZM27.844 155.788a4.228 4.228 0 0 1-2.868-5.276 4.23 4.23 0 0 1 5.302-2.874c2.276.683 3.526 2.991 2.857 5.276-.672 2.291-2.99 3.551-5.29 2.874Zm9.984 1.177c-.53-.617-1.06-1.233-1.599-1.843-.123-.14-.162-.253-.078-.44.238-.53.396-1.089.486-1.662.029-.183.11-.264.28-.32.706-.24 1.407-.494 2.111-.744.39-.138.538-.375.443-.767a399.092 399.092 0 0 0-.979-3.956c-.09-.364-.267-.468-.637-.417-.805.109-1.61.214-2.413.334-.174.027-.294-.002-.404-.142-.36-.455-.763-.872-1.19-1.264-.1-.092-.146-.187-.118-.323.16-.808.3-1.621.49-2.423.072-.305-.028-.461-.281-.536-1.313-.393-2.628-.78-3.948-1.153-.352-.099-.55.036-.68.364-.279.705-.566 1.407-.835 2.113-.07.179-.162.264-.357.28a5.22 5.22 0 0 0-1.613.406c-.18.077-.3.061-.446-.068-.57-.5-1.146-.988-1.725-1.476-.372-.314-.672-.302-1.03.037-.938.888-1.874 1.777-2.811 2.667-.335.318-.35.485-.062.858.463.6.923 1.202 1.399 1.791a.471.471 0 0 1 .096.485c-.163.534-.355 1.06-.433 1.614-.03.198-.098.284-.28.345-.729.247-1.452.507-2.176.768-.34.123-.482.352-.396.703.32 1.342.653 2.684.993 4.021.088.347.27.444.621.396.804-.111 1.61-.217 2.415-.335.165-.022.292-.014.408.135.356.457.764.868 1.186 1.267.106.1.151.193.118.349-.15.729-.284 1.465-.428 2.196-.097.489.003.668.49.813.607.183 1.218.358 1.828.536.652.191 1.303.388 1.96.571.411.116.603.011.758-.379.279-.704.564-1.405.835-2.112.06-.157.14-.228.308-.241a5.262 5.262 0 0 0 1.646-.411c.2-.086.324-.037.474.094.569.497 1.146.986 1.725 1.473.332.28.647.276.952-.012.953-.903 1.907-1.807 2.857-2.713.352-.336.36-.507.04-.879Z" fill="#EE8F41"/><path d="M93.191 297.064v16.875H.906l-.703-12.744 55.195-86.484h16.963l-18.369 31.465-31.728 50.888H93.19Zm-15.996-82.353V342.68H56.014V214.711h21.181ZM190.75 267.973v20.918c0 10.019-.996 18.574-2.988 25.664-1.934 7.031-4.746 12.744-8.438 17.138-3.691 4.395-8.115 7.618-13.271 9.668-5.098 2.051-10.811 3.077-17.139 3.077-5.039 0-9.726-.645-14.062-1.934a34.348 34.348 0 0 1-11.602-6.065c-3.457-2.753-6.416-6.298-8.877-10.634-2.402-4.395-4.277-9.639-5.625-15.733-1.289-6.093-1.934-13.154-1.934-21.181v-20.918c0-10.078.997-18.575 2.989-25.489 1.992-6.972 4.834-12.627 8.525-16.963 3.692-4.394 8.086-7.587 13.184-9.58 5.156-1.992 10.898-2.988 17.226-2.988 5.098 0 9.785.645 14.063 1.934 4.336 1.23 8.203 3.193 11.601 5.888 3.457 2.696 6.387 6.211 8.789 10.547 2.461 4.278 4.336 9.463 5.625 15.557 1.289 6.035 1.934 13.066 1.934 21.094Zm-21.182 23.906v-27.07c0-5.098-.293-9.58-.879-13.448-.585-3.925-1.464-7.236-2.636-9.931-1.114-2.754-2.52-4.981-4.219-6.68-1.699-1.758-3.633-3.018-5.801-3.779-2.168-.821-4.599-1.231-7.295-1.231-3.281 0-6.211.645-8.789 1.934-2.578 1.23-4.746 3.222-6.504 5.976-1.757 2.754-3.105 6.387-4.043 10.899-.879 4.453-1.318 9.873-1.318 16.26v27.07c0 5.156.293 9.697.879 13.623.586 3.926 1.465 7.295 2.637 10.107 1.171 2.754 2.578 5.039 4.218 6.856 1.7 1.758 3.633 3.047 5.801 3.867 2.227.82 4.658 1.23 7.295 1.23 3.34 0 6.299-.644 8.877-1.933 2.578-1.289 4.746-3.34 6.504-6.152 1.758-2.872 3.076-6.592 3.955-11.163.879-4.57 1.318-10.048 1.318-16.435ZM297.801 297.064v16.875h-92.285l-.704-12.744 55.196-86.484h16.963l-18.369 31.465-31.729 50.888h70.928Zm-15.996-82.353V342.68h-21.182V214.711h21.182Z" fill="#FFBF46"/></svg>