<svg width="267" height="266" fill="none" xmlns="http://www.w3.org/2000/svg"><path d="M111.678 62.63c-.434.865-.59 1.711-.395 2.377.283.969.896 1.178 1.38 1.049.543-.144.987-.724.754-1.692-.164-.686-.812-1.33-1.739-1.734Zm13.978 2.99c-1.168.1-2.255.584-3.005 1.369-.701.734-.89 1.5-.481 1.95.38.42 1.236.52 2.215-.247.727-.568 1.184-1.738 1.271-3.072Zm4.917 7.263c-1.067.223-2.087.716-2.811 1.294-.658.528-.902 1.148-.619 1.58.165.25.521.426 1.014.164.849-.45 1.838-1.606 2.416-3.038Zm5.269 14.202-1.889-1.2c.033-.052 3.284-5.268 1.989-9.52-.566-1.852-1.545-3.007-2.911-3.429a2.506 2.506 0 0 0-.1-.03c-.679 2.272-2.201 4.185-3.726 4.993-1.431.757-3.087.374-3.934-.914-.762-1.163-.746-3.084 1.094-4.555 1.177-.943 2.897-1.725 4.698-1.888a5.03 5.03 0 0 0-.523-2.333c-.546-1.09-1.487-1.9-2.659-2.31-.152 1.919-.908 3.61-2.116 4.556-2.013 1.575-4.167 1.186-5.254-.013-.997-1.1-1.259-3.133.521-4.998 1.139-1.194 2.716-1.913 4.42-2.057-.352-1.395-1.392-3.83-4.448-4.809-3.173-1.015-6.145.422-7.87 2.104a4.081 4.081 0 0 0-.113.111c1.348.71 2.273 1.797 2.573 3.048.554 2.316-.765 3.955-2.356 4.378-1.539.41-3.449-.344-4.103-2.585-.305-1.041-.199-2.22.265-3.397a4.17 4.17 0 0 0-1.9.585c-2.792 1.688-2.437 4.365-2.433 4.392l-2.215.322c-.024-.17-.558-4.181 3.489-6.63 1.264-.764 2.823-1.055 4.346-.851.266-.334.56-.66.884-.975 2.191-2.138 5.998-3.951 10.115-2.633 3.198 1.022 5.467 3.65 6.072 7.029l.013.068c2.107.467 3.829 1.78 4.77 3.664a7.253 7.253 0 0 1 .755 3.481c.132.032.264.067.395.11 1.457.45 3.402 1.668 4.391 4.914 1.598 5.243-2.082 11.124-2.24 11.372Z" fill="#FFC624"/><path d="M123.631 169.278c-18.074-4.154-35.168 7.592-44.066 22.266-1.248 2.058 2.196 3.94 3.44 1.887 7.98-13.158 23.248-24.322 39.635-20.557 2.335.538 3.333-3.058.991-3.596ZM111.885 243.241c15.578-10.062 19.074-30.506 14.756-47.115-.605-2.33-4.354-1.172-3.751 1.151 3.871 14.893 1.231 33.623-12.892 42.746-2.014 1.3-.132 4.522 1.887 3.218ZM130.885 243.241c15.578-10.062 19.074-30.506 14.756-47.115-.605-2.33-4.354-1.172-3.751 1.151 3.871 14.893 1.231 33.623-12.892 42.746-2.014 1.3-.132 4.522 1.887 3.218Z" fill="#B0D1FF"/><path d="m88.82 199.198-5.827-.008c.004-2.674-1.83-4.841-4.095-4.844-2.265-.004-4.106 2.157-4.11 4.831l-5.827-.009c.01-6.468 4.464-11.702 9.947-11.693 5.484.008 9.922 5.256 9.912 11.723ZM131.019 241.064l-5.827-.008c.004-2.674-1.83-4.841-4.095-4.845-2.265-.003-4.106 2.157-4.11 4.832l-5.827-.01c.01-6.468 4.464-11.701 9.947-11.692 5.484.008 9.923 5.256 9.912 11.723Z" fill="#36F"/><path d="m150.019 241.064-5.827-.008c.004-2.674-1.83-4.841-4.095-4.845-2.265-.003-4.106 2.157-4.11 4.832l-5.827-.01c.01-6.468 4.464-11.701 9.947-11.692 5.484.008 9.923 5.256 9.912 11.723Z" fill="#36F"/><path d="M147.171 171.49c18.075 4.153 35.237-8.316 44.135-22.989 1.248-2.059-1.976-3.936-3.222-1.883-7.978 13.158-23.534 25.04-39.92 21.275-2.336-.537-3.335 3.059-.993 3.597Z" fill="#B0D1FF"/><path d="m185.004 136.322 4.969 3.045c-1.397 2.279-.962 5.085.969 6.268 1.93 1.184 4.629.3 6.026-1.98l4.968 3.046c-3.38 5.514-9.91 7.658-14.585 4.793-4.675-2.867-5.727-9.658-2.347-15.172Z" fill="#36F"/><path d="M139.213 163.678h-10.072v-11.937h10.072v11.937Z" fill="#fff"/><path d="M149.096 98.772c0 7.691-6.236 13.926-13.927 13.926s-13.927-6.235-13.927-13.926c0-7.692 6.236-13.927 13.927-13.927s13.927 6.235 13.927 13.927ZM95.655 137.442h-4.66c-2.754 0-5.007-2.253-5.007-5.006v-18.835a5.02 5.02 0 0 1 5.006-5.007h4.66a5.02 5.02 0 0 1 5.007 5.007v18.835a5.02 5.02 0 0 1-5.006 5.006ZM179.342 137.442h-4.66c-2.753 0-5.006-2.253-5.006-5.006v-18.835a5.02 5.02 0 0 1 5.006-5.007h4.66a5.02 5.02 0 0 1 5.006 5.007v18.835c0 2.753-2.253 5.006-5.006 5.006Z" fill="#FFC624"/><path d="M94.915 140.736c-.932-10.631-1.958-38.234-1.461-42.462.332-2.816.712-7.212 12.566-7.212H167.81c6.466 0 9.201 1.741 9.201 14.175 0 12.435-.994 32.08-.994 36.059 0 3.979 0 5.72-9.947 5.72h-64.409c-7.71 0-6.5-3.469-6.746-6.28Z" fill="#B0D1FF"/><path d="M92.188 145.213s19.805-5.142 40.868-6.152c25.621-1.227 46.817 0 46.817 0s-.768 8.29-1.535 10.856c-.768 2.566-5.565 5.132-18.995 5.132h-57.946c-4.221 0-6.523-1.047-7.867-4.54-1.343-3.493-1.343-5.296-1.343-5.296ZM124.349 124.323c0 7.245-5.872 13.119-13.117 13.119-7.245 0-13.119-5.874-13.119-13.119 0-7.244 5.874-13.117 13.119-13.117s13.117 5.873 13.117 13.117Z" fill="#3E64DE"/><path d="M121.518 124.173c0 5.68-4.605 10.284-10.285 10.284s-10.284-4.604-10.284-10.284c0-5.679 4.604-10.284 10.284-10.284 5.68 0 10.285 4.605 10.285 10.284Z" fill="#fff"/><path d="M172.785 120.469c0 8.755-7.098 15.853-15.853 15.853-8.756 0-15.854-7.098-15.854-15.853 0-8.755 7.098-15.853 15.854-15.853 8.755 0 15.853 7.098 15.853 15.853Z" fill="#3E64DE"/><path d="M169.677 120.509c0 6.864-5.565 12.428-12.428 12.428-6.864 0-12.429-5.564-12.429-12.428 0-6.865 5.565-12.429 12.429-12.429 6.863 0 12.428 5.564 12.428 12.429Z" fill="#fff"/><path d="M112.316 123.019h-1.54a1.66 1.66 0 0 1-1.655-1.655v-3.157c0-.91.745-1.655 1.655-1.655h1.54c.91 0 1.654.745 1.654 1.655v3.157a1.66 1.66 0 0 1-1.654 1.655ZM157.702 118.927h-1.54c-.91 0-1.654-.744-1.654-1.655v-3.157c0-.909.744-1.653 1.654-1.653h1.54c.91 0 1.655.744 1.655 1.653v3.157a1.66 1.66 0 0 1-1.655 1.655Z" fill="#201912"/><path d="m116.204 163.001 35.652-2.183a4.783 4.783 0 0 1 5.075 4.773v38.628a4.783 4.783 0 0 1-4.783 4.781h-31.932a4.78 4.78 0 0 1-4.757-4.296l-3.719-36.446a4.78 4.78 0 0 1 4.464-5.257Z" fill="#36F"/><path d="M143.96 186.805h-18.08a6.068 6.068 0 0 1-6.068-6.068v-6.143a6.068 6.068 0 0 1 6.068-6.067h18.08a6.067 6.067 0 0 1 6.067 6.067v6.143a6.067 6.067 0 0 1-6.067 6.068Z" fill="#FFC624"/><path d="M133.801 0a133 133 0 1 0 133 133 133.147 133.147 0 0 0-133-133Zm103.444 133a102.95 102.95 0 0 1-20.627 61.919L71.882 50.183A103.445 103.445 0 0 1 237.245 133Zm-206.889 0a102.95 102.95 0 0 1 20.628-61.919L195.72 215.817A103.443 103.443 0 0 1 30.356 133Z" fill="red"/></svg>