<svg xmlns="http://www.w3.org/2000/svg" width="104" height="104" fill="none"><rect width="87.692" height="87.692" y="16.308" fill="#FFF0F0" rx="13.397"/><g fill="#060C33" fill-opacity=".7" clip-path="url(#a)"><path d="M28.549 52.864h1.726c1.535 0 3.07 1.151 3.261 2.686.192.767 0 1.343-.383 1.918l-.192.384c-.192.383-.384.767-.384 1.15v.768c0 1.151.96 2.302 2.11 2.302h9.4v9.208h-.96c-.191-.192-.575-.384-.959-.576-.959-.383-1.918-.575-2.877-.383-2.494.383-4.22 2.493-4.412 4.987v1.918c0 2.686 1.918 4.796 4.412 5.371 1.151.192 2.302 0 3.453-.575l.384-.192h.959v8.249h-23.02c-2.877 0-4.987-2.11-5.179-4.796v-23.02h8.057c.575 0 1.343-.191 1.726-.767.384-.383.576-.959.768-1.342v-.768c0-.383-.192-.767-.384-1.15l-.384-.384c-.383-.576-.575-1.535-.575-2.302.384-1.535 1.535-2.494 3.07-2.686h.383Z"/><path d="M54.445 62.298c.041.159 0 0 0 .159v.959c-.767 1.151-1.15 2.494-.959 3.837.384 2.493 2.494 4.22 4.988 4.412h2.11c4.22.191 6.906-4.796 4.412-8.249v-.767c0-.192 0-.192.192-.384h9.207v22.636c0 2.685-2.11 4.987-4.987 5.179H46.005v-8.057c0-1.15-.96-2.302-2.11-2.302h-.767c-.384 0-.768.192-1.151.384l-.192.192c-.576.383-1.535.575-2.302.575-1.535-.383-2.494-1.534-2.686-3.069v-1.918c0-1.535 1.151-3.07 2.686-3.261.767-.192 1.343 0 1.918.383l.384.192c.384.192.767.384 1.15.384h.96c1.343 0 2.302-.96 2.494-2.11v-9.4h8.056" opacity=".4"/><path fill-rule="evenodd" d="m40.442 29.462 1.343 9.016c.192 1.15 1.343 2.11 2.494 2.11h.767c.384 0 .767-.192 1.151-.384l.192-.192c1.918-2.11 4.796-.959 5.371 1.535v.384l.192 1.534c.384 1.343-.576 2.878-2.11 3.453a3.27 3.27 0 0 1-1.919 0l-.383-.383c-.384-.192-.767-.192-1.151-.192h-.96c-1.15.191-2.11 1.15-2.11 2.493v.192l1.152 7.865-9.016 1.343h-.192l-.192-.192v-.767c.576-1.151.767-2.494.384-3.837-.768-2.302-3.07-3.836-5.563-3.644H29.7l-1.535.191c-2.685.384-4.604 2.494-4.795 5.18a5.21 5.21 0 0 0 1.15 3.26l.384.384.192.192v.768l-.192.191-8.056 1.151-3.645-22.635c-.384-2.686 1.534-5.18 4.028-5.755h.384l22.827-3.261Z" clip-rule="evenodd" opacity=".2"/></g><circle cx="82.248" cy="20.864" r="19.976" fill="#fff"/><path fill="#EF2C09" fill-rule="evenodd" d="M102.224 20.864a19.975 19.975 0 1 1-39.952 0 19.976 19.976 0 0 1 39.952 0ZM82.248 8.379a1.873 1.873 0 0 1 1.873 1.872v11.237a1.873 1.873 0 0 1-3.745 0V10.25a1.873 1.873 0 0 1 1.872-1.872Zm0 24.97a2.497 2.497 0 1 0 0-4.995 2.497 2.497 0 0 0 0 4.995Z" clip-rule="evenodd"/><defs><clipPath id="a"><path fill="#fff" d="M13.154 29.462h61.385v61.385H13.154z"/></clipPath></defs></svg>