<svg id="empty-page-animation" xmlns="http://www.w3.org/2000/svg" xmlns:xlink="http://www.w3.org/1999/xlink" viewBox="0 0 283 205" shape-rendering="geometricPrecision" text-rendering="geometricPrecision">
<style><![CDATA[
#empty-page-animation-u-base_ts {animation: empty-page-animation-u-base_ts__ts 1100ms linear 1 normal forwards}@keyframes empty-page-animation-u-base_ts__ts { 0% {transform: translate(142px,169.895636px) scale(1.100066,1)} 100% {transform: translate(142px,169.895636px) scale(1.318514,1)}} #empty-page-animation-u-subject_to {animation: empty-page-animation-u-subject_to__to 1100ms linear 1 normal forwards}@keyframes empty-page-animation-u-subject_to__to { 0% {transform: translate(131.7304px,90.202618px)} 100% {transform: translate(131.7304px,80.202618px)}} #empty-page-animation-u-page-2_to {animation: empty-page-animation-u-page-2_to__to 1100ms linear 1 normal forwards}@keyframes empty-page-animation-u-page-2_to__to { 0% {transform: translate(112.177002px,89.138252px)} 100% {transform: translate(102.49877px,93.454967px)}} #empty-page-animation-u-page-2_tr {animation: empty-page-animation-u-page-2_tr__tr 1100ms linear 1 normal forwards}@keyframes empty-page-animation-u-page-2_tr__tr { 0% {transform: rotate(0deg)} 100% {transform: rotate(-10deg)}} #empty-page-animation-u-page-2_ts {animation: empty-page-animation-u-page-2_ts__ts 1100ms linear 1 normal forwards}@keyframes empty-page-animation-u-page-2_ts__ts { 0% {transform: scale(1,1)} 100% {transform: scale(1.156065,1.15607)}} #empty-page-animation-u-page-3_to {animation: empty-page-animation-u-page-3_to__to 1100ms linear 1 normal forwards}@keyframes empty-page-animation-u-page-3_to__to { 0% {transform: translate(160.265px,101.293801px)} 100% {transform: translate(200.265px,101.293801px)}} #empty-page-animation-u-page-3_tr {animation: empty-page-animation-u-page-3_tr__tr 1100ms linear 1 normal forwards}@keyframes empty-page-animation-u-page-3_tr__tr { 0% {transform: rotate(0deg)} 100% {transform: rotate(16deg)}} #empty-page-animation-u-main-page_tr {animation: empty-page-animation-u-main-page_tr__tr 1100ms linear 1 normal forwards}@keyframes empty-page-animation-u-main-page_tr__tr { 0% {transform: translate(142.410248px,90.202599px) rotate(0deg)} 100% {transform: translate(142.410248px,90.202599px) rotate(-9deg)}}
]]></style>
<g id="empty-page-animation-u-base_ts" transform="translate(142,169.895636) scale(1.100066,1)"><ellipse id="empty-page-animation-u-base" rx="83" ry="11.5" transform="translate(0,0)" fill="#eef3f4"/></g><g id="empty-page-animation-u-subject_to" transform="translate(131.7304,90.202618)"><g id="empty-page-animation-u-subject" transform="translate(-131.7304,-90.202617)"><g id="empty-page-animation-u-page-2_to" transform="translate(112.177002,89.138252)"><g id="empty-page-animation-u-page-2_tr" transform="rotate(0)"><g id="empty-page-animation-u-page-2_ts" transform="scale(1,1)"><g id="empty-page-animation-u-page-2" transform="translate(-109.177002,-89.138252)"><path id="empty-page-animation-s-path1" d="M108.679,45.8275L71,57.0913L84.2308,101.35l5.3699-6.9222l14.4673,8.7912l1.788-15.6772l7.021,2.9918l2.324-7.3895l8.78,5.3354l2.877-14.3704l8.971,3.6953-6.175-20.6563-20.975-11.3206ZM136.72,80.786l-7.735-2.6358-3.003,14.9959-9.133-5.5498-2.186,6.9506-6.418-2.7347-1.855,16.2688-15.9853-9.714-5.2826,5.964l8.4056,28.118l53.8263-16.092L136.72,80.786Z" transform="translate(-2.01048-.031902)" clip-rule="evenodd" fill="#ececec" fill-rule="evenodd"/><path id="empty-page-animation-s-path2" d="M129.654,57.1481l-16.148,4.8274-4.827-16.148l20.975,11.3206Z" fill="#dcdcdc"/></g></g></g></g><g id="empty-page-animation-u-page-3_to" transform="translate(160.265,101.293801)"><g id="empty-page-animation-u-page-3_tr" transform="rotate(0)"><g id="empty-page-animation-u-page-3" transform="translate(-160.264999,-101.2938)"><path id="empty-page-animation-s-path3" d="M171.326,61.8806L132,62.0557l.206,46.1933l7.104-5.126l11.399,12.516l6.139-14.535l5.892,4.851l4.314-6.4337l6.918,7.5957l6.815-12.9745l7.564,6.0765-.096-21.5595-16.929-16.7789Zm17.039,41.4504l-6.678-4.7115-7.112,13.5395-7.196-7.901-4.058,6.051-5.385-4.434-6.371,15.084-12.595-13.83-6.751,4.232.131,29.346l56.18-.25-.165-37.126Z" clip-rule="evenodd" fill="#ececec" fill-rule="evenodd"/><path id="empty-page-animation-s-path4" d="M188.255,78.6595l-16.854.0751-.075-16.854l16.929,16.7789Z" fill="#dcdcdc"/></g></g></g><g id="empty-page-animation-u-main-page_tr" transform="translate(142.410248,90.202599) rotate(0)"><g id="empty-page-animation-u-main-page" transform="scale(0.969182,0.969182) translate(-142.410251,-95.202599)"><path id="empty-page-animation-s-path5" d="M93.4645,26.7918l68.4405-.0596l29.357,29.3062.094,107.5496-97.7723.085-.1192-136.8812Z" fill="#ffc802"/><path id="empty-page-animation-s-path6" d="M191.262,56.0384l-29.332.0256-.025-29.3318l29.357,29.3062Z" fill="#f5b401"/><path id="empty-page-animation-s-path7" d="M141.449,114.74l-10.141.009c.028-2.75.268-5.056.721-6.919.453-1.893,1.21-3.609,2.27-5.147c1.09-1.539,2.528-3.1663,4.316-4.8828c1.393-1.3022,2.65-2.5304,3.771-3.6845c1.121-1.1837,2.014-2.4264,2.68-3.728.665-1.3311.998-2.8542.996-4.5691-.002-1.8628-.321-3.4445-.959-4.7449-.638-1.3005-1.578-2.2902-2.822-2.9692-1.213-.679-2.729-1.0177-4.549-1.0161-1.515.0013-2.94.2982-4.273.8908-1.334.5629-2.409,1.4509-3.227,2.6639-.817,1.1835-1.256,2.751-1.315,4.7025l-10.959.0096c.057-3.7257.964-6.8607,2.72-9.4051s4.119-4.4536,7.089-5.7277c2.97-1.274,6.289-1.9126,9.958-1.9158c4.062-.0035,7.534.6735,10.416,2.0312c2.881,1.328,5.08,3.2776,6.599,5.8487c1.548,2.5416,2.324,5.616,2.327,9.2233.002,2.602-.526,4.968-1.586,7.0978-1.059,2.1003-2.437,4.0678-4.133,5.9025-1.696,1.8049-3.529,3.6099-5.498,5.4159-1.696,1.509-2.847,3.151-3.451,4.926-.605,1.745-.922,3.741-.95,5.988ZM130.41,128.588c-.001-1.597.559-2.943,1.679-4.038c1.121-1.124,2.652-1.687,4.592-1.689s3.472.559,4.594,1.681c1.123,1.093,1.685,2.438,1.687,4.035.001,1.597-.559,2.957-1.68,4.082-1.12,1.095-2.651,1.643-4.591,1.645s-3.472-.544-4.595-1.637c-1.122-1.123-1.684-2.482-1.686-4.079Z" fill="#fff"/></g></g></g></g></svg>
