<svg width="443" height="284" fill="none" xmlns="http://www.w3.org/2000/svg"><path d="M252.666 104.234a2.606 2.606 0 0 0-5.001 1.467l5.001-1.467Zm-50.231 115.348c13.378-2.494 31.834-11.291 44.006-29.622 12.234-18.425 17.855-46.078 6.225-85.726l-5.001 1.467c11.302 38.529 5.631 64.513-5.566 81.376-11.26 16.958-28.373 25.099-40.62 27.382l.956 5.123Z" fill="#B0D1FF"/><path d="m236.64 91.576 7.593-.009c.003 3.484 2.399 6.301 5.351 6.299 2.951-.003 5.342-2.824 5.339-6.308l7.593-.007c.008 8.427-5.779 15.261-12.923 15.266-7.145.008-12.945-6.815-12.953-15.241Z" fill="#36F"/><path d="M296.517 240.281c17.688 16.461 44.629 14.343 64.229 3.582 2.749-1.509.089-5.875-2.653-4.37-17.575 9.648-42.077 12.299-58.114-2.625-2.286-2.128-5.754 1.279-3.462 3.413ZM56.712 264.967c20.864 12.189 46.687 4.222 63.455-10.57 2.352-2.074-1.2-5.752-3.545-3.683-15.036 13.263-38.363 21.215-57.28 10.166-2.695-1.577-5.333 2.508-2.63 4.087Z" fill="#B0D1FF"/><path d="m155.072 271.176-7.592-.011c.005-3.483-2.384-6.307-5.336-6.311-2.951-.005-5.349 2.81-5.355 6.294l-7.592-.012c.012-8.427 5.816-15.246 12.961-15.234 7.145.01 12.928 6.848 12.914 15.274ZM320.549 271.176l-7.593-.011c.005-3.483-2.384-6.307-5.335-6.311-2.952-.005-5.35 2.81-5.356 6.294l-7.592-.012c.013-8.427 5.817-15.246 12.961-15.234 7.145.01 12.928 6.848 12.915 15.274Z" fill="#36F"/><path d="M168.523 269.625c23.678 7.535 46.16-15.09 57.816-41.714 1.635-3.735-2.588-7.141-4.22-3.417-10.452 23.876-30.83 45.435-52.296 38.603-3.06-.974-4.369 5.551-1.3 6.528Z" fill="#B0D1FF"/><path d="M79.514 157.035c.382 1.203 1.007 2.133 1.793 2.577 1.146.647 1.908.286 2.242-.275.376-.629.263-1.573-.835-2.265-.776-.491-1.967-.503-3.2-.037Zm15.764-9.919c-.998 1.156-1.573 2.595-1.56 4.009.014 1.323.534 2.209 1.325 2.258.735.046 1.626-.639 1.843-2.245.16-1.191-.476-2.699-1.608-4.022Zm11.192 2.307c-.792 1.178-1.296 2.565-1.445 3.763-.135 1.092.201 1.892.857 2.037.383.085.874-.075 1.096-.767.384-1.193.256-3.171-.508-5.033Zm17.831 8.462-2.855.598c-.016-.078-1.724-7.902-6.799-10.692-2.212-1.215-4.176-1.401-5.834-.553a6.586 6.586 0 0 0-.12.063c1.431 2.737 1.75 5.907 1.062 8.047-.647 2.008-2.54 3.156-4.502 2.723-1.769-.391-3.501-2.199-3.122-5.244.243-1.951 1.137-4.244 2.669-6.034a6.547 6.547 0 0 0-2.61-1.701c-1.501-.522-3.115-.421-4.582.26 1.603 1.93 2.435 4.194 2.169 6.177-.447 3.3-2.811 4.895-4.916 4.764-1.93-.119-4.024-1.778-4.058-5.138-.022-2.15.795-4.254 2.254-5.937-1.596-.982-4.782-2.309-8.523-.443-3.884 1.936-5.351 5.98-5.431 9.119a5.655 5.655 0 0 0-.005.205c1.904-.563 3.755-.389 5.173.506 2.622 1.657 2.882 4.387 1.782 6.227-1.064 1.782-3.532 2.815-6.18 1.319-1.23-.695-2.204-1.891-2.841-3.411a5.427 5.427 0 0 0-1.241 2.274c-1.07 4.113 1.695 6.289 1.722 6.31l-1.774 2.314c-.176-.136-4.323-3.394-2.772-9.359.485-1.862 1.674-3.551 3.282-4.746a13.258 13.258 0 0 1-.062-1.713c.102-3.988 2.005-9.142 7.045-11.655 3.914-1.953 8.422-1.564 12.058 1.039l.074.051c2.391-1.48 5.192-1.82 7.784-.918a9.456 9.456 0 0 1 3.869 2.563c.152-.091.308-.178.468-.258 1.769-.904 4.692-1.535 8.567.595 6.258 3.439 8.171 12.274 8.249 12.648Z" fill="#FFC624"/><path d="m197.087 226.3-9.399 9.158-10.854-11.14 9.399-9.158 10.854 11.14Z" fill="#fff"/><path d="M147.292 156.741c6.993 7.178 6.843 18.666-.334 25.659-7.178 6.994-18.666 6.845-25.66-.333-6.993-7.178-6.843-18.666.335-25.66 7.177-6.992 18.665-6.844 25.659.334ZM132.583 241.421l-4.349 4.237c-2.569 2.503-6.72 2.449-9.223-.12l-17.126-17.577c-2.505-2.571-2.45-6.721.12-9.224l4.349-4.237c2.57-2.505 6.719-2.451 9.223.12l17.126 17.577c2.504 2.569 2.451 6.72-.12 9.224ZM210.681 165.328l-4.349 4.237c-2.569 2.503-6.72 2.449-9.224-.12l-17.126-17.578c-2.504-2.57-2.449-6.72.12-9.223l4.349-4.238c2.57-2.503 6.72-2.45 9.224.12l17.126 17.578c2.503 2.569 2.449 6.72-.12 9.224Z" fill="#FFC624"/><path d="M134.888 245.168c-10.536-9.074-36.592-33.902-39.973-38.299-2.25-2.929-5.892-7.378 5.17-18.156l25.87-25.206 31.794-30.977c6.034-5.879 10.17-6.741 21.476 4.862 11.306 11.604 28.241 30.842 31.859 34.555 3.618 3.714 5.201 5.338-4.082 14.382l-60.109 58.565c-7.194 7.01-9.219 2.673-12.005.274Z" fill="#B0D1FF"/><path d="M136.416 251.825s13.808-22.806 32.546-42.901c22.794-24.441 43.691-42.568 43.691-42.568s6.821 8.434 8.438 11.527c1.616 3.092-.527 9.848-13.06 22.06l-54.077 52.687c-3.939 3.839-7.039 4.955-11.469 2.917-4.43-2.039-6.069-3.722-6.069-3.722ZM147.435 203.088c6.587 6.761 6.448 17.582-.314 24.169-6.761 6.588-17.583 6.447-24.17-.314-6.588-6.761-6.446-17.582.315-24.17 6.761-6.587 17.582-6.446 24.169.315Z" fill="#3E64DE"/><path d="M144.657 205.521c5.164 5.301 5.053 13.785-.247 18.949-5.301 5.165-13.784 5.054-18.948-.247-5.164-5.3-5.055-13.783.246-18.948 5.3-5.164 13.785-5.054 18.949.246Z" fill="#fff"/><path d="M189.132 155.45c7.961 8.171 7.791 21.248-.38 29.209-8.171 7.962-21.249 7.791-29.209-.379-7.961-8.171-7.791-21.248.381-29.21 8.17-7.96 21.248-7.79 29.208.38Z" fill="#3E64DE"/><path d="M186.264 158.312c6.241 6.406 6.107 16.659-.298 22.9-6.406 6.241-16.658 6.108-22.899-.298-6.242-6.406-6.108-16.658.297-22.899 6.405-6.241 16.658-6.108 22.9.297Z" fill="#fff"/><path d="m137.86 223.539-1.437 1.4a2.162 2.162 0 0 1-3.049-.039l-2.87-2.947a2.162 2.162 0 0 1 .039-3.048l1.437-1.4a2.163 2.163 0 0 1 3.049.039l2.871 2.946c.827.85.81 2.222-.04 3.049ZM177.86 163.538l-1.438 1.401a2.162 2.162 0 0 1-3.048-.04l-2.87-2.947a2.162 2.162 0 0 1 .039-3.047l1.438-1.401a2.164 2.164 0 0 1 3.048.039l2.871 2.946c.827.85.809 2.222-.04 3.049Z" fill="#201912"/><path d="m189.842 264.186 2.67-46.462a6.232 6.232 0 0 1 6.957-5.831l49.976 5.953a6.23 6.23 0 0 1 5.45 6.924l-4.921 41.314a6.23 6.23 0 0 1-6.291 5.493l-47.727-.805a6.23 6.23 0 0 1-6.114-6.586Z" fill="#36F"/><path d="m224.924 231.944-2.786 23.392a7.906 7.906 0 0 1-8.786 6.915l-7.947-.947a7.905 7.905 0 0 1-6.915-8.784l2.786-23.392a7.905 7.905 0 0 1 8.785-6.915l7.947.947a7.905 7.905 0 0 1 6.916 8.784Z" fill="#FFC624"/><rect opacity=".2" y="271.093" width="443" height="3.909" rx="1.954" fill="url(#a)"/><path fill="#fff" d="M240.832 24.016h27.125v51.059h-27.125z"/><path fill-rule="evenodd" clip-rule="evenodd" d="M237.574 7.47c5.69-9.851 19.916-9.851 25.601 0l36.231 62.798c5.685 9.852-1.428 22.168-12.802 22.168h-72.458c-11.374 0-18.483-12.316-12.798-22.168l36.221-62.797h.005Zm12.803 25.848a3.696 3.696 0 0 1 3.695 3.694v18.473a3.694 3.694 0 1 1-7.389 0V37.012a3.694 3.694 0 0 1 3.694-3.694Zm0 40.64a3.696 3.696 0 1 0 0-7.391 3.696 3.696 0 0 0 0 7.39Z" fill="red"/><defs><linearGradient id="a" x1="465.801" y1="275" x2="-24.756" y2="275" gradientUnits="userSpaceOnUse"><stop stop-color="#B0D1FF" stop-opacity="0"/><stop offset=".496" stop-color="#B0D1FF"/><stop offset="1" stop-color="#B0D1FF" stop-opacity="0"/></linearGradient></defs></svg>