<svg xmlns="http://www.w3.org/2000/svg" viewBox="0 0 1000 90" preserveAspectRatio="none">
  <path d="M0 0v43.3h.6c0 .1-.1.2 0 .3 0 .2.1.3.3.2.3-.1.6-.1.9-.1.3 0 .5 0 .8-.1v.1c.7 0 1.6.4 2.8.4V44h.3c.2 0 .4 0 .6.3 0 .1.1.1.2 0s.1-.2 0-.3c-.2-.4-.5-.4-.8-.5h-.1c-.1-.2-.2-.3-.3-.4.6.1 1.3.1 1.7 0-.1-.4-.6-.7-1-1.1.1-.7-.6-1.7 1.5-1.9.1.3.3.7.4 1.1H8c0 .1-.1.2-.1.3v.1c-.1 0-.1.2-.1.3 0 .1.1.2.2.2h.1c-.2 0-.2-.1-.1-.3v-.1c.2.2.3.4.6.5.1 0 .1-.1.2-.2 0-.1 0-.2-.1-.2-.2-.1-.3-.2-.5-.5h.1c1-.1 1.8 0 1.6 1.1.8.4 1.5.8 2.6.7.3 0 .6-.6.9 0-.4 1.4-1.2.8-2.1 1.3-.4.1-.9.1-1.3 0-.4-.6-1.4-.9-1.7.2.3.2.7.4 1.3.4v-.1c.5.2 1 .1 1.5.1 0 .5 1.1-.1.6.6.9.3.9-.6 1.7-.4.6 1.1 2.5.4 3.3 1.3 0-.4.2-.4.3-.6 0 .3 1 .3.6 0-.2 0-.3 0-.4-.1 0-.1 0-.1-.1-.1H17c.1-.9-.1-1.5-.3-1.9.4-.5.7-.8 1.4-1.1-.1 1.3 1.4 1.2.7 2.8-.1 0-.1.1-.2.1-.1.1-.1.2-.1.4s.2.2.3.2l.1-.1c1.1.6 2 .4 3.1.4.2.1.4.1.6.1.3.1.4.5.7.6 0-.2 0-.4.1-.4.6.2 1.1.2 1.5.2h.4c1.6.4 2.8.9 4.3.7v.4c.5-.2.7 0 1-.6 1.4.6 3 1.2 3.8 0 1 1.9 2.9-.4 3.6 1.7 1.1.3 2.1-.6 2.9-.4.5.1 1.1 1.2 1.7.4.4 1 1.2.2 1.8.9 1.1-1.4 2.6 1.1 4.3.7.3.2.5.2.7.2.2 0 .4 0 .5.1.1.1.2 0 .2-.2 0-.1 0-.3-.1-.3-.2-.1-.4-.1-.7-.1-.2 0-.5 0-.6-.1v-.1c.7-1 1.8-.3 3.3-.6.2.5.4 1 .3 1.9.9-.8 1.5.5 2.4.2.2-.8 0-1 .4-1.5.9 0 1.6.8 1.4 1.9.9-.3 2.4 1.2 3.1-.4.4.8 1.1 1.2 1.8 1.5v-.1c.2.1.4.1.6 0v.1c0 .5.6.1.9.2v-.1c.5-.1 1 .1 1.5.3.6.2 1.3.5 1.9.2.1 0 .2-.2.2-.4s-.1-.3-.2-.2c-.5.2-1.1 0-1.7-.2-.4-.2-.9-.3-1.4-.3h-.1c-.1-.5-.8-.5-1.1 0h-.5v-.1c-.3-.9-.6-1.7-1.1-2.2 1.3-.8 1.7 1.3 3 1.3.1-.3-.2-1.1.1-1.1 2.4.4 3.6 1.2 5.8 2 0-.4.4-.4.6-.6 1 1.2 2.7 1.1 3.6.5v.9c1.1-.5 1.5.5 1.7 1.9 1.3 0 2.8.8 4.3.2.3.8.7.4 1.3.9.5-.8-.4-2.2.3-2.6 0 .2.1.3.3.4 0 .1 0 .2.1.3 0 1.1-.1.9-.2 1.7 1.5-.9 3.5.8 4.3.9.8.1 2.5-.9 3 0 .6-.5 1 .3 1.3.9.7-.2 1.6.4 2.4 0 .4 1 1.7.5 2.7.7v-.2c.6-.2 1.3-.1 1.8.1.8.8 2-.4 2.9.3-.1-.8 1.1-.5.9.2 1-.1 1.4.3 2-.2-.1.6 1 .5 1.4.2.9.6 1.6.4 3 .7 0-.6.2-.7.6-.6v.6c1.5-.1 3.3.6 4.3.7-.5-.4 1.1-.2 1.1-.2v.4c1.1.2 2.1.2 2.9-.8-1.3.2-1-2.5-.7-3.2.4.6 1.2.7 1.6.4-.5.2-.1-.6 0-.6.9 2 3.7-.1 4 2.8-.3.3-.9.2-1 .9.5.6 1.5.6 1.9-.2.6.2 1.6.7 2 0-.2-.1-.3-.3-.4-.6.6-.2 1.4 0 1.9-.9-.2 0-.5 0-.4-.4.6-.2.7.5 1.1.7.2-.5.3-1.2.9-1.1.2.5.7.4.6 1.3.6-.3.9.9 1.4.4-.4-.1.6-.8 0-1.1.1.4-.5 0-.6-.2.7-.4.5-.2 0-.6 1.2 0 2.3 0 2.6 1.3 1.9 0 3.5.5 5.1-.4 0-.6-.5-.7-.1-1.3-.5 0-1 .1-1-.7.4.1.5-.4 1-.2-.1-.7.3-.8.2-1.5 1.6-.5 2.8-.8 4.3 0 .4 1.1-.3 1.8-.4 2.2.5 0 .9 0 1 .2-.2.3-.2.5 0 .9 1 .5 1.9-1.1 2.6-.4 0-.4.2-.4.3-.6-.5-.5-1.3-1.5-2-1.5 2.3-2.1 5.1-1 8.3-2.3.5.7 1.3 0 1.6.4 0 1-.4 1.4-.6 2.2 1 1.1 2.3-.5 3.3.4.4-.2.5-1 .9-1.3 1 .2 1.6 1 2.3 0 .5 1.4 1.8-.4 2.7.2.3-.4.4-.9.9-1.1 1.1 1 3.4.8 4.4-.4.5 1.2 2.2.3 2.7.4.7-2.1 2.3-.7 3.7-1.1-.1.6.3.4.3.9h1.1c.3-1.2 2-1.6 2.9-1.1.2.1.4.7.7.9.8.4 1.9.6 2.4-.2.5.7 1.1-.1 2.3.2.1.3.2.7.6.6 1.2-.5 2.4.1 3.3-.8 2.7 1.1 6.7 0 9.4.1.1-.3.4-.4.6-.6 1.6.7 5.3.1 7.1-1.5 1 1.4 3.8-2.1 4.4.7.8.4 1.5-.3 2-.8 1.2 1 1.9-1.2 3-.4.1-.6.7-.4.9-.9 2.4-.4 3.5-2.7 5-4.5h.7c1.2-.1 2.6-.7 3.7-.6.3 0 .6-.2.7-.2.7 0 1.4.3 2.3.2 2.1-.2 3.1-.2 4.1-.1 0-.4.2 0 .4-.2.7.3 1.6-.1 2.5-.1 1.6 0 4 0 5.6-.1.3 0 .7-.3 1-.3.8 0 1.5.2 2.2.1.2 0 .3-.2.5-.2.6 0 1.4.2 2.1.1 1.1-.1 2.1-.8 3-.2.2-.1.3-.3.7-.3 2.3.1 2.6.1 4.5-.1.1.2.4.3.7.4 1.5-.8 3.7.7 5.1-.3 1.5.2 3 .2 4.2-.1.1.1 1 .2 1 .1-.1 0-.1-.1.1-.1v-.1c.1.1.3.1.4.1h.1s.1 0 .1-.1c0 0 0-.1-.1-.1h-.4c0-.3-.3-.4-.5-.5v-.1-.1c.2 0 .4 0 .4-.1-.1 0-.3 0-.3-.1.5-.2.4-.4.1-.7.7-.1.6.3 1.1.3 1.3-.4 1.4.5 2.6.5 0-.3-.1-.7.3-.7.3.1.5.4.3.6.6.1.6-.2 1-.3.5.2 1.5.3 2.1.1.2 1.3 2.8.7 4.1.4.3 0 .1.3.4.3 0-.3.5-.4.8-.5.2.1.7 0 .7.3 1.2-.6 2.5-.1 3.7.1.9-.4 1.9.1 2.6.1 1.2.1 2.3-.3 3.1.4.5-.2 1.3-.2 1.8-.4-.5 0-.7-.3-.7-.7.8-.3 1.5.3 2.3 0 1.3.6 4.7.4 6.2 1.4-.2 0-.6.3-.3.4.1-.4.9.3 1.4 0V44c.1 0 .1.1.2.1h.1s0-.1-.1-.1h-.1c.1-.4-.2-.1-.3-.3.7-.4 1.9-.1 2.2.1l-.3.1c.5.3.9.1 1.1.5.8-.2 1.7-.3 2.2.1.3 0 .4-.2.8-.1 1.4.6 4.5.7 5.9.6 1.2.5 3.2 1 5.1 1.4.6.1.9.2 1.2.2.4.1.9 0 1.4 0 2 .1 3.8.7 5.6.6 1.9.5 4 .2 6 .1.8 0 1.7.2 2.5.1.2 0 .4-.2.5-.2 2.8 0 5.7.3 8.4.1.1.1.2.2.4.2 1.6.1 2.7-.5 4.5-.1 0-.1 0-.2.3-.2 1.9.3 4.2 0 6.7 0 .4-.6 1.5.1 1.8-.3-.3 0 0-.3.1-.3 1 .2 1.3-.2 2.5-.1.4-.8 1.7-.9 2.6-1.2.4.2.6.5 1.1.3.2-.3-.4-.1-.3-.4.4-.1 1 .1 1.2-.3-.2 0-.3 0-.3-.2-3.2-.1-5.3-.4-7.7-.8.8 0 .9.2 1-.2 1 .5 1.9.3 2.7.4-.2 0-.2-.2-.3-.3.2.1.3.3.8.2.3-.3-.2-.3 0-.4.3 0 .3.6.5.2-.2 0-.2-.1-.3-.2.6.1.5.1.8-.2.5.6 1.2.2 1.8.2 0 .1 0 .1.1.1h.1c0 .1-.1.1-.1.2v.1s0 .1.1.1.1 0 .1-.1v-.1s0-.1.1-.1c.1.1.1.1.2.1h.1v-.1l-.1-.1h.1c.7 0 .7-.5 1.4-.5 3.6.2 7.4.2 11.5 0 2.5.3 5.6-.2 7.5-.4h.4c.3 0 .5 0 .5-.2.3-.1.7-.1 1-.1.4 0 .8 0 1.2-.1 0 .1 0 .2.1.2-.1-.3.6.1.5-.2.3.1.5 0 .8 0h.2c.4.1 1.5-.1 2.2-.1-.2-.7-2-.8-2.3-.1h-.2c-.2 0-.4.1-.6 0-.1-.1-.3-.2-.5-.2 0 .2-.3.1-.4.2-.3.1-.7.1-1 .1-.4 0-.8 0-1.2.1-.1-.1-.8-.2-.6.1h-.1c-.2-.4-.7 0-1.1 0-.6 0-1.3-.2-1.8-.1-.2 0-.2.5-.5.3-1.3-.2-2.8.1-4.1.2h-.1c-4.1.2-7.9.3-11.5 0-.2-.1-.6 0-.5-.4.5-.4.1-.7 0-1.4-1.6-.3-2.7-1-3.8-1.6.5-.5.9-.4 1.8-.3 0 .3.2.4.1.8h.7c-.1-.4.1-.5.4-.6.6.1.6.7 1.2.8.2-.3 1.1-.2 1.4-.6.2.3.8.3 1.4.4.2-.4.3-.8-.3-1.2 1.7-.4 2.6.3 2.9 1.2.8 0 1.1 0 1.8-.3.6.2 1.3.1 1.6-.3.8 0 1.1-.4 1.5-.6-.4-.1-1-.1-1.1-.4 2.1.1 3.7-.4 4.8.5-.4 0-.6.2-1 .2v.3c-.2 0-.3.1-.6 0l-.1-.1c-.1-.1-.2-.3-.5-.3-.1 0-.2.1-.2.1 0 .1.1.2.2.2s.1 0 .2.1l.3.3c.2 0 .6.1.9 0 0 0 .1 0 .1-.1.2-.1.4-.1.7 0 .1-.2.2-.4.6-.5.5.1 1.2 0 1.2.4 1.2.1 1.6-.4 2.2-.7-.3 0-.1-.3 0-.4h.6c0 .1.2.2.3.3-.2 0-.4 0-.4.1.9.6 2.1.3 3.2 0 .1-.4-.5-.3-.4-.6.7-.2 1.7-.1 1.9.3.5-1 1.7-.4 2.6-.1 1-.5 3.3-.3 3.6-1.1 1 .6 2.3.1 3.4 0 1.5-.1 3-.1 4.4-.5-.2-.1-.3-.3-.3-.5-.5-.1-.7.1-1.1.1-1.4-.5-2.3.4-3.3-.3.2 0 .2-.2.4-.2 2.1-.1 4.3-.1 5.3-1h1.4c.1 0 .2-.1.2-.2s-.1-.1-.2-.1h-1.3c-.3-.1-.4-.5-.7-.4-.1.2-.1.3 0 .4-2.9.1-6.2.5-8.3.3-.2.1 0 .4-.3.4-.8-.3-1.3-.1-2.1 0-.6.1-1.4-.1-1.8 0-.3.1-.4.3-.7.3-.6 0-1.4-.1-1.8-.5 1.3-.1 2.3-.4 3.7-.5 1.1-.6 3.6.1 5.5-.4.3-.2-.2-.3.3-.4 1.4-.1 3.7.7 4.9-.2h.3c.1 0 .1 0 .1-.1 0 0 0-.1-.1-.1s-.3 0-.4-.1c-.1-.1-.2-.1-.3-.1.1-.1.2-.2.3-.2h.6c1.6.9 3.5.7 4.7 1.7-.4 0-.4.3-.7.4-.1 0-.1 0-.2-.1-.1 0-.2.1-.2.3 0 .2.1.3.2.4.1 0 .2 0 .3.1.1 0 .1 0 .2-.1.8 0 1.6.3 2.4.6 0 0 0 .1.1.1h.1c.1.1.3.1.4.1h.1l.1-.1c.1.1.3.1.5.2h.1c.1.5.5.4.8.6.1-.8.7-.9 1.1-.6v-.1c.2 0 .3.1.5.1.4.1.8.3 1.2 0 .2.4.5.5.8.5h.2c.2.5.5.8 1.1.8.1-.8 0-1 .2-1.5-.4-.3-.8-.1-1.1.2v.1h-.3c-.3 0-.5 0-.6-.4l-.1-.3-.2.2c-.3.3-.7.2-1.1.1-.1 0-.3-.1-.4-.1.1-.2.1-.3 0-.5.2 0 .4 0 .4-.2-.2-.3-.6-.1-.8-.4V35c0-.1 0-.1-.1-.1l-.1.1v.1c-.1 0-.2 0-.1-.2.3-.9 1.1-.5 2.1-.6 0-.2 0-.4.1-.4 1-.6 3.5.1 4.4.9.7-.2 1.3.1 2.3 0 .2 1.1.4.3 1.3.4v-.1c.2.1.3.1.5.1.1 0 .1-.1.1-.2s-.1-.2-.2-.2h-.3c.2-.7 0-1 0-1.9.1-.5 1.2.4.9-.2-.3.1-.5-.1-.6-.4.6-.4 1.7-.3 1.8 1.1-.1 0-.3 0-.3.2.4.7.8 1.4 1 2.4h.1c0 .1-.1.2-.1.3v.1c-.1 0-.1.2-.1.3 0 .1.1.2.2.2h.1c.1-.1.1-.2.2-.4v-.1c.2.2.3.4.6.5.1 0 .1-.1.2-.2 0-.1 0-.2-.1-.2-.2-.1-.3-.2-.5-.5h.1c1-.1 1.8 0 1.6 1.1.8.4 1.5.8 2.6.7.3 0 .6-.6.9 0-.4 1.4-1.2.8-2.1 1.3-.4.1-.9.1-1.3 0-.4-.6-1.4-.9-1.7.2.5.1 1 .4 1.6.4v-.1c.5.2 1 .1 1.5.1 0 .5 1.1-.1.6.6.9.3.9-.6 1.7-.4.6 1.1 2.5.4 3.3 1.3 0-.4.2-.4.3-.6 0 .3 1 .3.6 0-.2 0-.3 0-.4-.1 0-.1 0-.1-.1-.1h-.1c.1-.9-.1-1.5-.3-1.9.4-.5.7-.8 1.4-1.1-.1 1.3 1.4 1.2.7 2.8-.1 0-.1.1-.2.1-.1.1-.1.2-.1.4s.2.2.3.2l.1-.1c1.1.6 2 .4 3.1.4.2.1.4.1.6.1.3.1.4.5.7.6 0-.2 0-.4.1-.4.4.1.9.2 1.3.2h.4c1.6.4 2.8.9 4.3.7v.4c.5-.2.7 0 1-.6 1.4.6 3 1.2 3.8 0 1 1.9 2.9-.4 3.6 1.7 1.1.3 2.1-.6 2.9-.4.5.1 1.1 1.2 1.7.4.4 1 1.2.2 1.8.9 1.1-1.4 2.6 1.1 4.3.7.2.1.5.1.7.1.2 0 .4 0 .5.1.1.1.2 0 .2-.2 0-.1 0-.3-.1-.3-.2-.1-.4-.1-.7-.1-.2 0-.5 0-.6-.1v-.1c.7-1 1.8-.3 3.3-.6.2.5.4 1 .3 1.9.9-.8 1.5.5 2.4.2.2-.8 0-1 .4-1.5.9 0 1.6.8 1.4 1.9.9-.3 2.4 1.2 3.1-.4.4.8 1.1 1.2 1.8 1.5v-.1c.2.1.4.1.6 0v.1c0 .5.6.1.9.2V48c.5-.1 1 .1 1.5.3.6.2 1.3.5 1.9.2.1 0 .2-.2.2-.4s-.1-.3-.2-.2c-.5.2-1.1 0-1.7-.2-.4-.2-.9-.3-1.4-.3h-.1c-.1-.5-.8-.5-1.1 0h-.5v-.1c-.3-.9-.6-1.7-1.1-2.2 1.3-.8 1.7 1.3 3 1.3.1-.3-.2-1.1.1-1.1 2.4.4 3.6 1.2 5.8 2 0-.4.4-.4.6-.6 1 1.2 2.7 1.1 3.6.5v.9c1.1-.5 1.5.5 1.7 1.9 1.3 0 2.8.8 4.3.2.3.8.7.4 1.3.9.5-.8-.4-2.2.3-2.6 0 .2.1.3.3.4 0 .1 0 .2.1.3 0 1.1-.1.9-.2 1.7 1.5-.9 3.5.8 4.3.9.8.1 2.5-.9 3 0 .6-.5 1 .3 1.3.9.7-.2 1.6.4 2.4 0 .4 1 1.7.5 2.7.7v-.2c.6-.2 1.3-.1 1.8.1.8.8 2-.4 2.9.3-.1-.8 1.1-.5.9.2 1-.1 1.4.3 2-.2-.1.6 1 .5 1.4.2.9.6 1.6.4 3 .7 0-.6.2-.7.6-.6v.6c1.5-.1 3.3.6 4.3.7-.5-.4 1.1-.2 1.1-.2v.4c1.1.2 2.1.2 2.9-.8-1.3.2-1-2.5-.7-3.2.4.6 1.2.7 1.6.4-.5.2-.1-.6 0-.6.9 2 3.7-.1 4 2.8-.3.3-.9.2-1 .9.5.6 1.5.6 1.9-.2.6.2 1.6.7 2 0-.2-.1-.3-.3-.4-.6.6-.2 1.4 0 1.9-.9-.2 0-.5 0-.4-.4.6-.2.7.5 1.1.7.2-.5.3-1.2.9-1.1.2.5.7.4.6 1.3.6-.3.9.9 1.4.4-.4-.1.6-.8 0-1.1.1.4-.5 0-.6-.2.7-.4.5-.2 0-.6 1.2 0 2.3 0 2.6 1.3 1.9 0 3.5.5 5.1-.4 0-.6-.5-.7-.1-1.3-.5 0-1 .1-1-.7.4.1.5-.4 1-.2-.1-.7.3-.8.2-1.5 1.6-.5 2.8-.8 4.3 0 .4 1.1-.3 1.8-.4 2.2.5 0 .9 0 1 .2-.2.3-.2.5 0 .9 1 .5 1.9-1.1 2.6-.4 0-.4.2-.4.3-.6-.5-.5-1.3-1.5-2-1.5 2.3-2.1 5.1-1 8.3-2.3.5.7 1.3 0 1.6.4 0 1-.4 1.4-.6 2.1 1 1.1 2.3-.5 3.3.4.4-.2.5-1 .9-1.3 1 .2 1.6 1 2.3 0 .5 1.4 1.8-.4 2.7.2.3-.4.4-.9.9-1.1 1.1 1 3.4.8 4.4-.4.5 1.2 2.2.3 2.7.4.4-1.1 1-1.2 1.7-1.1h.1c.5.1 1 .2 1.5.1.1 0 .3 0 .4.1 0 .4.3.3.3.7h1.1c0-.2.1-.3.2-.4.3 0 .6.1.9.1.1-.5.5-.1.8-.1 0 0 0-.2.1-.2h1.1c.1.2.2.3.3.4.7.4 1.9.6 2.4-.2h.1c.5.6 1.1-.1 2.3.2.1.3.2.7.6.6.7-.3 1.5-.2 2.1-.3.4 0 .8 0 1.1-.2 0 .1-.2.2 0 .3-.1-.3.3-.2.4-.3.8.6 2.3.1 2.9.7.2-.2.9.2.8-.2 0 .1.3.1.4.2.1-.4.8.1 1.1-.3 0 .1-.2.2-.3.3.3 0 .3-.1.5-.1.1.1.1.1.2.1h.5v-.1h-.4l-.1-.1h.1c.4-.3.9.1 1.6.2 0-.2.5-.1.8-.1.2 0 1.1.3 1.1 0 .7.4 1.8.1 2.7.1.9.1 2 .3 3 .3l.1-.2c.3-.1 1 .3 1-.1.1.1.6.3.7.1-.1 0-.3-.2-.1-.2.7.3 1.4 0 2.1.3 0-.1 0-.3.1-.3 2.6.4 3.2 0 4.9.4 0-.3 1.4.1 1.5-.4.1.4.8.1.4.4 1.3 0 2.1 0 2.9-.2.5.4 1.3.3 2.2.2h2.3c.2 0 .4-.2.7-.2.8 0 1.9.2 3 .1 1.9-.1 5.1.1 6.6-.3.2 0 .2-.2.4-.2 1.2-.1 3.5.4 3.4-.1 2.1.4 3.8-.1 5.8-.1h3.4c.1 0 .2 0 .2-.1s-.1-.1-.2-.1h-3.5c-1-.3-2.1 0-2.8-.2V48h.2s.1 0 .1-.1c0 0 0-.1-.1-.1h-.3v.1c-.1 0-.2.1-.3.1.1-.2-.4-.4-.4-.2.2 0 .2.1.3.2-.7 0-1.4-.1-1.9-.2s-1.4-.1-2.2-.2c-.9-.1-1.8-.2-1.6 0-.1-.2-.4-.3-.7-.4.2.5-.6.5-1 .4.7 0 .5-.6 1-.7.5.1 1.3.3 1.2.6 0-.2.5-.1.5-.2 2.6.4 5.2-.3 7.7-.3 2.2 0 4.9.2 7.1-.2.7-.1 1.3-.4 1.9-.5.7-.1 1.5 0 2.2 0v.2c.4.1.2-.3.5-.3 2.1.5 3.8 1.5 6.9 1.6 0 0-.1 0-.1.1 0 0 .1.1.1 0h.1c.1 0 .2 0 .3-.1v.1c.8-.1.9.4 1 0 .2.2.6.2.8.2 2.2 0 4.3-.4 6.4-.4.8 0 2 .2 2.7.1 1.2-.1 2.6-.7 3.7-.6.3 0 .6-.2.7-.2.7 0 1.4.3 2.3.2 2.1-.2 3.1-.2 4.1-.1 0-.4.2 0 .4-.2.7.3 1.6-.1 2.5-.1 1.6 0 4 0 5.6-.1.3 0 .7-.3 1-.3.8 0 1.5.2 2.2.1.2 0 .3-.2.5-.2.7 0 1.4.2 2.1.1 1.1-.1 2.1-.8 3-.2.2-.1.3-.3.7-.3 2.3.1 2.6.1 4.5-.1.1.2.4.3.7.4 1.5-.8 3.7.7 5.1-.3 1.5.2 3 .2 4.2-.1.1.1 1 .2 1 .1-.1 0-.1-.1.1-.1v-.1c.1.1.3.1.4.1h.1s.1 0 .1-.1c0 0 0-.1-.1-.1h-.4c0-.3-.3-.4-.5-.5V45v-.1c.2 0 .4 0 .4-.1-.1 0-.3 0-.3-.1.5-.2.4-.4.1-.7.7-.1.6.3 1.1.3 1.3-.4 1.4.5 2.6.5 0-.3-.1-.7.3-.7.3.1.5.4.3.6.6.1.6-.2 1-.3.5.2 1.5.3 2.1.1.2 1.3 2.8.7 4.1.4.3 0 .1.3.4.3 0-.3.5-.4.8-.5.2.1.7 0 .7.3 1.2-.6 2.5-.1 3.7.1.9-.4 1.9.1 2.6.1 1.2.1 2.3-.3 3.1.4.5-.2 1.3-.2 1.8-.4-.5 0-.7-.3-.7-.7.8-.3 1.5.3 2.3 0 1.3.6 4.7.4 6.2 1.4-.2 0-.6.3-.3.4.1-.4.9.3 1.4 0v-.1c.1 0 .1.1.2.1h.1s0-.1-.1-.1h-.1c.1-.4-.2-.1-.3-.3.7-.4 1.9-.1 2.2.1l-.3.1c.5.3.9.1 1.1.5.8-.2 1.7-.3 2.2.1.3 0 .4-.2.8-.1 1.4.6 4.5.7 5.9.6 1.2.5 3.2 1 5.1 1.4.6.1.9.2 1.2.2.4.1.9 0 1.4 0 2 .1 3.8.7 5.6.6 1.9.5 4 .2 6 .1.8 0 1.7.2 2.5.1.2 0 .4-.2.5-.2 2.8 0 5.7.3 8.4.1.1.1.2.2.4.2 1.6.1 2.7-.5 4.5-.1 0-.1 0-.2.3-.2 1.9.3 4.2 0 6.7 0 .4-.6 1.5.1 1.8-.3-.3 0 0-.3.1-.3 1 .2 1.3-.2 2.5-.1.4-.8 1.7-.9 2.6-1.2.4.2.6.5 1.1.3.2-.3-.4-.1-.3-.4.4-.1 1 .1 1.2-.3-.2 0-.3 0-.3-.2-3.2-.1-5.3-.4-7.7-.8.8 0 .9.2 1-.2 1 .5 1.9.3 2.7.4-.2 0-.2-.2-.3-.3.2.1.3.3.8.2.3-.3-.2-.3 0-.4.3 0 .3.6.5.2-.2 0-.2-.1-.3-.2.6.1.5.1.8-.2.5.6 1.2.2 1.8.2 0 .1 0 .1.1.1h.1c0 .1-.1.1-.1.2v.1s0 .1.1.1.1 0 .1-.1v-.1s0-.1.1-.1c.1.1.1.1.2.1h.1V46l-.1-.1h.1c.7 0 .7-.5 1.4-.5 3.6.2 7.4.2 11.5 0 2.5.3 5.6-.2 7.5-.4h.4c.3 0 .5 0 .5-.2.3-.1.7-.1 1-.1.4 0 .8 0 1.2-.1 0 .1 0 .2.1.2-.1-.3.6.1.5-.2.3.1.5 0 .8 0h.2c.4.1 1.5-.1 2.2-.1-.2-.7-2-.8-2.3-.1h-.2c-.2 0-.4.1-.6 0-.1-.1-.3-.2-.5-.2 0 .2-.3.1-.4.2-.3.1-.7.1-1 .1-.4 0-.8 0-1.2.1-.1-.1-.8-.2-.6.1h-.1c-.2-.4-.7 0-1.1 0-.6 0-1.3-.2-1.8-.1-.2 0-.2.5-.5.3-1.3-.2-2.8.1-4.1.2h-.1c-4.1.2-7.9.3-11.5 0-.2-.1-.6 0-.5-.4.5-.4.1-.7 0-1.4-1.6-.3-2.7-1-3.8-1.6.5-.5.9-.4 1.8-.3 0 .3.2.4.1.8h.7c-.1-.4.1-.5.4-.6.6.1.6.7 1.2.8.2-.3 1.1-.2 1.4-.6.2.3.8.3 1.4.4.2-.4.3-.8-.3-1.2 1.7-.4 2.6.3 2.9 1.2.8 0 1.1 0 1.8-.3.6.2 1.3.1 1.6-.3.8 0 1.1-.4 1.5-.6-.4-.1-1-.1-1.1-.4 2.1.1 3.7-.4 4.8.5-.4 0-.6.2-1 .2v.3c-.2 0-.3.1-.6 0l-.1-.1c-.1-.1-.2-.3-.5-.3-.1 0-.2.1-.2.1 0 .1.1.2.2.2s.1 0 .2.1l.3.3c.2 0 .6.1.9 0 0 0 .1 0 .1-.1.2-.1.4-.1.7 0 .1-.2.2-.4.6-.5.5.1 1.2 0 1.2.4 1.2.1 1.6-.4 2.2-.7-.3 0-.1-.3 0-.4h.6c0 .1.2.2.3.3-.2 0-.4 0-.4.1.9.6 2.1.3 3.2 0 .1-.4-.5-.3-.4-.6.7-.2 1.7-.1 1.9.3.5-1 1.7-.4 2.6-.1 1-.5 3.3-.3 3.6-1.1 1 .6 2.3.1 3.4 0 1.5-.1 3-.1 4.4-.5-.2-.1-.3-.3-.3-.5-.5-.1-.7.1-1.1.1-1.4-.5-2.3.4-3.3-.3.2 0 .2-.2.4-.2 2.1-.1 4.3-.1 5.3-1h1.4c.1 0 .2-.1.2-.2s-.1-.1-.2-.1h-1.4c-3 0-6.6.6-8.9.4-.2.1 0 .4-.3.4-.8-.3-1.3-.1-2.1 0-.6.1-1.4-.1-1.8 0-.3.1-.4.3-.7.3-.3 0-.6 0-.9-.1 0-.2 0-.4.1-.6.9-.1 1.7-.3 2.7-.4 1.1-.6 3.6.1 5.5-.4.3-.2-.2-.3.3-.4 1.4-.1 3.7.7 4.9-.2h.3c.1 0 .1 0 .1-.1 0 0 0-.1-.1-.1s-.3 0-.4-.1c-.1-.1-.5 0-.4-.3.5.2 1 .3 1.5.2.2.1.5.1.7.1.2 0 .4 0 .5.1.1 0 .2 0 .2-.1.6 0 1.4-.1 2.2-.2v.8c.9-.8 1.5.5 2.4.2.2-.6.1-.8.2-1.1.3 0 .7-.1 1-.1.5.3.8.9.6 1.7.9-.3 2.4 1.2 3.1-.4.4.8 1.1 1.2 1.8 1.5v-.1c.2.1.4.1.6 0v.1c0 .5.6.1.9.2V38c.5-.1 1 .1 1.5.3.6.2 1.3.5 1.9.2.1 0 .2-.2.2-.4s-.1-.3-.2-.2c-.5.2-1.1 0-1.7-.2-.4-.2-.9-.3-1.4-.3h-.1c-.1-.5-.8-.5-1.1 0h-.5v-.1c-.3-.9-.6-1.7-1.1-2.2.7-.4 1.2 0 1.7.5-.1 0-.1 0-.2.1.1 0 .2.1.3.1.3.3.7.7 1.2.7.1-.3-.2-1.1.1-1.1 1.2.2 2.1.5 3 .9h-.1c-.1 0-.2 0-.2.1 0 0 .1.1.2.1h.6c.2.1.4.1.5.2 0 .1-.2.2-.5.4.3.2 1.2.2 1.8.1.2.1.4.1.5.2 0-.4.4-.4.6-.6 1 1.2 2.7 1.1 3.6.5v.9c1.1-.5 1.5.5 1.7 1.9 1.3 0 2.8.8 4.3.2.3.8.7.4 1.3.9.5-.8-.4-2.2.3-2.6 0 .2.1.3.3.4 0 .1 0 .2.1.3 0 1.1-.1.9-.2 1.7 1.5-.9 3.5.8 4.3.9.8.1 2.5-.9 3 0 .6-.5 1 .3 1.3.9.7-.2 1.6.4 2.4 0 .4 1 1.7.5 2.7.7v-.2c.6-.2 1.3-.1 1.8.1.8.8 2-.4 2.9.3-.1-.8 1.1-.5.9.2 1-.1 1.4.3 2-.2-.1.6 1 .5 1.4.2.9.6 1.6.4 3 .7 0-.6.2-.7.6-.6v.6c1.5-.1 3.3.6 4.3.7-.5-.4 1.1-.2 1.1-.2v.4c1.1.2 2.1.2 2.9-.8-1.3.2-1-2.5-.7-3.2.4.6 1.2.7 1.6.4-.5.2-.1-.6 0-.6.9 2 3.7-.1 4 2.8-.3.3-.9.2-1 .9.5.6 1.5.6 1.9-.2.6.2 1.6.7 2 0-.2-.1-.3-.3-.4-.6.6-.2 1.4 0 1.9-.9-.2 0-.5 0-.4-.4.6-.2.7.5 1.1.7.2-.5.3-1.2.9-1.1.2.5.7.4.6 1.3.6-.3.9.9 1.4.4-.4-.1.6-.8 0-1.1.1.4-.5 0-.6-.2.7-.4.5-.2 0-.6 1.2 0 2.3 0 2.6 1.3 1.9 0 3.5.5 5.1-.4 0-.6-.5-.7-.1-1.3-.5 0-1 .1-1-.7.4.1.5-.4 1-.2-.1-.7.3-.8.2-1.5 1.6-.5 2.8-.8 4.3 0 .4 1.1-.3 1.8-.4 2.2.5 0 .9 0 1 .2-.2.3-.2.5 0 .9 1 .5 1.9-1.1 2.6-.4 0-.4.2-.4.3-.6-.5-.5-1.3-1.5-2-1.5 2.3-2.1 5.1-1 8.3-2.3.5.7 1.3 0 1.6.4 0 1-.4 1.4-.6 2.2 1 1.1 2.3-.5 3.3.4.4-.2.5-1 .9-1.3 1 .2 1.6 1 2.3 0 .5 1.4 1.8-.4 2.7.2.3-.4.4-.9.9-1.1 1.1 1 3.4.8 4.4-.4.5 1.2 2.2.3 2.7.4.7-2.1 2.3-.7 3.7-1.1-.1.6.3.4.3.9h1.1c.3-1.2 2-1.6 2.9-1.1.2.1.4.7.7.9.8.4 1.9.6 2.4-.2.5.7 1.1-.1 2.3.2.1.3.2.7.6.6 1.2-.5 2.4.1 3.3-.8.9.4 2 .5 3.1.5V0H0zm4.9 38.5v-.2c.7 0 1.4.1 2 0 0 .1.1.2.1.4-.7-.1-1.7 0-2.1-.2zm17.4 7.4c-.5-.7-.8-.4-1.7-.4 0-.4-.1-.7-.3-.9.7-.4 1.2.1 2.1 0 .1.4.3.6.3 1.3-.1.1-.3.1-.4 0zm3.2.7H25c-.5 0-.9 0-1.3-.2.4-1 .5-1.4 1.7-1.3-.1.7.3 1.1.1 1.5zm54.7 5.1c-.3.6-1.2.3-1.6.9 0-.6-.8.2-.6-.6-3.4-.1-7.1-.6-11.5-1.4 0-.7.6-.5.6-1.1 1.3.6 2.7-.1 3.8 0 .2 0 .5.4.7.4 1 .1 2.4-.1 4.1.5.8-1.6 3.7-1.9 4.4-.2-.2.6-.9.4-.9 1.3 1-.2.2.7 1 .2zm2.5-.5v.3c-.1.1-.2.2-.2.3 0 .6-.2-.3-.6 0 0-.7.5-.4.8-.6zm-1 3.1c0-.1 0-.2-.1-.2.2-.2.4-.3.7-.2 0 .3 0 .6.1.6-.1.8-.4-.2-.7-.2zm2.3-2.6c-.7-.2-.8-.1-1.4.2.1-.1.1-.2.2-.2h.1v-.1c0-.2 0-.4-.1-.8h.1c.3 0 .3.2.1.4.4.2.2-.7.7-.4-.1.3-.2.4 0 .6.1 0 .2-.2.1-.4.2.1.2.4.2.7zm15.2 5.5c-1 .4-1.7.3-2.4.8v.1c-.4 0-.8-.1-1.2-.1-.3 0-.6 0-.8.1V58c-.5-.2-.9-.8-1.4-.4 0-1.4 1.2-.9 1.3-2.2.6-.1 1.2.1 1.8.3.6.2 1.2.4 1.9.4h.4c-.1.8.5.4.4 1.1zm4.5-2.1c-1.7.2-3.9-.8-5.3.4-.6.1-1.2-.1-1.8-.3-.5-.2-1.1-.4-1.6-.4h-.4c-1.9-.3-3.5-.4-4.8-1.1v-1.1c1.7.1 3.4 0 3.2-2.8.6-.5 1.1.3 1.1 1.3 1.1.1 2.4.8 3.7.5.6 1.1 1 2.7 2.4 2 0-1.2.4-.4.6-1.7.9-.6 1.4-.9 2 .2.8-.3.9.1 1.4.7.1 1.3-.6 1.2-.5 2.3zm134.9-27.3zm.4-.3c-.1 0-.2 0-.1.1l-.1-.1c0-.1 0-.1.1-.2h.2c-.1.1-.1.2-.1.2zm57.1.1c.2 0 .3 0 .4-.1V27.8c.1.4-.3-.1-.3.2-.1-.2-.1-.3-.1-.4zm-.4 2.3v.2c-.2.1-.5.1-.5.3-.2-.1-.4-.2-.7-.3 0-.3.7-.2 1.2-.2zm-.7-3.4c-.6 0 .2-.6 0 0zm.4-2.2c.2-.2 0 0 0 .2 0 .4-.3-.3 0-.2zm.1-2.9s.1 0 .1.1c-.3.1-.6.1-.9.1v-.1c.2-.1.5-.1.8-.1zm-1 0c0 .1 0 .1 0 0l.1.1h-1.3c.4-.1 1-.1 1.2-.1zm-4.2.2s.1 0 0 0c.2-.1.2-.1.2-.2.3-.1.4-.1.1.3.4 0 .6-.1.8-.3.2.1.3.2.3.4 0 0-.1.1-.3.1-.4 0-.7-.2-1.1-.3zm-1.1 14.1c1.1.4 1.8-.2 2.6.1-.1.8-2.3.5-2.7.4-.1-.3.2-.2.1-.5zm2.4 2.4c-.5.5-1.6.2-2.3.3-1.8.1-2.6-.4-4.5-.3h-.1c.1-.1.1-.2.1-.2 2.2-.2 5-.3 6.8.2zm-2.9-8c0 .3-.6.2-.8.1 0-.3.5-.1.8-.1zm-.2 3.4c.2.2-.1.2.3.4-.7.6.2 1.2-.7 1.6 0 .2.5.1.4.3.2.8-1.7.6-2.6.4-.2 0-.8-.3-.4-.5-.3 0-.4.2-.7 0 0-.3.6-.2.4-.7.5-.1 1.1-.3 1.6-.4-.1-.1-.2-.2 0-.2 0-.1-.4 0-.4-.2 0-.7 1.3-.5 2.1-.7zm-3.4-8.5c0 .1-.1.1-.2.1 0-.1.1-.1.2-.1zm-.3.1zm1.1 5.2c0 .7-1.3.1-1.5.5-.2 0-.1-.2-.1-.3.7-.2.8-.6 1.6-.2zm-2-5.3c.2-.3.1.2-.1.1h-.1s.1-.1.2-.1zm-.2 7.2c.4 0 .6-.4 1-.4.3.1 0 .6.5.5 0 .5-.7.5-1 .7-.1-.3-.4-.1-1-.1-.3 0-.6-.2-.8-.2-.2 0-.2.2-.4.2-.5.1-1.3-.2-1.8-.1-.6.1-1 .4-1.6.4-.1-.1-.4-.2-.5-.3-.4.4-1.7.4-2.2.4-.1-.4-.6-.5-1-.7.7-.5 1.8-.3 2.6-.6 0 .2.5.1.5.3 1-.2 2.4-.6 3.6-.5.2 0 .8 0 .8.3.6-.2 1.1-.6 1.3.1zm.9 5.7v.1h-.4l-.1-.1c.2-.1.3-.1.5 0zm-.6.2c-.3 0-.5 0-.5-.2h.3c0 .1 0 .1.1.1s.1.1.1.1zm-1.9 0c0-.1 0-.1 0 0 .4-.2.7-.3.9-.1 0 .2-.8.7-1 .2 0-.1.1-.1.1-.1zm-.2-.1s0 .1-.1.1c-.3.2-.7.3-.8-.2.4.1.3-.3.7-.2 0 .1 0 .1.1.1h.1c.1.1 0 .2 0 .2zm-3.7-2.4c.1.1.2.1.2.1-.9.2-1.8.6-2.6 0-.5.7-1.8.2-2.6.7-.3 0-.3-.3-.1-.4-.4.1-.9.1-1 .4-1.4-.2-1.7.4-2.7-.2 0-.2.2-.2.1-.4-1.7 0-2.6.8-4.7.7.6-.2.2-.4 0-.7.1 0 .2 0 .3-.1.4.2 1.3 0 1.4-.4.9-.1 1.7.3 2.2-.2.5-.1.3.4.7.4.5 0 .5-.3.8-.4 1.3.5 1.6-.4 2.9-.2.2.3.3.3.1.6 1.5 0 2.5-.5 4-.6-.1-.2-.3-.3-.3-.6 1.2-.4 1.5.7 2.5.7 0 .5-.5.3-.8.4 0 0-.1 0-.1-.1h-.1c-.1 0-.1 0-.2.1-.1 0-.1.1 0 .2zm-12.6 4.3h-.4s0-.1-.1-.1c-.1-.2.7-.2.5.1zm-4.8-4.7c.3 0 .2-.3.6-.2.1.3-.2.4-.6.4v-.1-.1zm-.6-6.6c0-.1.1-.2.1-.3 0-.1-.1-.1-.1-.1-.1 0-.1 0-.1.1 0 0 0 .1-.1.1s-.2.1-.2.2c-.4-.3-1 0-1.2.2-.2-.1-.3-.1-.4-.2-.2 0-.2.3-.3.1h-.1c.1-.1.1-.3.1-.4v-.2c1-.4 2 0 3 0v.1h-.1s-.1 0 0 .1h.2v-.1c.2 0 .2-.1.4-.1 0 .1-.1.1-.1.2.9-.2.8 0 1.5.1 0 .1 0 .2-.1.3-.1-.1-.5-.2-.4.1-.2 0-.2-.1-.3-.2 0 .1-1.2-.4-1.8 0zm.4 6.8c-.1 0-.4.1-.9.2-.8-.4.3-.6.9-.2-.1-.1 0-.1 0 0zm-3.6.3c-.3-.5 1-1.1 1.6-.6 0 .5-1.4.1-1.6.6zm1 .7c-.2 0-.3-.1-.3-.3.2 0 .3.1.3.3zm.6-9.6c.1 0 .2-.1.3-.1 0 0 .1 0 .1-.1 0 0 0 .1.1.1 0 .1-.2.1-.5.1zm.8-.3c.1-.1.3-.1.5-.1 0 .1 0 .2.1.2h-.1c-.1 0-.2 0-.1-.1-.1 0-.2.1-.1.2-.1 0-.2-.1-.3-.1v-.1zm.7-.1c0 .1 0 .1 0 0 0 .1 0 .1 0 0zm0 .3zm3.3 10c-.5.5-1.6.6-2.5.4.5-.5 1.8-.5 2.5-.4zm-.6-8c.1-.1.2-.3.1-.5h.1c.7.1 1.5.1 2.1 0 .1 0 .2-.2.3-.2.3 0 0 .2 0 .2.3.1 1.1 0 1.2-.1.1.5-1.3.2-1.4.5-.4-.1-.9-.2-1.4.1-.4-.5-.6.3-1 0zm2.8-2.2c0-.2.3-.1.4-.2h.2c-.2.1-.3.2-.6.2zm1.4-.4h.4v.1l-.2.2c-.3 0-.3 0-.2-.3zm.7 1.9c-.2.4-.6.1-1 .3.4-.3.5-.1 1-.3zm.3-1.2s.1 0 0 0c.1 0 0 0 0 0zm.1.1c0 .1.1.1 0 0l.1.1c-.1.2-.6.2-.5-.1h.4zm-.2-.4c-.2 0-.2-.1-.4-.1l.1-.1c.3.1.7-.1.3.2zm.2 4.4c-.1.6-2 .4-2.6.3.3-.8 1.7-.5 2.6-.3zm-.4 2.3c-.6 0-1.2.2-1.6.1 0-.2.2-.4.3-.6.6 0 1.4-.1 1.3.5zm-2.6 1.8v.3H264.8c-.2.2 0-.4.3-.3zm3.3-8.1zm1.5.8c.4.1-.3.2-.3.3-.5-.2.4-.2.3-.3zm5.2 3.1c-.3.4-1.4.2-1.8.5-.2-.2-.8-.1-1.2-.1-.7.3-1.6.2-1.9-.3 1.5-.4 3.1-.1 4.9-.1zm-1.2-4.8zm.5.1c-.1 0-.1 0-.2-.1.1 0 .1-.1.1-.3.1-.4.1.5.3.1.1.2 0 .3-.2.3zm.2-.9h.4v.1-.1c-.3.2-.3 0-.4 0zm.4 1.8c.6-.2.6.3 0 0zm.1-1.7c0-.1.1-.1.2-.1h.4s-.1.1-.1.2c-.2-.1-.3-.2-.5-.1zm5.8 0l.1-.1h.2c-.1.1-.2.1-.3.1zm1.5 5.2c-.1.2-.9.3-1.2.1 0 0 0-.1-.1-.1.3-.1 1.1-.1 1.3 0zm-1.4-3.7v.2c-.1-.1-.2-.1-.4-.1.1-.3.2-.3.4-.1zm0 3.8l.1.1c-.6 0-.6.1-1-.1 0-.2.7-.1.9 0zm2.2-4.1c.3.1-.4.2-.4.4h-.1c.1-.1.1-.2 0-.4h.1c.1-.2.2.2.4 0zm-.4-1.3h-.3c.2-.1.4-.2.3 0zm-.2 1.5v.1c-.2 0-.4 0-.5.1-.4-.2.2-.3.5-.2zm-3.1-1.4c.5-.2 1-.5 1.6-.6 0 .1-.1.1-.1.2.2 0 .3 0 .4-.1 0 0 .1-.1.1 0h-.1s-.1 0-.1.1c0 0 .1.1.1 0 .1 0 .1 0 .2-.1v.1c.5.1-.5.1 0 .2h.1v.1h-.4c-.1-.1-.2-.1-.3-.1h-.1c-.1 0-.2.1-.2.1-.1 0-.1-.2-.1-.3-.4.2-.8.2-1.1.5h-.2.1l-.1.1c-.2 0 0-.2.1-.2-.4-.2.1 0 .1 0zm-1.3-.7c.2-.2.2-.1.2.1h-.1c-.1 0-.1-.1-.1-.1zm-.6 0c0-.1.2-.1.3 0 0 .1 0 .2.1.3h.4v.1c.2.3 0 .1-.4.2-.2-.3-.1-.3-.5-.2-.3-.4.6-.3.1-.4zm-.3 2.4c-.4.4-.4-.3 0 0zm-.8-.2c.1 0 .1.2.3.2 0 .4-.5-.2-.4.1-.4 0 .2-.1.1-.3zm2.6 3.8c-.6.4-2.1.1-3.4.2.2-.1.2-.4.6-.4-.1.1-.1.2-.1.3.8-.1 2-.3 2.9-.1zm-3.4-3.7c-.1 0 .4.1.4.1 0 .2-.7.2-.4-.1zm-.3-2.1c.2 0 .4-.1.5-.2.1.2 0 .2-.1.3h-.5c.1 0 .1-.1.1-.1zm-.1-.4c-.1.1-.2.1-.2 0h.2zm-.7.1s0 .1.1.1c-.2.1-.4.1-.6.1-.1-.4.3 0 .5-.2zm-.7.4c.1 0 .1 0 .1-.1.2 0 .5 0 .7-.1.1 0 .3.1.4.1v.1c-.3.1-.7.1-1.2 0zm0 .4c.1 0 .1.1.1.1l-.1.1c-.1 0-.1 0-.2-.1 0-.1.1-.1.2-.1-.1 0 0 0 0 0zm-1.1.2h.1c.1-.1.2-.1.2-.3 0-.1-.1-.1-.2-.2l-.1-.1c.3 0 .6.1 1 .1h-.1c-.1 0-.1 0-.2.1v.1h-.1c-.2.1 0 .3.4.4v.1c-.1 0-.2.1-.3.1-.2 0-.3-.1-.3.1h-.1s-.1-.1-.1-.2c-.1 0-.1.1-.1.2h-.2c-.2-.1-.5-.3-.8-.3-.1-.1-.1-.2-.1-.3.2 0 .4-.1.5-.2.1 0 .2-.1.2-.1s.1.1.2.1.1.1.1.1c.1.2.1.2 0 .3 0-.1 0 0 0 0zm-6.5-3.4s.1 0 .1-.1v-.2c.3-.1.5.2.7.2.4.1.7-.4.8 0 .5-.3.8 0 1.2-.3 0 .1-.1.2-.1.3.2 0 .3-.1.3-.3h1.1c-.3.2-.9.2-1.3.3.3 0 .6 0 .5.2-.8.7-2.1.3-3.2 0-.1 0-.1 0-.1-.1-.1.1 0 0 0 0zm-.2-.3c.1.1.1.1.1.2h-.1-.1-.2-.1-.1-.1c.2-.2.6-.1.6-.2zm-2.4-1h.3c0 .1 0 .1.1.2-.2-.1-.4-.1-.5-.2h.1zm-1.7 0h.5c0 .1-.2.2 0 .2-.1.2-.2-.1-.4.1h-.1v-.3zm-.3 0c.1 0 .1 0 0 0h.2v.1h-.3l.1-.1zm-2.3 1c.6.1 2 0 2.5 0 .1.3 1.8.1 2.1.1.2 0 .3.1.3.3.7-.2.9.2 1.1-.1V22l.1.1c0 .1-.1.2-.2.2h-.2l-.1-.1h-.4c-.2 0-.6 0-.7.3l-.1.1h-.5v-.2c-.1-.1-.2-.1-.3-.1h-.1c-.1.1-.2.1-.3 0h-.4c-.4.1-.5 0-1 0 .3.3-.3.1-.8.2.1-.2.2-.3.3-.4-.3 0-.5-.3-1 0v.1c-.1-.1-.3-.1-.4-.1h-.2s0 .1-.1.1c0-.1-.1-.2-.1-.3.2 0 .3 0 .5-.1zm3.4 1.5c.1-.1.2-.1.2-.1h.7c.1 0 .1 0 .1-.1h.6c0 .1.1.2.3.2-.3.3-1.1-.1-1.9.2v-.1c.1 0 0-.1 0-.1zm-1 .2c0-.2.5-.1.8-.2v.1c-.5.2-1.7.1-2.1 0 .3-.3.7-.2 1.2-.1-.1 0-.1.1.1.2zm.5-.6h.1c.1 0 .1 0 .2.1-.1 0-.2 0-.3-.1-.1.1-.2.1-.3.1v-.1h.3zm.1-.3c0-.1.1-.1.2-.1s.3 0 .5-.1v.1c-.1 0-.1.1-.1.1-.2.1-.4.1-.6 0zm1.3.3c0 .1 0 .1 0 0-.2.1-.4 0-.5 0h.5zm.9.1h-.2c-.1 0-.2 0-.3.1h-.1V23h1v.1c-.1-.1-.3-.1-.4-.1zm-.3-.4h.5s-.1 0-.1.1c-.1 0-.2-.1-.4-.1zm-4.8.4c.2 0 .1.1 0 .1.3.2.6.1.3.2h-.3s-.1 0-.1-.1v-.1l.1-.1zm-.2-.6c-.1 0 0 0 0 0v-.2h.3c0 .2-.2.2-.3.2zM245.7 25s.1.1.2.1c0 0-.1 0-.1.1v.1c-.6-.1-.3.2 0 0 .1.2.5.2.9.2.4.2.4-.3 0-.1 0-.1.4-.2 0-.3 0 .1-.2 0-.4 0 .2 0 .5-.1.7-.1l-.1.2c.3 0 .6-.2.8-.2h.7c.6 0 1.3.1 1.8.2.1 0 .1-.1.2-.1h.3c.7 0 1.5.3 2.2.2.2 0 .3-.2.5-.2.3 0 .6.2 1 .2.1 0 .1 0 .2-.1h.6v-.1c.5.1 1.2.3 1.4 0 .1 0 .2.1.1.2H257v-.1c1.3-.2 1.8.3 2.8-.1-.2.4 1.7-.4 2.1.1.1 0 .2-.2 0-.2 0-.2.4 0 .3.2 1.1 0 3.2-.2 4.2-.1.1 0 .3-.2.1-.2.1-.3.4.1.3.3.8-.3 1.6-.3 2.5-.3-.1.1-.1.1-.1.2 0 0 0 .1.1.1h.1v-.1l.2-.2c.6.1.4-.5.8-.2v.1s0 .1.1.1c0 0 .1 0 .1-.1v-.1c.1.1.3.1.5.1.5.1.7 0 1 .1.2-.1.3-.4.4-.5.2 0 .1.1 0 .2-.1 0-.1 0-.2.1 0 .1 0 .1.2.1-.1 0-.2.1-.2.1-.2.1-.3.2-.5.2-.1 0-.1 0-.2.1h-.1H271.2s-.1 0-.1.1c0 0 0 .1.1.1h.6c0 .1.1.3.2.4h-.1v.2c-.6-.1-1.5-.1-1.8-.4-.2.1.3.6-.4.3-.1 0-.2-.1-.3-.2h-.1s-.1 0 0 .1.2.2.3.2c-.1.3-.3-.1-.6 0v-.1s0-.1-.1-.1c0 0-.1 0-.1.1s.1.1.1.2h-.1c-.2 0-.2-.2-.4-.2h-.1c.1-.1.1-.2.1-.3 0 0 0-.1-.1-.1 0 0-.1 0-.1.1v.1c-.5-.1-.6-.1-.9.1h-.2c-.3 0-.2-.3-.7-.3 0 .2.3.1.3.3-.3-.2-.2 0-.4.1h-.4c-.4 0-.8-.1-.5-.3-.4.1 0 .3-.4.4-.3.1-.6-.3-.7 0-.2 0-.2-.2-.3-.3 0 .2-.2.2-.4.4h-.2v-.2l-1.8-.3c-.2.2-.4.4-.7.5h-.1c-.2 0-.4.1-.7 0h-.1c-.2 0-.5 0-.7.1 0 0-.1 0-.1.1-.1 0-.2.1-.2.1-.1 0-.2.1-.3.1 0-.2-.4.1-.5-.2H258.8l.1-.1s0-.1-.1-.1h-.8c-.1-.1-.3-.2-.5-.2s-.4 0-.6.1c-.1 0-.1-.1-.1-.2-1.1-.1-2.2 0-3.3 0-.2-.1-.5-.1-.7 0-.7 0-1.4-.1-2-.2-.2.3-.5.1-.8.1-.2 0-.4.2-.5.2-.3 0-.4-.3-.8-.3h-1c-.1 0-.3-.1-.5-.1-.1 0-.1.1-.2.1-.4 0-.8 0-1-.2.1 0 .2 0 .3-.1v-.1h-.1c-.1 0-.1 0-.2.1 0 0-.1-.1-.2-.1s-.2.2 0 .2c-.2.2-.6.1-.9 0-.1-.1-.1-.2-.1-.3h.2s.1 0 .1-.1c0 0 0-.1-.1-.1h-.2-.1-1.2c-.1 0-.2 0-.4-.1h-.1v-.1c.5.3 1.7.2 2.7.3zm11.8 1.4c-.4 0-.5.1-.5.3-.2 0-.2-.1-.3-.2.2-.1.6-.2.8-.1zm-7.6.8h-.4-.1c.2 0 .6-.2.5 0zm-3.1.2c-.1.1-.2.1-.3 0h.3zm-.6.5c-.1.5-.2-.3-.6-.2-.1-.1-.1-.1-.1-.2 0 0 0-.1.1-.1 0 0 0 .1.1.1 0 0 .1 0 .1-.1v-.1h.1c.1 0 .2 0 .3.1 0 0 .1.1.2.1-.3.1-.3.3-.2.4zm-2.8-2.2c-.1 0-.1 0 0 0l-.2-.2h1.1c0 .1.1.2.1.3-.6-.1-.5-.1-1-.1zm-.6.1c0-.1 0-.2-.1-.3v-.1h.2c0 .1.1.2.2.3l.1.1h-.1-.3zm.4 1.5l-.1.1h-.1s0-.1-.1-.1h.1c0-.1.1 0 .2 0zm-.8-1.9h.1V25.7c-.1 0-.2.1-.3.1.1-.1.3-.2.2-.4zm1.5-2.8c.1-.1.3-.1.5 0l-.3.3c.1-.3 0-.3-.2-.3zm-.1.1l.1.1h-.1c-.8-.1-.8 0-1.6 0 .5-.3.9-.2 1.6-.1zm-3.3 5.1c-.5-.1.2-.2.1-.3.4.1-.2.2-.1.3zm.7-.7c-.1 0 .4.1.4.1 0 .2-.8.2-.4-.1zm-.2-1.4c-.1 0-.2-.1 0-.1 0-.1-.2-.1-.3 0-.4 0 .2-.2 0-.4.2.1.5.6.4 0 .1 0 .1.1.1.1 0 .2.1.2.3.1.1 0 .1 0 .2.1-.2.2-.5-.1-.7.2zm1-.4c-.2-.1-.3-.1-.4-.1h-.1l-.1-.1c-.3-.3.8-.1 1.1-.1v.2h-.2c-.1 0-.3 0-.3.1zm.5 2.4c.3-.2 0-.3-.3-.4-.3-.2.3 0 .5.1l.1.1h.1c.1 0 .2 0 .2-.1l.2-.2v.1h.3c.3-.2-.2.2-.4.2 0 .2.6.1.7 0h.1c-.4.4-.8.2-1.5.2zm1.8-.1c-.1-.1-.3-.1-.4-.2.2-.2.4.1.7-.1h.1c-.1.1-.1.2-.1.3-.1 0-.1.1-.2.1 0-.1-.1-.1-.1-.1zm.2.2s.1-.1 0 0c.1-.1.2-.1.2-.2v-.1-.1h.5c0 .1.1.2.2.3-.3.1-.5.1-.9.1zm1.8 7.3v.1c-.2.1-.7.1-1.1.1-.1-.3.4-.2.3-.5.4.1.5-.1.8.3V35c.1 0 0 .1 0 .1zm.2-7.6h.4l.1.1-.1.1h-.4c-.1 0-.1-.1 0-.2zm.1 7.8v-.2H246.9v.2h-.3zm.3-7.4c0-.1.1-.2.1-.2l-.1-.1v-.1h.1c.2 0 .2.2.2.4.7-.1-.2-.6.5-.3v.1s0 .1.1.1c0 0 .1 0 .1-.1v-.1c.3.3.7-.2.8.2.1 0 .2-.1.1-.2.2 0 .2.2.4.2s.2-.2.4-.2h.4c.6-.1 1.3.2 1.8-.1.1.4.1-.1.5.1h.1s-.1.1-.1.2c0 0 0 .1.1.1h.1s0-.1.1-.1c.3-.1.2-.1.6 0h.1s-.1.1-.1.2c0 0 0 .1.1.1h.1V28c.8 0 1.4.1 2.7 0v.2c.2 0 .3-.1.5-.1h.1c0 .1-.1.1-.1.2v.1s0 .1.1.1c0 0 .1 0 .1-.1v-.1-.1c.4-.1.5 0 .9 0v.6c-.4-.1-.7-.1-1.2.2.1-.5-.8.4-.8-.2.2 0 .2.1.4.1-.3-.6-.9.4-1.1-.4-.4.2 0 .3-.4.3s.3-.3-.3-.2c-.1.5-1.9-.6-2.2.2-.2-.4-.7-.2-.8-.2-.1 0-.3-.6-.4-.1 0 .1-.2-.3-.5-.4-.4.1.1.2 0 .4-.2-.1-.6-.1-1-.1.3.3-.3 0-.5.3h-.1c.1-.1.2-.2.3-.2h.1s0-.1-.1-.1h-.1c-.2 0-.3.1-.4.2-.4-.2-1.2-.3-1.2 0-.2-.4-.4-.5-.5-.7zm7.6 7.2c.4 0 .5.1.8.2-.1.4-.7.4-1 .7-.2-.1-.3-.2-.4-.3 0-.5.8-.2.6-.6zm-2.3.5c-1 0-2.2.5-2.1-.2-.1-.1-.8.4-.8-.2.8-.3 2.7-.9 2.9.4zm-4.9-.3v-.2-.2c.5-.1.5.3.8.3-.1.2-.6.3-.8.1zm1.2 5.8c.3-.7 1.9-1.3 2.2-.5 0 .9-1.5 1-2.2.5zm6.1-.5c-.3-.1-1 .2-.8-.2.3 0 1-.2.8.2zm6.6 2.7c-1.2.3-2.5.3-4 .1 0-.2-.5-.1-.5-.2.9-1.1 3.8-.3 5-.3-.1.3-.2.4-.5.4zm9.6-1.4c-.2-.3.4-.1.4-.3.2 0 .4 0 .6-.1.3 0 .7 0 1-.1.2.1.4.1.6.1h.3c-.1.9-1.7.2-2.9.4zm6.4 0c-.7-.1-1.7.3-1.4-.5.5-.3 1.4-.2 1.8.1 0 .2-.3.2-.4.4zm14 .4c0-.1 0-.2.1-.2 0-.2-.7.1-.8.2-.2 0-.3-.2-.3-.4-.3.2-1.3-.2-1.8-.1-.2 0-.2.2-.4.2-1.5 0-3-.5-4.4-.5-.5 0-1.3.5-1.2-.1-.4 0-.7 0-.8.2-.3-.2-.2-.3-.1-.5 1-.3 2.2.1 3 .1.1 0 .1-.1.1-.2 1.3-.1 2.5 0 3.8 0h.3c1.1.2 2 0 2.9.7.6-.3 1.5-.5 1.5.3-.7.2-1.1.5-1.9.3zm.8-1.5c-.9-.4-2.2-.3-3.2-.1h-.4c-.8 0-1.6-.1-2.5-.1h-1.5c-2.1-.7-4.4-.2-6.7-.5-.2.1-.4.2-.7.3-1-.1-1.6-.1-2.6-.1-.1.1-.1.5-.1.8-.3 0-.5.1-.5.2-.2-.1-.3-.1-.5 0h-.4c0-.1 0-.1.1-.2v-.2h-.1c-.1 0-.1 0-.1.1-.1.1-.1.2-.1.2-.3.1-.6.1-.9.1-.2 0-.5 0-.7.1-.3-.1-.7-.1-.7-.4.3-.2.8-.1 1-.3.2-.1.4-.1.7-.1.1 0 .1 0 .1-.1 0 0 0-.1-.1-.1h-.2c-.2 0-.4 0-.6.1v-.1c-.2.1-.5-.1-.7-.1-1 0-2.2.3-3.3.4-.3 0-.6-.1-1-.1-2-.1-4.6.6-5.1 0 .1 0 .3-.1.3-.2s0-.1-.1-.2h-.1c-.1 0-.1 0-.1.1 0 0-.1 0-.2.1h-1.1c0-.3-.4-.3-.3-.7-1.9.2-3.3-.4-4.7.4-1.2-.2-1.8-1-3.1-.5 0-.1-.3-.1-.4-.2-1.1.3-2.8.4-3.6-.2.3-.7 1.6.1 2.1-.3.3.1.4.2.7.3.8 0 1.1 0 1.8-.2-.1.3.3.2.5.2s.5-.3.1-.3c1.4-.2 3.4.2 5.1.1 0 .1.2.2.1.4 1.1 0 1.6.3 2.2-.3.5.2.9 0 1.2.1.2 0 0-.1 0-.3h1.2c-.2.5.2.5.4.5.1.4-.3.6-.7 1 .4.4 1.8-.2 2.3-.3.3.1.5.1.8 0 .7-.1.1-.3.1-.5 0-.1.3-.3.3-.3-.1-.3-.7-.2-.4-.5.5-.2 1-.5 1.9-.4 0 .4-.5.5-.7.7 0 .2.4.1.4.3.2-.1.5-.1.5-.3 1.7.2 3.1-.5 4.5 0 .3 0 .6-.1.8-.2.6.1.4.2 1.1.2.2 0 .1-.2.1-.3 1.7-.3 2.3-.1 3.6.1.2-.2-.1-.4-.1-.8.2 0 .2-.1.3-.2.6 0 .7.3 1.4.2 0 .1 0 .3.1.3-.1.1-.1.4-.5.3 1 .5 2.7-.3 3.4.5 1.2-.3 2 0 3.2 0 .5-.2-.4-.3 0-.5.3 0 .3-.1.5-.1-.1.4.3.6 0 .8.4.3 1.3.2 1.8 0 1.6.5 3.3.4 5.6.5-.1.6-.8.7-1.5.9zm3.8-3.1c-.5-.5-1.9.2-2.1-.4.7-.2 1.4.1 2.2-.1 0 .3 0 .4-.1.5zm.1-7.5V30v-.1c.1 0 .1-.1.1-.2.6-.1.8.2 1.4.2-.1.7-.9.5-1.5.3zm1.4-2.6h-.5c.1 0 .1 0 .3-.1 0-.1.6-.3.3-.3.2-.3.2.3.5.2-.1.5-.6-.3-.6.2zm.5 7.3c0-.3.5-.2.7-.1 0 .3-.5.2-.7.1zm-.1-13.6c.6-.3.9-.5 1.5-.3 0-.2.1-.2.2-.2-.2.2-.3.2-.1.5-.4.1-1 .1-1.6 0zm3.6 7.9c-1.1.2-1.2 0-2.3-.1.4-.3 1-.4 1.5-.6.2.2.5.3.8.4v.3zm4.8-5.2l.1.1c0 .1-.3.1-.4-.1h.3zm-.8 2.7c.3-.3.9.1 0 0zM303 21c.4.1.9.2 1.2.4-.7 0-1.4.1-2.1.1.3-.2.7-.3.9-.5zm-.6 7.7l.1.1c-.3.2-.7.7-1 .4 0-.1-.1-.2-.1-.3.3-.1.6-.2 1-.2zm-1 1.7c.2-.8 1.2-.4 1.9-.6h.7c.1.8-1.4.6-2.6.6zm4.6-1.5c-.4.6-1.3.2-1.9.6H303.5c-.3-.2-.3-.5-.7-.6h-.1c0-.1 0-.2-.1-.3.4 0 .6-.2.7-.5.8-.2 1.8-.2 2.2.3.4-.1.7-.1 1.1 0-.3.4 0 .4.1.7-.2 0-.9.2-.7-.2zm.8-2.1c-.2 0-.1-.1 0-.1-.2-.3-.1-.1.3-.1-.1.1-.3.1-.3.2zm1.7-.1h-.4c-.3-.2.3-.2.4 0 0-.1 0 0 0 0zm.5 0v-.1c.4.1-.1.8 0 .1zm1.9-4.5c0 .1-.1.1-.1.1-.1-.1-.1-.2 0-.3 0 .1 0 .1.1.2zm1 .2c-.3 0-.4-.2-.8-.1v-.1c.3-.1.7.2.7 0h.1v.2zm0-.4c.1-.1.5-.3.6-.1h.1c-.3.1-.4.1-.7.1zm1 .4h-.3H312.9zm-.1-.2h-.4c-.1 0-.1.1-.1.1h-.3v-.2c.2 0 .4 0 .6-.1.1 0 .2.1.3.1 0 .1-.1.1-.1.1zm.1-.3c.2-.2.5-.2.8-.1-.1.1-.2.2-.4.2-.1 0-.2-.1-.3-.1 0 .1-.1.1-.1 0zm.2 3.4c0-.1.1-.1.1-.2h.2c0 .1-.1.2-.3.2zm.7-.8h-.2c-.1 0-.1-.1-.2-.2.4.1.5.2.4.2zm.4-3.4h-2.9c.7-.3 1.9-.8 2.9-.4v.4zm20.3-.5c.3.1-.2.2.1.3.1-.3.8-.3 1.2-.4-.3.4.2-.1.1.3.1 0 .1-.1.1-.1.1.2.3.3.4.4h-.1c-.3 0-.3.3-.5.3h-1.2c-.2 0-.4-.1-.6-.2-.1 0-.1.1-.1.1-.5-.1-.7-.3-.7-.6v-.2h.1c-.2.3.8.3.5 0 .3 0 .6.4.7.1zm-.6-.6c0 .2-.4-.1-.7.2h-.1c-.1-.1-.2-.1-.3-.1.4-.1.8-.1 1.1-.1zm-3.6 1.5zm-9.2-.2c.6-.1 2.2 0 3.2-.1 0 0 0 .1.1.1s.1 0 .1-.1c.2 0 .3-.1.5-.1V21c.6 0 .9 0 1.4-.1-.4.4-1 .7-1.7.9-.6-.1-1.2-.2-1.8-.2h-.2c.2.1-.1.1 0 0h-.1c-.1-.1-.3.1-.3.1-.2 0-.9-.3-1.4-.2l.2-.2zm-5.6 1.9l.1.1s-.1 0-.1-.1zm.2 2.2c-.2-.2-.3-.2-.5-.1h-.4c.1-.3.8-.2.9.1zm.5 1.6c-.6-.3-1.3.1-1.5-.3.1 0 .2 0 .2-.1.4.1.8.1 1.2.1.1.1.2.2.1.3zm.2-.1c0-.1-.1-.1-.1-.2h.5c.3 0-.1.2-.4.2zm.4-.4h-.5c.2-.4.7 0 1.2-.1.3.2-.5-.1-.7.1zm2.5-1.7c-.1-.1-.2-.1-.3 0-.1 0-.1-.1-.1-.2h.4v.2zm.5.9c-.1-.5.6-.2 0 0zm1.2-.1h-.2c-.1 0-.2 0 0 0h.2zm7.6-1.9c.1 0 .2.1.1.2 0-.1 0-.2-.1-.2zm2.3 0c-.2 0-.1-.3-.5-.2.3.2.2.3-.1.1 0-.1 0-.2-.1-.3h-.5s-.1.1 0 .1h.5v.1c-.4-.1-.9-.2-1.4-.2h-.5v-.1s0-.1-.1-.1c0 0-.1 0-.1.1v.1h-.4c-.2 0-.3 0-.4-.1 0-.1.1-.1.2-.2l.1-.1v-.1h-.1-.2c-.2.1-.3.3-.2.4h.2c-.3 0-.6.1-.8.2-.6 0-1.1 0-1.1.2-.3 0-.4-.1-.6.1v-.1s0-.1-.1-.1c0 0-.1 0-.1.1s0 .2.1.3h-.1c-.4 0-.3-.4-.5-.5-.6.2-1 .1-1.2.2-.2 0-.1-.1 0-.2-.6.2-1.5.1-1.6-.1-.1.1-.3.2-.4.3-.3-.1.2-.2-.1-.3-.9.3-1-.2-1.2.1-.3-.3-.4-.3-.6-.3.2-.1.7 0 1.1-.1 0-.2.6-.6.2-1 .1 0 .1-.1.2-.1 0 0 0 .1.1.1 0 0 .1 0 .1-.1.3.2 1.1.6 1.6.3.1 0 .2.1.4.1h-.2c0 .4-.1.7.3.9 1.4-.1 1.7.1 3.2.1.2-.2.2-.5-.1-.7.9-.2 1.9-.2 3-.2-.1.1-.3.1-.4.2 1 .1 1.5.4 2.8.3h.3v.4c-.5.2-.6.3-.7.4zm.6-.2zm.1-.1c0-.1 0-.1.1-.2.1.1.2.2.2.3-.1.1-.2 0-.3-.1zm.4-.2h-.2v-.1c.1 0 .2 0 .2.1 0-.1 0-.1 0 0 0-.1 0-.1 0 0zm6.9-.6s-.1 0 0 0h-.3-.1l-.1-.1v.2c-.1 0-.2-.2-.1-.2-.2 0-2.3.3-1.9.3h-.2v-.1c-.4-.2-1.1-.1-1.6-.1-.1 0-.1-.1-.2-.1s-.1 0-.1.1c-.1 0-.1 0-.1-.1-.1.1-.3.2-.5.3v-.2c-.3.3-.2.2-.8.3-.2-.1-.4-.2-.6-.2-.1 0-.2 0-.2.1h-.4s0 .1-.1.1H331.3h.1c.9-.6 1.8-.6 3.3-.5l-.1.1c.2 0 .4 0 .7-.1h.4l.1-.1c.4-.1.8-.1 1-.3.4.1.9.1 1.6.1h.2c.2.2.7.1 1 .2-.3.3-.5.3-.7.3zm15.6 17.2c.3-.3.6.4 0 0zm34.8-2.7c-.2-.2-1 0-1-.4.6 0 1.2-.1 1 .4zm-7.1-2.7c0 .2-.3.2-.7.2.2-.3.3-.3.7-.2zm-8.8-.3s.1 0 .1.1c.1 0 .1 0 .2-.1 1 0 1.9.1 2.8.2v.2c.1 0 .1.1.2.1-.9.3-2.1.1-3-.1-.6 0-1 .2-1.1-.3.2-.1.5-.1.8-.1zm1.4 1.7c-.1.4-1.3.4-1.5.1.2-.5 1.1-.3 1.5-.1zm-1.4 1.3c-.6.1-.6-.2-1.1-.2.2-.4 1.1-.1 1.1.2zM371 37h-.4c0-.1-.2-.1-.1-.3.2.1.5.1.5.3zm-1-2.1v.1c.1.1.2.1.3.2-.3.2-1.4.2-1.4-.2.1-.3.7-.2 1.1-.1zm-.3 2.2c-.6.1-1.2.1-2.1 0 0-.1-.1-.1-.1-.2.7-.3 2.1-.6 2.2.2zm-3.1-.5c.4-.1.4.1.7.1v.1c0 .1 0 .1.1.2h-.3-.1c-.2-.1-.6-.1-.4-.4zm-1.9-8.5c.1-.3.4 0 .3.2-.4.1-.4-.1-.7-.1.1-.3.3.1.5 0 .1-.1 0-.1-.1-.1zm.3-.7h-.2c-.2 0-.4-.1-.5-.1 0-.1-.1-.1 0-.2.3 0 .6 0 .7.3zm-5.2-4.3h.3v.2h-.3v-.2zm13.8 14.7c-.5.2-1.1.2-1.6.1-.8.4-3 .5-4 .1-2-.1-4.2.5-5.3-.5h.3c.4.1.9.1 1.3-.1.1 0 .1-.1 0-.1h-.1-.1c-.3.2-.7.1-1 .1h-.2v-.1c-.9-.1-1.8-.1-2.6.2-.6-.6-1.7-.5-2.6-.7 1.3.1 2.9-.5 4.4-.1.4.1.3-.3.5-.3.6 0 1 .1 1.2.3.5 0 .5-.4 1-.4.4.2.8.4 1.2.5v.6c.3 0 .6.2.9 0h.5v.1h.1v-.1c.9.1 1.7.2 2.3 0 .4.1.4-.1.7-.1h.3c.1 0 .2 0 .3-.1v.1c.7.5 1.6.6 2.5.5zm5.9 0c-.2.1-.3.3-.7.3 0 .3.6.3.4.7-.2 0-.2.1-.4.1h-.4-.1-.1c-.1-.1-.3-.2-.5-.3.1-.4.4-.5.1-.8-1.4 0-2.5.3-4 .1v-.2c.2-.2.7-.2.8-.4.6.2 1.2.2 1.7.2.4 0 .8 0 1.2.1h.1l.1-.1v-.2h-.2c-.4-.1-.8-.1-1.1-.1-.6 0-1.1 0-1.6-.2 0-.1-.1-.1-.3-.1 1.1-.6 2.7 0 3.8-.3 0 .2.4.2.5.3 0 .1.1.1.2.2h.1c0 .1.1.2.2.3 0 .1.1.1.1.1.1.2.1.3.1.3zm.2-.2c-.1 0-.1-.1-.2-.2.2 0 .2-.2.4-.2-.1-.2-.4-.2-.6-.3 0 0 0-.1-.1-.1v-.2c.8-.1 1.1.2 1.6.4l.2.2v.1c0 .6-.6.4-1.3.3zm1.3.7c.3-.4.5.3 0 0zm3.8-1.1c-.8.5-2.9 1.1-3.3 0l-.3-.3h-.1c.4-.5 1.5-.2 1.5.4.6-.3 1.7-.4 2.2-.1zm-.9-2.7c.4-.1.3.2.5.2 0 .2-.6 0-.5-.2zm16.6-3.4c.1-.9.1-.9-.3-1.3 0 .9-1 .3-.6 1.3-.5-.2-1.3-.1-1.5 0-.1-.1-.1-.2-.2-.3.3 0 .6 0 .7-.2-.3 0-.5 0-.5-.2.6.1.7-.2 1.2-.1.3-.3-.2-.6.3-.8h.6l.1.1c.3.3 1 1 .2 1.5zm5.8 5.7c-.4-.2-.4.2-.6.4-.1 0-.3-.1-.4-.1 0-.2-.5-.6-.4-.2-.1 0-.1 0-.2-.1h-.1c-.2-.3-.7-.7-.8-.5-.2 0-.1-.2 0-.4.1.1.1.1.2 0v-.3c-.1-.1-.1-.1-.2-.1h-.1v-.1c.1-.6 1.9-.4 2.9 0-.1.3-.3.6-.3 1.4zm28.8 4.4c-.5-.7-.8-.4-1.7-.4 0-.4-.1-.7-.3-.9.7-.4 1.2.1 2.1 0 .1.4.3.6.3 1.3h-.4zm3.1.7h-.5c-.5 0-.9 0-1.3-.2.4-1 .5-1.4 1.7-1.3 0 .6.4 1.1.1 1.5zm54.7 5.1c-.3.6-1.2.3-1.6.9 0-.6-.8.2-.6-.6-3.4-.1-7.1-.6-11.5-1.4 0-.7.6-.5.6-1.1 1.3.6 2.7-.1 3.8 0 .2 0 .5.4.7.4 1 .1 2.4-.1 4.1.5.8-1.6 3.7-1.9 4.4-.2-.2.6-.9.4-.9 1.3 1.1-.2.3.6 1 .2zm2.5-.6v.3c-.1.1-.2.2-.2.3 0 .6-.2-.3-.6 0 .1-.6.6-.4.8-.6zm-.9 3.2c0-.1 0-.2-.1-.2.2-.2.4-.3.7-.2 0 .3 0 .6.1.6-.1.7-.4-.2-.7-.2zm2.3-2.6c-.7-.2-.8-.1-1.4.2.1-.1.1-.2.2-.2h.1v-.1c0-.2 0-.4-.1-.8h.1c.3 0 .3.2.1.4.4.2.2-.7.7-.4-.1.3-.2.4 0 .6.1 0 .2-.2.1-.4.2.1.2.4.2.7zm15.2 5.5c-1 .4-1.7.3-2.4.8v.1c-.4-.1-.8-.2-1.2-.2-.3 0-.6 0-.8.1v-.1c-.5-.2-.9-.8-1.4-.4 0-1.4 1.2-.9 1.3-2.2.6-.1 1.2.1 1.8.3.6.2 1.2.4 1.9.4h.4c-.2.9.5.4.4 1.2zm4.4-2.2c-1.7.2-3.9-.8-5.3.4-.6.1-1.2-.1-1.8-.3-.5-.2-1.1-.4-1.6-.4h-.4c-1.9-.3-3.5-.4-4.8-1.1v-1.1c1.7.1 3.4 0 3.2-2.8.6-.5 1.1.3 1.1 1.3 1.1.1 2.4.8 3.7.5.6 1.1 1 2.7 2.4 2 0-1.2.4-.4.6-1.7.9-.6 1.4-.9 2 .2.8-.3.9.1 1.4.7.2 1.3-.5 1.3-.5 2.3zm115.2-1.2c-.1-.1-.3-.1-.5-.1-.1-.2.8-.2.5.1zm5.2-.4c-.1 0-.2.1-.1.2-.2 0-.2-.6.1-.4h.1c0 .1-.1.1-.1.2zm1.5.1c-.6-.4-.5 0-1.3-.1v-.1c.9.1 2-.8 3 0-.4.3-1.3-.5-1.7.2zm63-19.9c-.1 0-.2.1-.3.1v-.1h-.3s.1 0 .1-.1c.3 0 .4 0 .5.1zm-1.7-.1c.2 0 .2.1.3 0v-.1h.4c.1 0 .2.1.3.1-.3.1-.5 0-1 .2v-.1-.1zm-.3 0c.1 0 .1.1.1.1s-.1.1-.2.1l-.1-.1c0-.1.1-.2.2-.1zm-1.4.2c0 .2-.2.1-.3 0 .1-.1.2-.1.4-.1-.1 0-.3 0-.1.1zm.5-.5c-.1-.1-.3-.1-.4-.2.2 0 .5.1.4.2zm.5.5c.1 0 .1.1.2.1-.7.1-.8-.3-.2-.1zm.4 3.5c-.2-.1 0-.2 0-.3.2 0 0 .2 0 .3zm.3-1.2c-.1 0-.1 0 0 0-.1 0-.1 0 0 0-.1 0-.1 0 0 0v.1c-.4.1-.2-.3-.5-.3.1-.3.2.2.5.1v.1zm.9.1c-.2-.2-.3.1-.4-.1-.1 0-.2.1-.3.1v-.1c.3-.1.2 0 .6-.1 0 .1 0 .2.1.2zm-.2-2.8c-.1 0-.2-.1-.4-.1h-.2v-.1c.2-.3.7.1 1 .1-.4-.2.2-.4.1 0-.1 0-.1 0-.1.1-.1.1-.2.1-.4 0zm.8 2.8c-.1 0-.2-.1-.3-.1 0 0 0-.1-.1-.1.1 0 .1-.1.2-.1.1.1.1.2.2.3zm.4-.3c-.1 0-.2 0-.1.1-.1-.1-.1-.1-.1-.2s.1-.1.3-.1c-.1 0-.1.1-.1.2zm.1-1.9c-.1 0-.3-.1-.4-.2h.2v.1h.1c.1 0 .2 0 .1.1zm.7 0c-.2 0-.1-.3-.5-.2l-.1-.1c.4 0 .4-.2.4-.4 0 .3.7.4.2.7zm49.4 10c1.1.4 1.8-.2 2.6.1-.1.8-2.3.5-2.7.4-.1-.2.2-.2.1-.5zm2.4 2.5c-.5.5-1.6.2-2.3.3-1.8.1-2.6-.4-4.5-.3h-.1c.1-.1.1-.2.1-.2 2.2-.2 5-.3 6.8.2zm-2.9-8.1c0 .3-.6.2-.8.1 0-.2.5 0 .8-.1zm-.2 3.5c.2.2-.1.2.3.4-.7.6.2 1.2-.7 1.6 0 .2.5.1.4.3.2.8-1.7.6-2.6.4-.2 0-.8-.3-.4-.5-.3 0-.4.2-.7 0 0-.3.6-.2.4-.7.5-.1 1.1-.3 1.6-.4-.1-.1-.2-.2 0-.2 0-.1-.4 0-.4-.2 0-.8 1.3-.6 2.1-.7zm-2.6-3.3c0 .7-1.3.1-1.5.5-.2 0-.1-.2-.1-.3.7-.1.8-.5 1.6-.2zm-2-5.2c0 .1 0 .1-.1.1 0 .1.1.1.1.1-.2.3-.4-.2 0-.2zm-1.4 7c.5-.2 1-.6 1.2.1.4 0 .6-.4 1-.4.3.1 0 .6.5.5 0 .5-.7.5-1 .7-.1-.3-.4-.1-1-.1-.3 0-.6-.2-.8-.2-.2 0-.2.2-.4.2-.5.1-1.3-.2-1.8-.1-.6.1-1 .4-1.6.4-.1-.1-.4-.2-.5-.3-.4.4-1.7.4-2.2.4-.1-.4-.6-.5-1-.7.7-.5 1.8-.3 2.6-.6 0 .2.5.1.5.3 1-.2 2.4-.6 3.6-.5.3 0 .9 0 .9.3zm2.1 5.8v.1h-.4l-.1-.1c.2-.1.3-.1.5 0zm-.6.2c-.3 0-.5 0-.5-.2h.3c0 .1 0 .1.1.1l.1.1zm-1.9 0s0-.1 0 0c.4-.2.7-.3.9-.1 0 .2-.8.7-1 .2l.1-.1zm-.2-.1s0 .1-.1.1c-.3.2-.7.3-.8-.2.4.1.3-.3.7-.2 0 .1 0 .1.1.1h.1c.1.1 0 .2 0 .2zm-1.6-7.5c.1.1.2.2.3.2-.3 0-.3.1-.6-.1.1 0 .2 0 .3-.1zm-4.4.1h.2v.2c.9-.1 2.1-.3 3-.1-.6.4-2.1.1-3.4.2.1-.1.1-.2.2-.3zm-.8.2c-.3.4-1.4.2-1.8.5-.2-.2-.8-.1-1.2-.1-.7.3-1.6.2-1.9-.3 1.5-.3 3.1 0 4.9-.1zm-5.2-3.1c.4.1-.3.2-.3.3-.5-.1.3-.1.3-.3zm-2.2.3c0 .1 0 0 0 0zm.4 2.9c-.1.6-2 .4-2.6.3.3-.7 1.7-.5 2.6-.3zm-.4 2.3c-.6 0-1.2.2-1.6.1 0-.2.2-.4.3-.6.6 0 1.4-.1 1.3.5zm-1.2 2.1c.9-.1 1.7.3 2.2-.2.5-.1.3.4.7.4.5 0 .5-.3.8-.4 1.3.5 1.6-.4 2.9-.2.2.3.3.3.1.6 1.5 0 2.5-.5 4-.6-.1-.2-.3-.3-.3-.6 1.2-.4 1.5.7 2.5.7 0 .5-.5.3-.8.4 0 0-.1 0-.1-.1h-.1c-.1 0-.1 0-.2.1s-.1.2 0 .2c.1.1.2.1.2.1-.9.2-1.8.6-2.6 0-.5.7-1.8.2-2.6.7-.3 0-.3-.3-.1-.4-.4.1-.9.1-1 .4-1.4-.2-1.7.4-2.7-.2 0-.2.2-.2.1-.4-1.7 0-2.6.8-4.7.7.6-.2.2-.4 0-.7.1 0 .2 0 .3-.1.4.1 1.3-.1 1.4-.4zm-.9 4.6h-.4s0-.1-.1-.1c-.1-.1.6-.1.5.1zm-.5-4.5c-.2 0-.2.1-.3.1-.2 0-.1-.5.3-.4v.3zm0-6.8c-.4-.1-.9-.2-1.4.1-.3-.5-.6.3-1 0h-.1c.1-.1.3-.3.2-.5h1.1c.4.2.8.3 1.2.4zm-4.3 6.6c.3 0 .2-.3.6-.2.1.3-.2.4-.6.4v-.1-.1zm-.6-6.6c0-.1.1-.2.1-.3 0-.1-.1-.1-.1-.1-.1 0-.1 0-.1.1 0 0 0 .1-.1.1s-.2.1-.2.2c-.4-.3-1 0-1.2.2-.2-.1-.3-.1-.4-.2-.2 0-.2.3-.3.1h-.1c.1-.1.1-.3.1-.4v-.2c1-.4 2 0 3 0v.1h-.1s-.1 0 0 .1h.2v-.1c.2 0 .2-.1.4-.1 0 .1-.1.1-.1.2.9-.2.8 0 1.5.1 0 .1 0 .2-.1.3-.1-.1-.5-.2-.4.1-.2 0-.2-.1-.3-.2 0 .2-1.2-.3-1.8 0zm.4 6.8c-.1 0-.4.1-.9.2-.8-.4.3-.6.9-.2-.1-.1-.1 0 0 0zm-3.6.3c-.3-.5 1-1.1 1.6-.6 0 .6-1.4.1-1.6.6zm1 .7c-.2 0-.3-.1-.3-.3.2.1.3.2.3.3zm.6-9.5c.1 0 .2-.1.3-.1 0 0 .1 0 .1-.1 0 0 0 .1.1.1 0 .1-.2.1-.5.1zm.8-.3c.1-.1.3-.1.5-.1 0 .1 0 .2.1.2h-.1c-.1 0-.2 0-.1-.1-.1 0-.2.1-.1.2-.1 0-.2-.1-.3-.1v-.1zm.7-.1H723.9c-.2.1-.8.1-1.3 0zm0 .2zm3.3 10.1c-.5.5-1.6.6-2.5.4.5-.6 1.8-.5 2.5-.4zm.6-11.4c-.5.2-.9 0-1.3-.1.4 0 .8 0 1.2-.1 0 .1 0 .2.1.2zm-1.9-2.6c.1 0 .2.1.2.1.1 0 .1 0 .2.1h-.4-.1c0-.1 0-.1.1-.2zm.3.6h.2v.1c-.5.2-1.7.1-2.1 0 .2-.1.3-.2.6-.2.1.1.3.2.6.2.1 0 .2 0 .2-.1h.5zm.1-.7s-.1 0 0 0l-.1-.1c.1 0 .1 0 .1.1.1-.1.1-.1.2-.1v.2c-.1 0-.1-.1-.2-.1zm.3.8c.1 0 .1 0 0 0v-.2c.1 0 .1.1.1.2h-.1zm-1.1-2.6v.1c-.2 0-.3-.1-.6-.1.1-.3.4 0 .6 0zm-.8-.1c0 .1 0 .2.1.2h-.1c-.2.1-.8-.1-.8.1-.3-.4.6-.2.8-.3zm-3.6 1.2c.3 0 .6-.1.8-.2.3 0 .7 0 .9-.2.1.3 2.2.2 2.9.1.1.2.5.2.9.2h0c-.1.2-.1.3-.1.4h-.4c-.4.1-.5 0-1 0 .3.3-.3.1-.8.2.1-.2.2-.3.3-.4-.3 0-.5-.3-1 0v.1c-.1-.1-.3-.1-.4-.1h-.2l-.1.1c-.1 0-.2.1-.5.1 0-.1.2-.2.1-.4-.4.1-.3.1-.5-.1-.2 0-.1.3-.4.2 0-.1.1-.1.1-.2-.2 0-.3 0-.3.2-.1.2-.1.1-.3 0zm2.2 1c.2 0 .1.1 0 .1.4.2.7.1.1.3-.1-.1-.1-.2-.4-.2.1-.1.3-.1.3-.2zm-.3-.5s0-.1 0 0c0-.1.1-.1.1-.2h.3c0 .1-.2.1-.4.2zm-.9.6h-.2c-.3 0-.4.3-.5 0 .1-.1.2-.1.3-.2.1 0 .1.2.2.2h.2zm-.5-.3c0 .1-.2.2-.3.2h-.4v-.1c.4-.1.3 0 .7-.1zm-1.1.1v.4h-.1l-.6-.3c.2-.1.5-.1.7-.1zm-2.1.3s-.1 0-.1.1c0 0 0-.1.1-.1l-.1-.1.1.1zm-.3-1.7c.1 0 .1 0 .2.1-.1 0-.1.1-.2.1.1 0 .1-.1 0-.2zm-.1.3h-.1.1zm.2.2c-.1.1-.2.1-.3 0h.3zm0 1c0 .1 0 .1-.1.2-.3.3-.2-.5.1-.2zm-.3 0c-.1.1-.2.2 0 .2 0 .3-.6-.3-.7.1-.1-.4-.1.1-.5-.1.2-.7.5 0 1.2-.2zm-.4-1.4v.2c-.1 0-.1 0-.1-.1-.1 0-.2.1-.3.2-.1 0-.2 0-.2.1-.1 0-.2-.1 0-.1 0-.4-.5.2-.4-.1-.2 0 .8-.2 1-.2zm-2 .1h.3v.2h-.4c.1 0 .1-.1.1-.2zm-.4-.1c.1 0 .2.1.3.2v.1c-.2.1-.3-.1-.3.1h-.1c0-.2 0-.3.1-.4zm-.4 1c.4.4.3.1 1.2.2l-.2.2h-.4c-.2 0-.4-.1-.7.1-.3 0 .2-.3.1-.5zm-1.8.3s.1.1.2.1c0 .1-.2.1-.3.1 0-.1 0-.2.1-.2zm-2 .1c-.5-.2.7-.2 0 0zm-3.2-.4c.1-.2.9 0 .8.2-.3-.2-.2 0-.5 0 0-.2-.1-.2-.3-.2 0 .1 0 0 0 0zm-.5.1h.3l.1.1h-.5l.1-.1zm2.3 2.4s.2.2.3.2c.4 0 .8-.1 1.1-.1l-.1.2c.3 0 .6-.2.8-.2 1-.1 2.2 0 3 0 .7 0 1.5.3 2.2.2.2 0 .3-.2.5-.2.3 0 .6.2 1 .2.2 0 .2-.2.3-.2.1 0 .4 0 .7.1h-.1c-.2 0-.3 0-.4-.1h-.2c-.1 0 0 .1 0 .1.2.1.3.1.5.1.2.2 1.7.3 1.5-.2h-.1s.1 0 .1-.1c.1 0 .2.1.1.2 1.5-.4 2.1.3 3.2-.2-.2.4 1.7-.4 2.1.1.1 0 .2-.2 0-.2 0-.2.4 0 .3.2-.2.3 0 .6.5.8h-2.1c-.2 0-.4.1-.7 0h-.1c-.2 0-.5 0-.7.1 0 0-.1 0-.1.1-.1 0-.2.1-.2.1-.1 0-.2.1-.3.1 0-.2-.4.1-.5-.2H721.4l.1-.1s0-.1-.1-.1h-.8c-.1-.1-.3-.2-.5-.2s-.4 0-.6.1c-.1 0-.1-.1-.1-.2-2-.1-4.2.1-6-.2-.2.3-.5.1-.8.1-.2 0-.4.2-.5.2-.3 0-.4-.3-.8-.3h-.8l.1-.1h.1c.1 0 .1 0 .1-.1 0 0-.1-.1-.2-.1h-.2c-.1 0-.1.1-.2.1h-.1c-.6 0-1.2 0-1.5-.2.1 0 .2 0 .3-.1v-.1h-.1c-.1 0-.1 0-.2.1 0 0-.1-.1-.2-.1s-.2.2 0 .2c-.2.2-.6.1-.9 0-.5.5-.5.4-.5.4h.2s.1 0 .1-.1c0 0 0-.1-.1-.1h-.2-.1-1.2-.4v-.1c.7-.1 1.9-.3 2.9-.1zM720 30c-.4 0-.5.1-.5.3-.2 0-.2-.1-.3-.2.2-.1.6-.3.8-.1zm-7.6.8h-.4-.1c.2-.1.6-.3.5 0zm-3.1.1v.1h-.3v-.1c0-.1.1-.1.3 0zm-.6.5c-.1.5-.2-.3-.6-.2-.1-.1-.1-.1-.1-.2 0 0 0-.1.1-.1 0 0 0 .1.1.1 0 0 .1 0 .1-.1v-.1c.3-.2.3 0 .5.1-.2.3-.2.4-.1.5zm-2.8-2.1c-.1-.1-.1-.1 0 0l-.2-.2h1.1c0 .1.1.2.1.3-.6-.2-.5-.2-1-.1zm-.3.1v-.1c.1-.1.1 0 0 .1h.2-.1-.1zm.1 1.5l-.1.1h-.1s0-.1-.1-.1h.1c0-.1.1-.1.2 0zm-2.7.5c-.5-.1.2-.2.1-.3.4 0-.2.1-.1.3zm.7-.7c-.1 0 .4.1.4.1 0 .1-.8.1-.4-.1zm-.2-1.5c-.1 0-.2-.1 0-.1 0-.1-.2-.1-.3 0-.4 0 .2-.2 0-.4.2.1.5.6.4 0 .1 0 .1.1.1.1 0 .2.1.2.3.1v.1c-.1.1-.4 0-.5.2zm.6-.5c-.1 0-.1 0 0 0-.1 0-.1.1 0 0h-.1l-.1-.1c-.3-.3.8-.1 1.1-.1v.2c-.2 0-.3 0-.7.1-.1 0-.2-.1-.2-.1zm.9 2.6c.3-.2 0-.3-.3-.4-.3-.2.3 0 .5.1l.1.1h.1c.1 0 .2 0 .2-.1l.2-.2v.1h.3c.3-.2-.2.2-.4.2 0 .2.6.1.7 0h.1c-.4.4-.8.2-1.5.2zm1.8-.2c-.1-.1-.3-.1-.4-.2.2-.2.4.1.7-.1h.1c-.1.1-.1.2-.1.3-.1 0-.1.1-.2.1 0 0-.1 0-.1-.1zm.2.2s.1 0 0 0c.1-.1.2-.1.2-.2V31v-.1h.5c0 .1.1.2.2.3-.3.1-.5.1-.9.1zm1.8 7.3v.1c-.2.1-.7.1-1.1.1-.1-.3.4-.2.3-.5.4.2.5 0 .8.3v-.1c.1.1 0 .1 0 .1zm.2-7.5h.4l.1.1-.1.1h-.4c-.1-.1-.1-.1 0-.2zm.1 7.8v-.2H709.4v.2h-.3zm.3-7.5c0-.1.1-.2.1-.2l-.1-.1V31c.2 0 .3.2.3.4.7-.1-.2-.6.5-.3v.1s0 .1.1.1c0 0 .1 0 .1-.1v-.1c.3.3.7-.2.8.2.1 0 .2-.1.1-.2.2 0 .2.2.4.2s.2-.2.4-.2h.4c.6-.1 1.3.2 1.8-.1.1.4.1-.1.5.1h.1s-.1.1-.1.2c0 0 0 .1.1.1h.1s0-.1.1-.1c.3-.1.2-.1.6 0h.1s-.1.1-.1.2c0 0 0 .1.1.1h.1v-.1c.8 0 1.4.1 2.7 0v.2c.2 0 .3-.1.5-.1h.1c0 .1-.1.1-.1.2v.1s0 .1.1.1c0 0 .1 0 .1-.1v-.1-.1c.4-.1.5 0 .9 0v.6c-.4-.1-.7-.1-1.2.2.1-.5-.8.4-.8-.2.2 0 .2.1.4.1-.3-.6-.9.4-1.1-.4-.4.2 0 .3-.4.3s.3-.3-.3-.2c-.1.5-1.9-.6-2.2.2-.2-.4-.7-.2-.8-.2-.1 0-.3-.6-.4-.1 0 .1-.2-.3-.5-.4-.4.1.1.2 0 .4-.2-.1-.6-.1-1-.1.3.3-.3 0-.5.3h-.1c.1-.1.2-.2.3-.2h.1s0-.1-.1-.1h-.1c-.2 0-.3.1-.4.2-.4-.2-1.2-.3-1.2 0-.2-.4-.4-.5-.5-.7zm7.6 7.2c.4 0 .5.1.8.2-.1.4-.7.4-1 .7-.2-.1-.3-.2-.4-.3 0-.4.7-.2.6-.6zm-2.3.5c-1 0-2.2.5-2.1-.2-.1-.1-.8.4-.8-.2.8-.3 2.7-.9 2.9.4zm-4.9-.2c0-.1 0-.1 0 0v-.2-.2c.5-.1.5.3.8.3-.1.2-.6.2-.8.1zm1.2 5.8c.3-.7 1.9-1.3 2.2-.5 0 .8-1.5.9-2.2.5zm6.1-.6c-.3-.1-1 .2-.8-.2.3.1 1-.2.8.2zm6.6 2.8c-1.2.3-2.5.3-4 .1 0-.2-.5-.1-.5-.2.9-1.1 3.8-.3 5-.3-.1.2-.2.3-.5.4zm9.6-1.5c-.2-.3.4-.1.4-.3.2 0 .4 0 .6-.1.3 0 .7 0 1-.1.2.1.4.1.6.1h.3c-.1.9-1.7.2-2.9.4zm6.4.1c-.7-.1-1.7.3-1.4-.5.5-.3 1.4-.2 1.8.1 0 .2-.3.1-.4.4zm14 .3c0-.1 0-.2.1-.2 0-.2-.7.1-.8.2-.2 0-.3-.2-.3-.4-.3.2-1.3-.2-1.8-.1-.2 0-.2.2-.4.2-1.5 0-3-.5-4.4-.5-.5 0-1.3.5-1.2-.1-.4 0-.7 0-.8.2-.3-.2-.2-.3-.1-.5 1-.3 2.2.1 3 .1.1 0 .1-.1.1-.2 1.3-.1 2.5 0 3.8 0h.3c1.1.2 2 0 2.9.7.6-.3 1.5-.5 1.5.3-.7.3-1.1.5-1.9.3zm.8-1.5c-.9-.4-2.2-.3-3.2-.1h-.4c-.8 0-1.6-.1-2.5-.1h-1.5c-2.1-.7-4.4-.2-6.7-.5-.2.1-.4.2-.7.3-1-.1-1.6-.1-2.6-.1-.1.1-.1.5-.1.8-.3 0-.5.1-.5.2-.2-.1-.3-.1-.5 0h-.4c0-.1 0-.1.1-.2v-.2h-.1c-.1 0-.1 0-.1.1-.1.1-.1.2-.1.2-.3.1-.6.1-.9.1-.2 0-.5 0-.7.1-.3-.1-.7-.1-.7-.4.3-.2.8-.1 1-.3.2-.1.4-.1.7-.1.1 0 .1 0 .1-.1 0 0 0-.1-.1-.1h-.2c-.2 0-.4 0-.6.1v-.1c-.2.1-.5-.1-.7-.1-1 0-2.2.3-3.3.4-.3 0-.6-.1-1-.1-2-.1-4.6.6-5.1 0 .1 0 .3-.1.3-.2s0-.1-.1-.2h-.1c-.1 0-.1 0-.1.1 0 0-.1 0-.2.1h-1.1c0-.3-.4-.3-.3-.7-1.9.2-3.3-.4-4.7.4-1.2-.2-1.8-1-3.1-.5 0-.1-.3-.1-.4-.2-1.1.3-2.8.4-3.6-.2.3-.7 1.6.1 2.1-.3.3.1.4.2.7.3.8 0 1.1 0 1.8-.2-.1.3.3.2.5.2s.5-.3.1-.3c1.4-.2 3.4.2 5.1.1 0 .1.2.2.1.4 1.1 0 1.6.3 2.2-.3.5.2.9 0 1.2.1.2 0 0-.1 0-.3h1.2c-.2.5.2.5.4.5.1.4-.3.6-.7 1 .4.4 1.8-.2 2.3-.3.3.1.5.1.8 0 .7-.1.1-.3.1-.5 0-.1.3-.3.3-.3-.1-.3-.7-.2-.4-.5.5-.2 1-.5 1.9-.4 0 .4-.5.5-.7.7 0 .2.4.1.4.3.2-.1.5-.1.5-.3 1.7.2 3.1-.5 4.5 0 .3 0 .6-.1.8-.2.6.1.4.2 1.1.2.2 0 .1-.2.1-.3 1.7-.3 2.3-.1 3.6.1.2-.2-.1-.4-.1-.8.2 0 .2-.1.3-.2.6 0 .7.3 1.4.2 0 .1 0 .3.1.3-.1.1-.1.4-.5.3 1 .5 2.7-.3 3.4.5 1.2-.3 2 0 3.2 0 .5-.2-.4-.3 0-.5.3 0 .3-.1.5-.1-.1.4.3.6 0 .8.4.3 1.3.2 1.8 0 1.6.5 3.3.4 5.6.5-.1.7-.8.7-1.5.9zm3.8-3c-.5-.5-1.9.2-2.1-.4.7-.2 1.4.1 2.2-.1 0 .2 0 .4-.1.5zm2-2.9c0-.3.5-.2.7-.1 0 .3-.5.3-.7.1zm56.7 5c.3-.4.6.3 0 0zm13.5-3.2h.7c.2.2.4.3.7.4-.5 0-1 0-1.6-.1 0-.1-.1-.1-.1-.2 0 0 .1 0 .3-.1zm-1 0c.1 0 .1.1.3 0v.1c0 .1 0 .1.1.2h-.3-.1c-.1-.1-.3-.1-.3-.3h.3zm4.9 1.2c-.8.4-3 .5-4 .1-2-.1-4.2.5-5.3-.5h.3c.4.1.9.1 1.3-.1.1 0 .1-.1 0-.1h-.1-.1c-.3.2-.7.1-1 .1h-.2v-.1c-.9-.1-1.8-.1-2.6.2-.6-.6-1.7-.5-2.6-.7 1.3.1 2.9-.5 4.4-.1.4.1.3-.3.5-.3.6 0 1 .1 1.2.3h.2c.6.1 1.2.2 2 .2v.6c.3 0 .6.2.9 0h.5v.1h.1V41c.9.1 1.7.2 2.3 0 .4.1.4-.1.7-.1h.2c.2 0 .4 0 .6.1.6.4 1.3.5 2 .4.1 0 .1.1.2.1h.1c-.4 0-1 0-1.6-.1zm1.9 0c.4 0 .8 0 1.3.1-.4 0-.8 0-1.3-.1zm5.4 1c-.2 0-.2.1-.4.1h-.4-.1-.1c-.1-.1-.3-.2-.5-.3 0-.2.1-.3.2-.5h.9c0 .3.5.3.4.7zm1.8-.6c.3-.3.5.4 0 0zm8.3-1.2c-.2-.2-1 0-1-.4.6 0 1.2-.1 1 .4zm-5.6 0c.4 0 .8 0 1.1.1l-.6.3c-.2-.1-.3-.3-.5-.4zm36.7-4.3c.1 0 .2.1.3.2-.5 0-1 .1-1.2-.1.3-.1.6-.1.9-.1zm9.3 2.3c-.3.6-1.2.3-1.6.9 0-.6-.8.2-.6-.6-3.4-.1-7.1-.6-11.5-1.4 0-.7.6-.5.6-1.1.1.1.3.1.4.1-.2.1-.3.3-.1.4.8.3 3.1.2 4.5.4.3-.2.3-.3.2-.5.6 0 1.2 0 1.9.1 0 .2.1.2.5.2.1-.2-.3-.2-.4-.2.5.1 1.1.2 1.7.3.1-.2.3-.4.5-.6.7 0 1.3 0 2.1-.3.8 0 1.2.2 1.6.4.1.1.2.2.2.3-.2.6-.9.4-.9 1.3.9-.2.1.7.9.3zm1.6 2.6c0-.1 0-.2-.1-.2.2-.2.4-.3.7-.2 0 .3 0 .6.1.6-.2.7-.5-.2-.7-.2zm.1-2.9c.1-.3.6-.2.8-.4v.1c-.2.2-.4.3-.8.3zm1-.4c0-.1 0-.2-.1-.3h.2c0 .2-.1.3-.1.3zm.8-.1h-.3c.1-.2.2-.2.3 0 .1-.1 0-.1 0 0zm17 .9c.9-.6 1.4-.9 2 .2.4-.2.7-.1.9.1h-.4c-.2 0-.5 0-.7.1-.7 0-.9-.2-1.3-.2-.2 0-.3 0-.5.1v-.3zm-7.8-1.7h.3c.3 0 0-.4.3-.4.3.2.5.7.6 1.4h.2-.3c-.4.4.3.4 0 .9h-1.1c-.1-.1-.2-.2-.4-.2.3-.4.4-.9.4-1.7zm6.4 7.1c-1 .4-1.7.3-2.4.8v.1c-.4-.1-.8-.2-1.2-.2-.3 0-.6 0-.8.1v-.1c-.5-.2-.9-.8-1.4-.4 0-1.4 1.2-.9 1.3-2.2.6-.1 1.2.1 1.8.3.6.2 1.2.4 1.9.4h.4c-.2.9.5.4.4 1.2zm4.4-2.2c-1.7.2-3.9-.8-5.3.4-.6.1-1.2-.1-1.8-.3-.5-.2-1.1-.4-1.6-.4h-.4c-1.9-.3-3.5-.4-4.8-1.1v-1.1c.9.1 1.9.1 2.5-.5h.6v-.1c.2.1.5.1.7.1h.6c.8.1 1 .1 1.8.1.3-.2.4-.5.7-.7.4.1.8.1 1.3-.1.6 1.1 1 2.7 2.4 2 0-1 .3-.6.5-1.2.7.2 1.2.3 2 0 .4-.1.8-.1 1.2 0 .1.1.2.3.3.4 0 1.5-.7 1.5-.7 2.5z"/>
</svg>