<svg xmlns="http://www.w3.org/2000/svg" viewBox="0 0 1000 63.67" preserveAspectRatio="none">
    <path d="M916.2,58.53a46.9,46.9,0,0,1-46.1-17.89,32,32,0,0,1-14-4.4c-4.43,6.7-12.62,11.2-22,11.2-12,0-22.13-7.44-24.8-17.44a18.82,18.82,0,0,1-13.44,8.2,18.51,18.51,0,0,1-12.45-2.59h-.65a25.09,25.09,0,0,1-8.1-1.4,24.79,24.79,0,0,1-3.52-1.48,10.8,10.8,0,0,1-7.32-2.19,10.84,10.84,0,0,1-15.13,2.91,13.67,13.67,0,0,1-1.63.16,21.69,21.69,0,0,1-2.93,0,19.23,19.23,0,0,1-9.36,3.78,19.56,19.56,0,0,1-10.37-1.45A16,16,0,0,1,712,44.38c-7.56,1-14.51-3.07-16.67-9.28q-.71-.27-1.41-.58a10.82,10.82,0,0,1-7,.48,10.85,10.85,0,0,1-16.07,1.54,15.75,15.75,0,0,1-26.69.66,15.93,15.93,0,0,1-10.7-1.5c-.3-.2-.7-.4-1-.6,0,.2-.1.3-.1.4C629.2,45.1,618.4,51,607,48.9c-8.2-1.5-14.7-6.7-17.5-13.3a29.16,29.16,0,0,1-15.2,1.3,28.5,28.5,0,0,1-7-2.2,26.65,26.65,0,0,1-5.65-3.46A17.66,17.66,0,0,1,528,35.9a15.07,15.07,0,0,1-15.65-10.62,8.91,8.91,0,0,1-2.07.72L510,26a23.53,23.53,0,0,1-4.73,3.86,28.46,28.46,0,0,1-37.2-7.1c-2.3,9.3-12.6,15-23.2,12.7a21.31,21.31,0,0,1-14-9.9,20,20,0,0,1-9.3,2,14.17,14.17,0,0,1-6.7,11.8l-.05,0A14,14,0,0,1,395.6,34.8a13.84,13.84,0,0,1-10.3-2.1c-2.9,8.6-12.7,13.7-22.9,11.5a20.81,20.81,0,0,1-14.6-11c-.2-.4-.4-.9-.6-1.3a30.38,30.38,0,0,1-6,1.2,25.39,25.39,0,0,1-7.23-.41,13.46,13.46,0,0,1-16.46-2.33,23.88,23.88,0,0,1-14,8.3,24.3,24.3,0,0,1-13-.92,19.93,19.93,0,0,1-14.75,11.58c-9.84,2-19.24-3.1-21.9-11.42a13.43,13.43,0,0,1-10,1.91A13.49,13.49,0,0,1,219,32.56a20.31,20.31,0,0,1-8.94-2.07,20.31,20.31,0,0,1-13.62,9.33c-7.6,1.51-14.95-1.18-19.11-6.32a14.7,14.7,0,0,1-11.15-3.1,14.89,14.89,0,0,1-1.74-.57c-1,8.55-8.28,15.43-17.67,17a32.85,32.85,0,0,1-40.49-2.38,25.19,25.19,0,0,1-20.89,4.31v.09A50,50,0,0,1,0,68.64V86.47H1000V73.07a55,55,0,0,1-83.8-14.54Z" transform="translate(0 -22.8)"/>
</svg>