<svg xmlns="http://www.w3.org/2000/svg" viewBox="0 0 1000 90.1" preserveAspectRatio="none"><title>rocky-mountain-NEGATIVE</title><path d="M999.2,0V89.3c-2.1-.4-3.8.3-5.7.4,0,.1.1.2.1.3l-.3-.1a4.27,4.27,0,0,0-2.5-.1l-.1.1c-3.1-.8-2.6-3.4-8.3-3v-.5c-5.2-.2-10.4-.7-15.7-.5-5-.3-10.3-1.6-15.1-.8-5.6.9-10.9.7-16.4.8a29.31,29.31,0,0,0-7.2-1.2c-6.4-.3-8.2-2-8.6-4.3,0-.5-.2-1.1,1.2-1.5,3.9.1,5.7-1.1,8.4-2.1-4.9-1-9,.5-13.2.1h-2.4c-4.4-.6-.5-2.7-3.7-3.5a40,40,0,0,1-8.4-1.5c.3-2.6-3.8-4.2-8.5-5.5,0-1.1-.4-2.3,3.6-2.5h1.3l4.8-.5c3.3-.4,6.6-.9,9.7-1.5,1.8-.4,4-.6,4.9-1.5a.52.52,0,0,0,.4-.2c.1-.1,0-.2-.4-.3-2.2,0-4.4.1-6.6,0-4.4-.2-8.3,1.4-12.8.5a46.46,46.46,0,0,0-9.7-2l-2.4-1.5c.4-.1.4-.3,0-.5.7-2.2,3.8-3.3,9-3.5a6.54,6.54,0,0,0,3.1-.5c.4-2-2.7-1.1-4.9-1-2.5.8-4.9.2-7.3,0h-1.2c-3.5-2.3,2.3-3,4.6-4.1,4.6-2.2,4.5-2.8-2.1-4v-.5a257.26,257.26,0,0,0-29.1,1l-31.5,3.5a58.57,58.57,0,0,1-14.5,1.5c-1.2.7-3.1.4-4.8.5-1.3.7-3.2.4-4.9.5v.5c-7.2.4-14,1.5-20.7,2.5H779c-1.8-.7-4.2-1.2-5.3-2-5.1-3.7-13.8-5.8-21.2-8.5.1,0,.2-.1.3-.1.3-.3.2-.6-.5-.9-3.2-1.8-7.5-3.2-10.9-5l-1.2-.4a58.37,58.37,0,0,0-17-4.4,16.59,16.59,0,0,1-4.5-1.2c-8.4-2.7-15.5-6.4-27.9-5.9-1.8.1-3.2-.6-5-.8h-.2l-.1-.7a8.16,8.16,0,0,1-3.6-1.5c-8.7-2-18.3-3.1-27.8-4.1l-3.6-1-1.3-1c-5.8-.4-11.6-1.2-17,.5l-10.8.5a8.75,8.75,0,0,0-1.6-.2c-13.2-1.8-25.9-2.1-37.3,2.2-13.8.9-26.7,2.5-36.3,7.1l-2.6,2.5c-5.1,1.4-11.3,1.4-16.9,2-14.1.2-28.4-.3-41.8,2.2-.2,0-.4.1-.6.1-3.5.3-6,0-6-1.8,1.8-.8,1.7-1.7,0-2.5-1.5-2.3-6.3-4-6.2-6.5a16.84,16.84,0,0,1-4.8-2,42.72,42.72,0,0,0-21.8,2.5c-5.5.9-9,3.1-14.5,4l-2.5,1.4-4.8.5a13.86,13.86,0,0,1-5.3,1l-20,1.5a1.71,1.71,0,0,0-1.4,0c-6.9.5-12.2,3-19.9,2.9,3.2-.6,3-2.1,5.4-2.9.6-2.1.6-2.1-1.2-2.5-3.9.2-5.9,2.8-10.9,1.5-.4-.5-.5-1.2-2.4-.9h-.1c-1.3-1.4-2.2-3-7.5-2.2-.8.2-2.3-.5-3.4-.8,1.9-.8,3.3-1.7,4.9-2.5,2.5-.2,4.8-.5,6.1-1.5-.8-1.4-2.9-.7-4.8-.5a63.58,63.58,0,0,1-14.5,1c-1.5-.5-1-1,0-1.5l1.2-.5a11.6,11.6,0,0,0,2.4-2c2.7-.3,6.2.1,7.3-1.5h1.2c.7-.6,2.7-1.1,1.2-2l-6.1-1c-1.6.5-3.2-.7-4.8,0-6.7,1.1-13,2.7-20.6,2.5-.7.3-2,.2-2.6.5-2.4.2-5-.4-7.1.5-1.6,0-2.4.4-2.5,1l-2.3.5a36.43,36.43,0,0,0-13.4,3.5c-3.5.6-5.7,2.1-9.7,2.5-1.3,1.1-4.1,1.3-6.2,1.8-3.3.8-7.5,1.1-9.5,2.7-2.7-.1-3.5,1-4.9,1.6-4,1.8-9.8,3-12.1,5.5h-4.8c-3.4-1-7.3-.3-10.9-.5-1.9-1.3-1.6-3.6-7.9-3-1.5.1-4.2.5-4.7-.5s2.6-1.1,4.1-1.5c1.1-.4,3-.8,3-1.2.2-2.5,4.4-3.9,8.6-5.6-2.2-.3-5.1.3-6.4-.7-1.1-.9,3.7-.3,1.9-1.6-8.8,1.2-15.3,4-22.7,6.1l-3.7,1c-3.4.8-7.6,0-10.9,1-3.4.3-5.4,1.1-6.1,2.5-4.1,1.8-7.8,3.8-12.5,5.3A30.53,30.53,0,0,0,175.5,44c-1.9.4-3.5,1-3.6,2-2.2.6-4.5,1.2-4.8,2.5-3,.6-4,2-6,3-2,.4-3.6,1-3.7,2-3.3,1-4.3,2.4-4.2,4.1.1,2.5-3.7,4.7-9.3,5.5-3.5.5-7.1.9-10.7,1.4-4.5.6-9.4.5-13.6,1.6a8.07,8.07,0,0,1-5.7-.6c-1.6-.9-2.9-2.3-5.8-1.8s-2.7,2.1-2.7,3.3v1c-.1,0-.2.1-.3.2-1.6,1-2.4,2.4-6.6,2.3-3.9-.1-4.9-1.4-6.4-2.5,0-1.1-.4-2.1-3.3-2.8-.1,1.3-1.2,2.4.9,3.3-.1,1.4-3.8,1.9-4.9,3a4,4,0,0,0-2.4.5c-2.9.7-5.2.7-6.2-.9-.7-1.2-2.6-1.9-5.4-2.2-2.4,1.6-.6,3.7-4.1,5.1-6.5,0-4.6,2-4.8,3.4-.3,2.3-1.2,2.6-5.8,1.4-4-1.1-5-.3-5.1,1.2v4.8c-3.7-2.1-7.9-2.6-10.9-3.8l-1.2-2c.2-1.6-1.7-2.7-4.5-3.6-1.6-.5-3.1-.1-2.3.6,1.5,1.3-.5,2.8,2,4v1.5c-.4,2.6-7,4.2-6.1,7-3.6.8-6.8.9-9.1-.9-.7-.5-2.8-1.4-3.5-.4C13.7,89.9,9.1,89,5,89L1.3,85.5A2.07,2.07,0,0,0,0,84.4v5.7H1000V0Z" transform="translate(0 0)"/></svg>