<svg id="Layer_1" xmlns="http://www.w3.org/2000/svg" viewBox="0 0 1000 91" preserveAspectRatio="none"><style>.st0{fill-rule:evenodd;clip-rule:evenodd}</style><path class="st0" d="M67.3 23.6c.1.1.2.2.3.2-.1-.1-.2-.1-.3-.2zM751.1 35c.1.1.1.1 0 0 .1 0 .1 0 0 0z"/><path class="st0" d="M997.6 60.1c1.4-1.1-3-1.1-3.7-1.9-.5-.5.2-3.1-.4-4.5-1.2-2.4-4.6-2.4-7.8-3-1.1-1-1.9-2.3-4.5-1.9.5-.8.4-2.1 1.1-2.7 1.1.2 2.1.6 2.3 1.9.6-1 1.8-1.9 1.1-3.4 2.2-1.4 5.5-1.7 7.4-1.5-1.4-2.4-5.5-2-7.1 0-.5-.2-.6-.8-.7-1.5-2.6-.7-3.6 1.5-4.9 0-1-.3.2 1.7-.7 1.5-1.1.1-.7-1.1-.4-1.9-2.7.3-4.5 1.3-5.7 3 1.8-1 2.7 1.5 3.7-.4 1.1 1.6 2.7 2.9 3.4 4.8-1.6.5-1 2.7-.8 4.1-2 .6-3.4 1.7-3 3.7-.9-.3-1.4.2-1.1 1.1-.7-.7-1.3-2.1-.4-3-.1-.9-1.4-.5-1.5-1.5.9-1.2 1.4-3.1 1.1-5.6-1.8-.4-2.4-2-1.8-3.7-1 .8-1.2 2.4-3.7 1.9 1.9 1-.9 1.4-1.1 2.6-1.1-.3-1.9-.8-2.2-1.8-2.2 1.1-2.7 2.6-2.7 4.5 3.2.4 2.7 2.1 4.8 3.4 2.4-2 5.9-.6 6 3-2.6-.2-6.1 1.7-11.2 1.1-.6-.7-.9-1.9-1.8-2.2-1.4.5-2.6 1.1-4.5 1.1.1-.8-.2-1.2-1.1-1.1-.1-.5.3-1 .8-1.1-.1-1.2-2.4-.1-2.2-1.5-1.2.1-1 1.5-2.7 1.1.2-.3.4-.7.3-1.1-.9 1.8-1.8.9-3.7 1.9-.4-.5-.1-.6 0-1.1-2.4.5-3.1.5-5.2 1.1-.1.7.4.8.4 1.5-1.2.3-1.4-.4-2.3-.4-.2-1.5.2-2.4 1.2-2.7-.4-.6-1.3-.5-1.9-.8.2-1.1-.4-1.4-.4-2.2 1.9-3 4.1-4.6 4.2-7.9-1.6-.3-3.7-2.6-4.5-4.5-.2-1.3-1.2 1.5-1.5 0-1.6 1.8 1.2 5-1.9 6.7-.7.1.6 1-.3 1.5-3.6.9-6.1-3.2-6.1-6.3-1.1-.2-2.2-.2-3.3-.2.1.3.1.5 0 .9-.2.5-1.5.1-1.5.8-.6-.3-.9-1.1-.6-1.7h-.2c-.6.2-1.6.1-1.2 1.3.2.6.5-.2 1.1 0 .2 2.8.1 1.9-1.8 3.3.6-1-1.4-3-3-1.1 1.7 4.1-5.1 2-7.1 5.6-1.8-.3-3.5-.7-3-3.4l3-1.5v-1.7c2.5-1.4 5.3-2.4 5.9-5.6-1.3.2-2.6-.7-4.5-.9-.1-2.3-1.1-.8.4-2.7-.9 1-2.6 1.3-3.6.6-.4.2-.8.4-1.1.6.1.3.1.5.4.5-.1.7-.6.9-1.5.8-.1-.2-.1-.3-.1-.4-.3.3-.4.7-.4 1.1-1.9-.8-3-2.4-4.8-3.3-.2 1.1-.5 2.1-1.1 3 .1.6.3 1.1.7 1.5 2.1-1.1 3.4-1.4 5.7-.4-.5.2-.9.5-1.4.9-.1.1-.1.2-.1.3-.1 0-.1-.1-.1-.1-.3.3-.5.5-.6.8 1.5 1.2 1 2.5.3 4.2-1.2-.1-1.8-.7-3.3-.4-.4-2.6-3.1-2.3-4.9-2.6.3-.3.4-.7.4-1.1-1 .3-1.6 1-2.7 1.1-1.8-1.9-6.2-.6-8.2-3-.4-1.7.3-2.8 1.1-3.5-.8-.9-1.8-1.6-2.6-2.4-2.5-1.5-2.3-5.8-3.5-8.6-.1-.1-.2-.1-.3-.2.1-.1.1-.2.1-.3-.2-.2-.3-.4-.4-.6-1 .3-2.2.5-3.4.6.2.8.3 1.6.8 2.2-.7 1.9-2.2 3.3-4.2 3.7-.2.8 1 1.2-.3 1.1-.2 1 2.3 2.6.3 3 .6 1.1 1.8 2.1 2.1 3.2 2-.7 4.3-.6 4.7 1.8-.3.4-.9.3-1.1.8-.6 1.4 1.7.1 1.1 1.5.3 1.5-.9 0-1.1-.4-1.6 1.2-2.9 2.6-4.1 4.2-2.4-.3-4.6-.9-5.3-3-1.5-.3-.9 1.6-2.2 1.5-.2.9.7.8.4 1.9-1.7.1-2.2 1.3-2.7 2.7-2.8-.5-3.4-3.1-4.9-4.9-.2-1.2.9-1 1.1-1.9-1 .4-1.1-.5-1.6-1.4-.1 0-.2.1-.2.1-.4-.3-.3-.5-.2-.7-.2-.2-.4-.4-.6-.5-.9.2-.8 1.2-2.2.8.3-.5.5-.9.7-1.4 0-.1-.1-.1-.1-.2-1.5-.6-2.9 1.3-4.4-.3-1.2 2.8-5.7 1.8-8.6 1.9.9 1.1.4 1.6 0 3-1.5.2-4.3 2.1-6.7.4.2-1.1-1.2-.8-.8-2.2-.5.3-.6.8-.7 1.5-.7.1-1.1-.1-1.5-.4-.6.2-1.5-.3-2.2.5.6.6-.3 1.5 0 3-.7-.1-1.2-.3-1.5-.7-.2.1-.3.2-.3.4-.5-.4-.7-1-.8-1.8-1.1-.2-2.2-1.1-3-1.9-.1-1.9 2.4-1 2.2-3-.4-.5-1.2-.5-1.9-.6v1.4c-2.1-.5-3.4-1.1-6-1.9.2.6-.2 2.8 1.2 3.7 1.1 0 1-1.2 2.6-.8-.5 2.4 2.2-.5 1.9 1.9-1.6-.3-1.9.9-3 1.1.4.6 3.5-.8 3 2.3-2.3.1-5.7 0-7.9 1.1-.7-1.6-3.1-.7-3.3-3.4 1.3-1.8 1.4-3.7 2.7-4.9-2.3-.7.9-.7 1.1-2.2.7-.1 1.2.1 1.1.8 1.2-.7 1.1-3.5.7-3.7.5-1.2 1.2.4.4.7.9.2 1.4-.1 1.5-.7-1.5-1.2-3.2-2.1-4.9-3-1.2 1.1-1 1.6-3 1.5.8 2-.2 1.3-.3 3 0 .7 1.2.2 1.1 1.1 0 2.2-4.2 4-2.2 5.6.3 1.1-1 .7-.8 1.8-1-.1-2-.2-2.9-.4-.5 1-1.3 1.9-1.9 2.3.3 3.4 2.6 4.9 3.7 7.4-2.1-1.4-1.2 2.1-3 2.2-1.8.1-2.2-1.2-3-2.2 2.3-2.6 1.5-7.3-1.1-9.3-.4 2.1-3.1 3.5-5.3 2.6-2.1 1.1-2.1 2.8-3.7 3.7-1.2.2-1.1-1.1-1.8-1.5-1.3-.1-1.7 1.7-2.7.8-.7.1-.2 1.2-.8 1.5-.7-.8-1.2 0-1.5.8-.8-.4-1.8-.4-2.7 0 .3 1.6-.6 2.1-1.1 3h-2.2c.2-1.2.8-3-.8-3.4.1-.2.2-.4.3-.5-1.5.2-3 .2-4.1.2.9-1 .4-2.4.5-3.7l-.1-.1c-.5.1-.7 1.6-.7 0-1.2 0-.4 2.1-1.1 2.7-1.4-.4-2.6-1-3.7-1.9.4-1.1.4-2.6 1.8-2.7-.2-1.4-.4-2.8-1.5-3.3-2.4 2.3-4.4 5.9-6.8 6.4.6 1.2 1 2.1-.4 3 .5.3 2.9.1 3 1.9-.7.7-1 .1-1.9 0-.1 1 1.5.3 1.2 1.5-.5-.1-.7.1-.8.4-1-.5-.4-2.9-2.7-2.2-.2-2.3-4.1-4.1-6.7-5.3.3-1.6 1.7-3.9 3.4-5.3-.2-1.5-.3-3.1 0-4.6-1.6.3-3.2 1-4.3 2.4-1.6-1.5-1-3.9-1.7-5.6l-1.2.3c-.1 0-.1.1-.1.1-.3.1-.5.2-.8.3-.3.2-.5.6-.5 1.1-.3-.2-.6-.4-.9-.5-.8.5-1.3 1-.8 2.1-.8-.3-1.9-.3-2.3-.8.3 2.1-.6 5.1-3.7 4.2-1.2.3.2 3.3-2.2 3.3 0 .7.5.8.4 1.5 1.2-.6 1.6.2 3.3 0 .1 1.5.4.5 1.9 1.5 1.5-3.2 4.9-2.1 5.2.4-1.4-.1-.5 2.2-2.2 1.9.2.5.6.8 1.1.7.1 1.6-1.7 1.3-1.8 2.7-1.8-2.3-4.8-2.1-8.6-1.9-.1 1.1.9 1.1.7 2.3-.5-.1-.6.3-1.1.4-1.1-.2-1.2-1.2-2.2-1.5-.1-.9-.1-1.8.4-2.2-1.5.5-2.9-1.1-3.4.7-2.7-1.5 0-8-6-7.1-.9 1.8-1.1 3.7-1.8 6.4-.8.3-1.5.8-2.7.7-.7-2.3-2.3-3.7-3-6 .1-1.7 1.6-2.1 1.8-3.7-1.6-2.4-2.7-3.8-6.4-4.5-.5.9-1.5 1.5-2.2 2.3-1.8-.2-2.4-1.9-4.1-1.1-4.3-3.1-2.8-8.7 1.1-11.2-1.7-1.2-3.2.9-4.8 1.1 1 1.7-.2 2.9-1.1 3.7-.9-.3-1.8-.7-2.5-1.2-.1 0-.1.1-.1.1-.5-.5-1-1.1-1.3-1.8-1.9.6-2.9 1.9-5.1 2.1v1.1c1.5.8 2.8.6 4.5.4.9.9.7 2.9 2.7 2.7 0 4.6-6.4 2.3-6 6.4-1.3-.1-1.6.9-2.7 1.1-.3 1.7.6 2.1.8 3.4-1.1.6-3 .5-3 2.2-1.1-.2-2-1.1-2.2-2.2-.4 1.9-2.6.8-3.3 0-.3-1.1 1.3-.5.7-1.9-1.2-.5-.3 1.2-1.5.7.2-.5.7-.5.8-1.1-.2-.5-.8-.7-1.5-.7-1-.3-.7.7-1.1 1.1-1.4.2-1.9-.4-2.7-.7-.2-1 .7-.7.7-1.5-.4-1-1.5-1.2-2.6-.7 3 2.5-3 1.5-4.9 3.3-.7-.4 1-1.7 1.5-2.2-5-.4-5.8-3.4-9-4.9-1.8 1.2-4.2 2.2-4.2 4.9h-1.5c-.2-2.1.6-3.3.3-5.6-4.5 1.6-7.2-.4-9.7-2.7.5-1.1.3-1.8.1-2.3-.3.2-.6.4-.9.5-.7-.7.3-.7 0-1.9.1.1.1.1.2.1-.1-.3-.1-.7.1-1.1.3.2.6.3 1 .3 0-.1 0-.2-.1-.4-.4-.6-.7-.2-1.1-.2l.2.2c-2.9-.2-4.4 3.7-7.4 4.5-1.9-.4-2.6-.2-4.5-.8-.5-1.1.3-1.3-1.1-1.5 2.2-1.5 1.9-5.6 4.5-6.8.1-1.8-2.1-1.4-3.3-1.9-.3-1 .7-.7.7-1.5-1 .1-1.5.7-2.7.7-3.1-.7-4.4-3.1-4.4-5.6-3 .5-5.5 1.3-6.6-1.4.2 1 .1 2.2-.2 3.7-1 .6-2.6.7-3 1.9 1 .3 1.6 1.9 3 2.2 1.5-.1 1.5-1.5 2.6-1.9 2.1-.1 2.2 2.2 4.2 1.1 0 1.1-1.1 1.9-1.8 1.1-.8.1-.2 1.7-.8 1.9 1.2.2 2.2.2 4.2.4.2 2.1-.5 2.8-.8 3.7-1.8-1-4.1-1.5-5.6-3.7-.9.5 1.2 1.2 1.1 2.2-.8-.8-1.4.4-1.8 1 1.9.5 3.8 1 5.7 1.1-.4 1.3-1.4 2-2.5 2.4-.1.2-.1.5.1.9 2-.4 4.2-1.3 4.5 1.1-.3 0-.3.5-.3.8-2.8-.3-5.1 1.8-5.3 3-.9.9-3.9-.3-6-.4.4-1.4-.9-1-.8-2.2-1.4.5-5.1-.2-5.6 2.2-2-.2-2.4-2-3.7-3-3.4 1.1-6.4 4.4-8.2 6-2.3-.3-4-.2-5.6-1.9 4-1.2 4.5-8.5 8.2-11.2-1.5-.2-.9-.6 0-1.9-.5-.4-.9-1-1.2-1.7-.5.6-.7 1.5-1.2 2.1-.8 0-1.1-.6-2.2-.4.6-1 .8-1.4 0-2.2-1.6-.4-.7 1.7-2.2 1.5-1-.9-.2-2.3 1.4-1.9-.4-.6-.6-1.2-.7-1.9-3.6.9-8.2 1.5-11.1.1-.2-.8.5-.7 1.1-.7-1.8-.3-1.5-2.8-3-3.4-.1-1.3 1.1-1.2 1.4-2.2-1.4 1.4-3.7 1.6-5.6 1.1-.4.4-.2.7-.4 1.9-1.3.1-1.7 1-3 1.1 1 1 .9 3.4 3 3.4-.4 1.5 1.2 3 0 4.1.6.3 1.4.8 2.2 1.5.2-1 .6-1.7 1.7-1.8.8.8.2 2.2-.7 2.7 2 1.8 3.2 4.2.1 5.9 2.6 3.2-1.6 5.5-3.6 7.5-1.5-.8-1-4.9 1.1-4.5-2.1-.8-2.5 1.2-4.9 1.5-.2-1.4-2.3-.7-2.3-2.3-1.1.5-.6 2.2-.7 2.3-1.4 1.5-2.6-.1-4.5 0-.3-1.8 1.8-1.2 1.1-3.4.7-.4 1.4-.6 2.2-.7-.9-1.1.8-2 1.5-2.7-.4-.7-1.5-.8-2.7-.7-.2-1.4.8-1.7 1.5-2.2-2.7-2.5-10.5 2-9.7 6.4-1.8 0-1.8 4.3-3.7 5.3-1.2-1.4-1.5-.8-3.4-.4-.4-.8-.6-1.6-1.5-1.9-1.3.2-1.6 1.1-2.2 1.9-1-.6-3.4-1.4-4.2 0-1.2-.7.6-1.5.8-2.2-1.4-.6.5-2-1.5-1.9 1.9-1.4 2.4-4.3 3-7.1 1.4.1 1.6-.9 2.2-1.5.4-1.2-.5-1.1-1.1-1.5.2-1.1 1.3-.1 1.6-.8-.5-.6-.9-1.2-.8-2-2.7-3.9-7.6-.6-11.2-.6-.4.7-.9 1.4-1.1 2.3.4.4.7.7 1 .8.1-.3 0-.6-.1-.8 1.9 0 2.1.5 3.7 0v.3c.7-.2 1.5-.4 2.3-.3.5 1 .7 2.2.8 3.3-1.1.2-2.3.5-3.4.8-2.3 3.4-6.8 7.4-13.1 8.2-.8.3-1.1 1.1-1.1 2.2-1.6-.2-1-2.7-2.2-3.3 2.1-1.3 3.4-1.5 6.4-2.2.2-.9-.7-.8-.4-1.9 1.6-.6 1.8 1.3 2.7.4-1-.4.3-2 1-3.6-1.4.5-2.6.8-3.8.3v-.1c-2 .2-4.5.7-7 .1-.9.5-.7 2.1-1.5 2.7-2.7.1-3.9-1.4-6-1.9-2.1 2.2-1.4 5.5.7 7.1-.4.8-1 1.5-.7 3-2.2-1-5.4-.5-7.9 1.1-1-.4-2.1-.7-2.2-2.2-1.5-.4-.9 1.3-2.6.7.6-3.2 6.7-2.4 5.2-6.8 1 .1.1 1.5 1.9 1.5 1.1-1.4.1-2.9.7-4.9 1.1-.6 2.6-1.3 1.8-2.6 1.4.3 1.1-1 2.3-.8.1-1.6-.6-1.5 0-2.7.2.1.4.1.6.2-.2-.2-.3-.3-.4-.5-2 1-2.9 3.3-4.8 4.4-1.3 0-2.4-.5-3-1.3-.7.4-1.8.5-2.1.1-.9.2-.6 1.6-1.5 1.9 3.4 1.9-1.4 4.8.7 7.1.2 1.7-2.1 1.1-1.8 3H513c1-.8.3-3.3 1-4.5-.3-.4-.6-.6-1-.8-.2-3.3 2.2-4.6 1-7.9-2.1-2.1-4 3.5-4.9 3.7-.4.2-.7.3-1 .5-.4.7-.9 1.3.2 1.8.3 1-.7.7-.7 1.5-1.2.4-1.1-.6-1.8-.7-.8 1.4-1.4 2.9-2.2 4.1.2 1.9 1.5 2.5 1.9 4.1-.5.5-.9 1-1.5 1.5-1.2-1.7-2.6-3.1-5.3-3.4-.3-1.2.6-1.1.7-1.9-1.8.4-2.9-1.4-4.5-2.2.1-.5 0-.9-.1-1.2-.3.1-.5.1-.8.1-.1-.6.3-1.1.6-1.6-1.1-.8-2.6-1.9-3.1-1.8-.6-.4-.4-1.8-.6-2.6-.3-.1-.5-.1-.6-.2-.7.3-1.4.7-1.9.2-.6.5.6 1.8-.3 2.7-1.7-.3-2.4.3-3-.8-.9 2.1-3.6 3.9-5.6 6 .6 4.9-5 7.3-9.3 7.5-1-.7-1-2.5-1.9-3.4-2.4.8-3.4-.3-4.1-2.2-1.5.8-3.5-.6-4.5-1.5-.3 1.6-1.7 2.8-3.3 3 .5-1.8-2.2-.5-2.7-1.5-.2 1-1.8.7-1.8 1.9-.5-.1-.4-.7-.4-1.1-3.2-.5-2.4 3-5.6 2.6-.2.5-.4 2.4-2.2 2.3-.1-.9.5-1.2 1.1-1.5-1.7-.8-1-1.8-2.7-2.7 1.8-2.3 2.8-7.3 7.1-6 .1-1-.1-2-.4-3-3.5 1.7-6.9 1.1-9.3 1.9 1.6.7 2.4 2 3.3 3.4.5 2.2-1.8 1.6-1.5 3.7-3.7.7-7.1 6.1-10.5 2.7-1.9.6-6.3 2.8-6.7-.4 1.5.9 2.8-1.8 4.1 0-.4-.8-1.2-1.3-1.5-2.3-.8.7-.6 1.4-1.9.8-.1-1.1.9-1.1.7-2.2.8-.2 1 .3 1.5.4.1-.6-.4-1.9.8-1.5-.2-.7-1.5-.3-1.1-1.5.9-.9 2.2-.1 2.6.8 1.6-1.6 3.2-.8 4.9-2.3-1-2.3.7-5.3 2.2-4.8v-1.1c-1-.2-2.1-1.1-3.4-1.9.6-1.4.7-2.3.5-3.2-.7-.1-1.4-.5-2-.9.2-.4.3-.6.3-.9-1.5.6-3.4.6-4.7 1.3 3.3 1 1.5 5.5-.3 6.8-8.3-1.2-2.2 6.6-10.2 6.4 0-2.8.6-5.3 1.5-8.2 3.7.2 2.9-.6 5.2-1.1.3-1.2.1-1.6.8-3 1.4.2 1.2.4 2.2-.4-4.1-2.5-7.2 4.7-10.2 1.1-.9.5-1.9.7-3 .8-2.1-1.7-2.2-2.4-4.5-.8 0 .6 2.2.6.4.8 1.1.9 2.4 1.7 3.7 2.2-.9 2.7 1.3 3.2 2.7 4.5-.5 1.7-2.1 2.1-2.2 4.1-2.9.3-4.9 3.2-8.6 3 2.7-1.8-1.8-.4-3.7-.4.3.4.9.4.7 1.1-.3.2-.7.4-.7.8-2.2-3 5.1-4.8 2.2-8.6 3.1-.1-2-1.6-2.2-1.5-1.1-.2.3-.8 0-1.5-.5.1-.7-.1-.7-.4-.6 1.8-1 .3-1.9.7-.6 1.5-1.8 2.7-3.3 3.4-.8-.4-1.7-.8-1.9-1.9-1-.1-.3 1.4-1.5 1.1-.6-.2-1.7-3 0-3-.1-1.1-.9-1.4-1.5-1.9 1.8-.7-1.2-1.7 1.1-1.9-1.8-1.3-3.9-1-5.6 0 3 3.1-1.1 7.7-1.5 10.8 1.6-.9 1.5-1.3 2.7-2.6 2.6.6 4.4-.5 6 .7-.4 2.2 1.6 2.1 1.8 3.7.3 1.2-1.2.5-1.5 1.1.2.8 1.7.2 1.9.8-3.3 4.6-10.9.2-15.7-.4.6-2.4-2.4-1.1-1.9-3.4 1.4-.4 2.6 1.4 4.5 0-2.1-1-2.8-2.2-3.7-4.9H377c-.4 1.4-2 2.1-1.9 3-.9.1-.5-.3-.3-.7-.3.1-.5.1-.7.2.1.4.1.8.1 1.3-.7.3-1.2.6-2.1.7-.5.5-1 .9-1.8 1.1-.1 1.1.7 1.6.4 3-1.5-.1-2.3.6-4.2.4-.3-1.4.5-1.8 1.5-1.9-1.1-2.2-1.1-5.5-1.9-7.4-1.6.2-2.6.6-3.4-1.1-.8.7-1.1 1.7-1.8 1-.6 1.8-.9 3.7-3.3 4.5.6-2.1 1.1-4.2 1.5-6.4-.7-1.2-1.4-.1-3-.4-2.8-3.1-6.9-5.6-9.7-7.5-.4.1-.4.7-.4 1.1 1.1.5 3.5 1.4 3.7 4.5-.7.7-2.1.9-3 1.5-.5 1.5 1.5 2.4.7 4.1.5.6 1.6.6 2.2 1.1-.1 1.5-1 2.2-2.2 2.6.8 1.6 2.1 2.9 3.7 3.7-.8.8-1.9 1.9-1.1 3.3-1.3-.3-1.2.8-1.9 1.1-.7-.1-1-.7-1.5-1.1-.6 1.2-2.3 1.2-4.2 1.1-.4-.5-.3-1.4-1.1-1.5-2.2.7-3.3.3-4.9 1.5-.3-1.9 1.5-1.9 2.2-2.7-1.5-1.6 2.1-8.4-3.4-7.5-.4-2.5-1.6-2.1-.4-3.7-2.7 1.4-2.7 4.2-4.9 5.3 2.1 3.5-1.7 7.4-4.5 7.1.5-.2.1-1.4.8-1.5-.7-1.2-1.8-1-2.7-.4-.2 1.2.4 1.8 1.5 1.9-1.1.9-3.3-.3-3.3-1.9-1.7.6-3.9 2.4-5.2 2.2 0-1.2.9.1 1.1-1.5-1-1.5-1.9.5-2.7-.4.5-.9 1.4-1.3 1.5-2.6-.8-1-1.1 1.7-1.9 1.9-1.2.1-.2-2.1-1.8-1.5.9-.2 1-1.2 1.5-1.9-.2-.6-.5.2-1.1 0 .3-1.4-.4-1.8-.3-3 .4-.4 1.2-.4 2.2-.4.2.7.7 2.4-.4 3.4 1.1.7 1.7.2 2.7.4.5-1.5-1-.7-.7-1.9.3-.3.7-.4 1.1-.4 0-.3-.1-.6-.1-.8-.9-.2-1 0-2 .5-.1-1 .6-1.5.5-2.4-.2-.1-.4-.2-.7-.3-.1-.4.1-.7.2-.9 0-.1-.1-.1-.1-.1l.2-.2c.1-.3.1-.6 0-1h1.4c-.1-.3-.1-.5-.1-.8-.2-.3-.3-.6 0-.7v-.5c-.6-.1-1.2.7-1.7.8.5.8-.3 2.6-1.7 2.2-.1.4.1.8.4 1.1.3.3.7.4 1.1.4-1 1.3-2.7 1.1-3.7 0 .5-.7.9-1.4 1.4-2.1-1.6.7-3.6.8-5.5.6v.7h-1.8c-.2-.9.6-.8.3-1.8-.1 0-.1.1-.2.1-.8.7-1.4 1.6-2.4 2.1-.3 1.2 1.2 1 .3 1.9-.5.1-1 .1-1.5-.2.6.5 1 1 1.5 1.2 1.1-.6.2-1.1.7-1.8 2.7 0 4.6 3.9 4.5 6.7-2.7-.4-6.6 2.9-9 .4-.5.3-.8.9-.7 1.5h-1.9c.2-1.8 1-1.9.4-3.7.8-.6.7.3 1.5-.4-.9-.4-1.4-1.4-1.1-3 .8.2 1.6-.8.7-1.9 1.3-.6 2.2-.1 3.1.6.4-2.4 1.5-3 .7-5.2-.1 0-.1-.1-.2-.1-1.2.9-2.2 2-2.3 2.7-3.1-.1-8.8-.9-9-5.2.7-1 2-1.4 3.3-1.9.6-4.2-3-5.6-5.3-7.9.7-.5.8-.9.7-1.2-.6-.2-1.3-.3-2-.3-.1-.6.1-.9.3-1.2-.4-.2-.8-.4-1.2-.7-1.7 1.7-6.7.3-7.1 3.3-.4-.8-1.4-.9-2.7-.8.9-.3-1.1-2.7.7-2.6-.3-1.9-3.1 1-3-1.5 1.1-.5 1.4-.3 2.2.4 0-.6.2-1.2.4-1.7-.9.2-1.9.4-2.8.3-.3-.2-.5-.4-.7-.5-.5.7-1.4 1.1-2.4 1.6-.1.9 1.8 2-.3 1.9 0 .7 1 .5.7 1.5 4.9.2 6.3 1.6 9.7 3 .2 1.5-.8 2.6-.7 3.3.3 4.7 6.1 4.8 6.7 9-.6 1.3-1.3 2.4-2.3 3.3 1 .3 1.8.8 2 2-1.2.7-2.6-.4-4.2.4-.2-1.8-.2.5-1.1 0 .2-.2.3-.5.3-.8-1 .3-2.3.4-3.7.4.1-1.2-.9-2.3-1.3-4-.1.1-.2.3-.1.6-.4-.3-.8-.5-1.3-.7-1.9.5-3.3-.1-6.2.3 1.9-2.1-.2-3.3.4-5.3-2.1-.8-3.5-2.2-6.4-2.2-.6 2.3-1.4 1-2.7 3 2.6.9 2.5 5.2 2.7 7.4 2.8 1.9 8 1.5 9 5.3-2.7.5-3.7 2.4-6 3.3-1.2-.6-2.7-1-4.1-1.1-.2-.8.5-.7 1.1-.8-.3-.3-.4-.7-.4-1.1-3.5 2.4-5.6-3.4-10.9-3.3-.2-1-1.1-1.1-1.1-2.3-.9-.1-.9.9-1.5 1.1.6.5 2.3.8 1.1 1.9-1.6-.5-2.6-.9-3.6-1.6.4.4.9.8.7 2.3-.6-.1-.7.3-.7.8-.8.2-1-.3-1.5-.4 1-1.7-.7-1.2-.7-2.7-.4 0-.3.5-.4.8-.3-.1-1-1.6-1-2.8-.7.3-1.5.5-2.6.5-.1.1-.2.3-.3.4-.3 1.5 1.8.7 1.5 2.2-.3.2-.7.4-.8.8-.7-1.6-.7.7-1.8-.4-1.1 1.4-3.3 2-3 3.7-.8.1-1.4-.2-1.8-.5-1.8 0-3.7.8-6.1.5-.3-1.7 0-1.9.3-3-2.8-2.6-3.3 2.3-6.6 2.6.5-.1-1.3-.9-1.6-.3-.3-2.1.1-2.1.4-3.4-.1-.5-.7-.3-1.1-.4.6-3.1-.5-2.6 0-5.3-1.4-.6-.1 1.7-1.5 1.1 0 .7 1 .5.7 1.5-.8-.2-.8.7-1.8.4.3-.8 1.5-2.7-.4-2.6-1 1.1-2.7 1.5-3.7 2.6.3.8 1.8.5 1.9 1.5-1.5 3.1-7.5 1.8-9.4 4.5 0-1.1-1.7-.1-1.8-1.9-1.6 1-1.9.4-3-.4-1.1.3.5.9 0 1.9-1.2-.3-1.5.4-2.3.4-.5-2.1-1-4-1.4-5.6-1.2-.1-1.6.7-3 .4-.5-.5-.2-.5 0-1.1-1.5-.4-1.4 1.3-2.2.4-.4-1.1-.2-.9.4-1.8-2 .2-1.7-.2-1.9-1.1-1.5 1.5-3.2.8-5.2 1.5-1 .4 1.1.8 0 1.5-.6.6-1.6-.3-3 0 .2-.8.4-1.6 1.1-1.8-1.4-4.1-3-9.8-9-8.3-.8 3.5-6 2.4-7.4-.4-.6.1-1 2.6-.4 1.5.5.2 0 .7-.4.7.2.5.9.3 1.5.4.5 1.4-.1 2 .7 3.3.2 0 .3-.2.3-.4s-.1-.3-.3-.4c1.6-.1 3.4-.8 4.8-.4.1 2.9-1.9 4.2-1.5 7.1-1.1-.3-1.4.4-2.3.4 1.2-1.6-1.2-1.1-.3-2.3-1-.1-.8.6-1.5 0-1 1.2-2.3 2.2-3.3 3.4-.4-1.8-4.3 1.1-3-2.7-1.7-1.8-4 .6-5.9.2-.1.1-.1.2-.1.2h-1.1V30c-.1-.2-.3-.4-.4-.6 1-.7 1.4-2.1 2.3-3-2-1-4.3-1.6-6.6-1.6 1.2.8 2.1 2.2 3.3 3.1-.5 1.7-3.2 1.1-2.3 4.1-2.2 2.1-2.4 2-4.1 4.1.2 1.4 1.7-.8 1.8.4-1 1.4-1 .8 0 2.2-.6.2-1.3 0-1.8-.4-.2 1 .7.7.7 1.5 1.9-.7 3.7-1.3 5.7-1.1-.6-1.8-1.4-2.2-.8-4.5 1.4.1 3.4-.3 4.2.4.8.1.2-1.3.4-1.9 1.1.8 1.9-.5 3 .4-.2 1.6-.4 1.4-1.8 1.1.5.6 1.7.7 2.2 1.5-.1 2-1.8 2-1.5 3.4-3.6.5-5.9-.8-7.5 1.1.3.2.9-.3.8-.4 1.6 1.8 3.7 1 7.1 1.5 1.2-2.7 6.4-4.3 7.8-.8h2.7c-.5.9-2.6.5-3.3 1.1-.1.5-.1 1.1.4 1.1-4.9 3.4-8.1 8.5-15.4 9.4-.3-.7-.6-1.5-.7-2.2-1.8.3-2.7 1.6-5.3 1.1v1.1c.3 1 1.9.7 2.7 1.1-2.6 3.5-9.1 2-13.1 3.3.1.2.2.3.4.3s.4-.2.4-.3c1.9 4.4-5.4-.2-6 3-1.8-.5-2.2-2.3-3-3.7 1.1 1.1 2 .2 3.3-.4-.4 1.2-.2 1 .4 1.9.8-.1 1.6-.4 1.8-1.1-1.2-1-3.1-1.5-4.5-.4.1-.1.2-.8.3-.8-2.5.6-5.3-.3-8.2-.4 0 .7 1 .4.8 1.5-1 .7-1.9.9-2.7 0-2.6 1.1-5.4 4.1-5.3 5.6-1.4-.3-1.2.9-1.8 1.5 1.2.5.3-1.2 1.5-.7-1.2 1.2 1.7.2 1.2 1.8-7.2 2.3-7.9-4.8-7.9-7.9-6.1-.7-4.4-9.3-10.5-9-.2.1-3.4 1.1-3.7 4.1-1.2 0-3.1-1.3-3.3 0-.7-.3-.9-1-.4-1.5-1.5-.8-1.8 1.8-1.9 0-1 0-.5 1.5-1.5 1.5-4.4-.8-6.4-.5-10.2-2.2.2-1.4.6-2.4 1.8-2.6-1.5-3 2.2-4.1.4-6.8 1.7.9.9-3.1-.7-1.5-1.1.3.9.6.3 1.5-1.9-1.3-1.8-4-1.8-5.9-1.8.5-4.2.2-5.7-.8.2-.5.4-.9.6-1.4-.2-.4-.2-.8-.2-1.2.3.1.6.1.8.1.7-1.2 1.6-2.1 3-2.3.2.6.1 1.2.4 1.7.4-.5.8-.7 1.5-.2 1.1-.2.7-1.5.9-2-.7-.1-1.5-.4-2-.6-.1-.2-.1-.4-.2-.5-.2-.1-.4-.1-.6-.2-.2-.6.2-.8.4-1 0-1 .5-1.6 1.1-1.9.2-.7 1.1-.7 1.5-.2.4.1.9.3 1.2.6.4-.1.7-.2 1-.4-1.6-.4-.5-1.1-1.1-2.2-1.8-.5-1.4 1.2-3 1.1.2-1.7-1.9-.3-3.5-.1-.2.3-.3.7-.3 1.1-.7-.9-1.6.2-2.4-.2.3.5-.9 1.4.6 1.3-.3 1.2-1.9 1.2-2.7 1.9-.4 1.5.8 1.5.7 2.6-1.8 1-4.2-.7-4.5 1.5-1.6.3-1.3-2-.4-2.2-1-1.8-3.2-2.3-4.9-3.4-1.8.7-2.1 2.8-4.8 2.7-.9-1.8 1.5-2.2 2.2-3.4-.7-1-.5-3.9-3-4.1-.4.2-.8.3-1.1.5.1.9-.6.8-.4 1.8H48c-.1-.4-.1-.8.1-1.1-1 .4-2.1.6-3.8.4-.2.9 1.8 1.7.4 3.3 1.7 0 1.5-1.9 3-2.2.7 2.7 1 4.4 4.2 5.2-1.2 1.2 0 1.5.4 3-1.2-.1-1.5 1.1-3.7.8-.3-1.2-1.2-1.8-1.5-3-2.1-.1-2.3 1.7-3 3-.7.1-.8-.5-1.5-.4-.9.5 1.5 1 .7 2.6-.9 0-1.1.6-1.8.8.5 1 2 2.4 1.1 3.7 1.5.3 1.2-1.2 1.5-2.3.9-.2 1.5-.9 2.6-1.1 1.2.5 1.8 1.5 3.4 1.5-1.2 1.1-1.6 1.2-.8 3-.9-.3-1.4.2-1.1 1.1-1.2-.4-2.2-1-1.8-3-1-.2-.9.7-1.9.4-.3 1 1.8-.2 1.5.8 0 1.7-1.4-.2-2.7.4.1 1.2 1.6 1 2.2 1.8 0 1-2.2 1.7-3 .8-.6.2.1.5 0 1.1-3.1-.6-11.8-1.4-8.6-6.8.2-1.1-.7-1-.4-2.2 1.1-1 1.4-.4 3-.8.1-.6-.4-.6-.4-1.1-1-.3-.7.7-1.5.7 1.5-2.1-3.4-5.8-5.6-7.9-1.2-.3-.7 1-1.9.8.3-1.2-.9-1-1.1-1.9-1.7.6-3.2.5-3.7-1.1-.2 1.6-2.4-.3-2.2 1.1-.5-.4-1-.8-1.6-1.1-.6 0-.7.4-1.4.4 0 1.9 1 1.9.7 3.4 1.9.3 2.9-.8 3.7.4.1.7-.4.7-.3 1.5-.7.2-2.3-.5-1.9.8-.6.1-1.3 0-1.8-.4.1.6.3 1.5-1.9 1.5.7.7.7.3.4 1.5-1.5-.4-2.2-.4-2.2 1.5-1.7-.1-1.6-1.9-3.7-1.5 1.2-2.4-1.7-1.1-2.2-2.7-1-.2.9 1.4-.4 1.5.9-.1 2.6 1.4 1.1 2.7-.9-.8-2.2-.9-3.3-.4-1.6-1.4-.5-3-1.9-4.5-1.2.6-2.4.4-3.4-.3V91h999.9V60c-.7 0-1.5 0-2.3.1z"/></svg>